SplineFontDB: 2.0
FontName: THNiramitAS-BoldItalic
FullName: THNiramitAS-BoldItalic
FamilyName: TH Niramit AS
Weight: Bold
Copyright: Copyright (c) 2006 by Department of Intellectual Property (DIP), Ministry of Commerce and Software Industry Promotion Agency (Public Organization) (SIPA). All rights reserved.
Version: 1.1
ItalicAngle: -12
UnderlinePosition: -35
UnderlineWidth: 30
Ascent: 800
Descent: 200
XUID: [1021 375 425136265 7719273]
FSType: 0
OS2Version: 3
OS2_WeightWidthSlopeOnly: 0
OS2_UseTypoMetrics: 1
CreationTime: 1157457558
ModificationTime: 1204789321
PfmFamily: 17
TTFWeight: 700
TTFWidth: 5
LineGap: 60
VLineGap: 0
Panose: 2 0 5 6 0 0 0 2 0 4
OS2TypoAscent: 0
OS2TypoAOffset: 1
OS2TypoDescent: 0
OS2TypoDOffset: 1
OS2TypoLinegap: 0
OS2WinAscent: 15
OS2WinAOffset: 1
OS2WinDescent: 1
OS2WinDOffset: 1
HheadAscent: -105
HheadAOffset: 1
HheadDescent: 299
HheadDOffset: 1
OS2SubXSize: 700
OS2SubYSize: 650
OS2SubXOff: 0
OS2SubYOff: 140
OS2SupXSize: 700
OS2SupYSize: 650
OS2SupXOff: 0
OS2SupYOff: 477
OS2StrikeYSize: 30
OS2StrikeYPos: 250
OS2FamilyClass: 773
OS2Vendor: 'IPTH'
Lookup: 4 0 0 "'frac' Diagonal Fractions in Latin lookup 0"  {"'frac' Diagonal Fractions in Latin lookup 0 subtable"  } ['frac' ('latn' <'dflt' > ) ]
Lookup: 6 0 0 "'liga' Standard Ligatures in Latin lookup 1"  {"'liga' Standard Ligatures in Latin lookup 1 subtable"  } ['liga' ('latn' <'dflt' > ) ]
Lookup: 6 0 0 "'liga' Standard Ligatures in Latin lookup 2"  {"'liga' Standard Ligatures in Latin lookup 2 subtable"  } ['liga' ('latn' <'dflt' > ) ]
Lookup: 6 0 0 "'liga' Standard Ligatures in Latin lookup 3"  {"'liga' Standard Ligatures in Latin lookup 3 subtable"  } ['liga' ('latn' <'dflt' > ) ]
Lookup: 6 0 0 "'liga' Standard Ligatures in Latin lookup 4"  {"'liga' Standard Ligatures in Latin lookup 4 subtable"  } ['liga' ('latn' <'dflt' > ) ]
Lookup: 6 0 0 "'liga' Standard Ligatures in Latin lookup 5"  {"'liga' Standard Ligatures in Latin lookup 5 subtable"  } ['liga' ('latn' <'dflt' > ) ]

StartChar: .notdef
Encoding: 65536 -1 0
Width: 747
VWidth: 1494
Flags: W
HStem: 0 52<155 611> 987 52<354 810>
Fore
611 52 m 1
 810 987 l 1
 354 987 l 1
 155 52 l 1
 611 52 l 1
652 0 m 1
 94 0 l 1
 314 1039 l 1
 871 1039 l 1
 652 0 l 1
EndSplineSet
EndChar
StartChar: numbersign
Encoding: 35 35 4
Width: 602
VWidth: 1494
Flags: W
HStem: -7 21G<101 181.477 313 393.477> 215 73<103 182 284 394 496 569> 448 74<187 268 371 481 583 653> 695 20G<361.435 443 579 646.565>
Fore
653 448 m 1
 555 448 l 1
 496 288 l 1
 598 288 l 1
 569 215 l 1
 469 215 l 1
 386 -7 l 1
 313 -6 l 1
 394 215 l 1
 257 215 l 1
 174 -7 l 1
 101 -6 l 1
 182 215 l 1
 77 215 l 1
 103 288 l 1
 209 288 l 1
 268 448 l 1
 161 448 l 1
 187 522 l 1
 296 522 l 1
 369 715 l 1
 443 713 l 1
 371 522 l 1
 509 522 l 1
 579 712 l 1
 654 713 l 1
 583 522 l 1
 682 522 l 1
 653 448 l 1
343 448 m 1
 284 288 l 1
 421 288 l 1
 481 448 l 1
 343 448 l 1
EndSplineSet
EndChar
StartChar: dollar
Encoding: 36 36 5
Width: 578
VWidth: 1494
Flags: W
HStem: -31 103<217.524 256 348 403.673> 534 21G<555.5 584.484> 599 105<331.186 391 482 519.09>
VStem: 163 105<448.281 546.43> 476 110<129.443 227.447>
Fore
415 390 m 1
 493 348 586 324 586 222 c 0
 586 94 472 -21 325 -31 c 1
 310 -102 l 1
 241 -102 l 1
 256 -31 l 1
 161 -22 93 27 52 97 c 1
 154 173 l 1
 191 91 238 77 278 72 c 1
 326 297 l 1
 267 325 l 1
 267 325 163 362 163 473 c 0
 163 577 258 692 413 706 c 1
 426 765 l 1
 495 765 l 1
 482 704 l 1
 554 694 604 664 643 625 c 1
 568 534 l 1
 543 568 508 589 459 599 c 1
 415 390 l 1
391 604 m 1
 332 597 268 546 268 489 c 0
 268 443 319 434 352 417 c 1
 391 604 l 1
348 75 m 1
 433 89 476 139 476 182 c 0
 476 234 397 266 389 269 c 1
 348 75 l 1
EndSplineSet
EndChar
StartChar: percent
Encoding: 37 37 6
Width: 847
VWidth: 1494
Flags: W
HStem: -1 80<618.252 705.685> 303 81<654.417 745.1> 326 81<251.661 340.624> 631 81<287.32 376.839>
VStem: 161 78<417.89 568.45> 391 78<470.694 620.133> 528 78<90.1283 240.752> 757 79<142.095 292.007>
Fore
161 464 m 0xbf
 161 578 244 712 356 712 c 0
 429 712 469 653 469 575 c 0
 469 468 391 326 274 326 c 0
 191 326 161 393 161 464 c 0xbf
339 631 m 0
 270 631 239 535 239 479 c 0
 239 442 252 407 292 407 c 0
 351 407 391 492 391 555 c 0
 391 590 380 631 339 631 c 0
180 -33 m 1
 735 756 l 1
 825 756 l 1
 270 -33 l 1
 180 -33 l 1
528 136 m 0
 528 252 613 384 723 384 c 0xdf
 806 384 836 317 836 246 c 0
 836 131 754 -1 641 -1 c 0
 559 -1 528 65 528 136 c 0
705 303 m 0
 626 303 606 183 606 148 c 0
 606 105 625 79 658 79 c 0
 714 79 757 158 757 228 c 0
 757 263 747 303 705 303 c 0
EndSplineSet
EndChar
StartChar: ampersand
Encoding: 38 38 7
Width: 701
VWidth: 1494
Flags: W
HStem: -13 106<239.89 391.661> 637 88<385.153 456.671>
VStem: 91 114<127.816 253.918> 241 115<522.699 620.993> 461 102<547.708 633.323> 584 97<324.04 386>
Fore
563 617 m 0
 563 575 544 491 425 407 c 1
 527 247 l 1
 552 281 571 330 584 386 c 1
 681 386 l 1
 658 297 628 241 576 166 c 1
 677 1 l 1
 535 1 l 1
 493 73 l 1
 428 16 362 -13 293 -13 c 0
 175 -13 91 55 91 161 c 0
 91 299 215 377 280 420 c 1
 249 475 241 513 241 541 c 0
 241 632 314 725 432 725 c 0
 505 725 563 689 563 617 c 0
421 637 m 0
 401 637 356 626 356 572 c 0
 356 549 365 522 382 492 c 1
 417 521 461 557 461 600 c 0
 461 623 444 637 421 637 c 0
328 341 m 1
 205 254 205 223 205 191 c 0
 205 131 247 93 311 93 c 0
 371 93 411 123 446 154 c 1
 328 341 l 1
EndSplineSet
EndChar
StartChar: quotesingle
Encoding: 39 39 8
Width: 273
VWidth: 1494
Flags: W
HStem: 459 242<240 270 204 334 240 240>
Fore
270 459 m 1
 204 459 l 1
 216 587 l 1
 240 701 l 1
 334 701 l 1
 310 587 l 1
 270 459 l 1
EndSplineSet
EndChar
StartChar: parenleft
Encoding: 40 40 9
Width: 364
VWidth: 1494
Flags: W
HStem: 698 20G<307 444>
VStem: 124 84<19.3856 325.026>
Fore
444 718 m 1
 293 537 208 348 208 159 c 0
 208 56 234 -33 270 -111 c 1
 196 -111 l 1
 148 -15 124 82 124 178 c 0
 124 394 241 566 373 718 c 1
 444 718 l 1
EndSplineSet
EndChar
StartChar: parenright
Encoding: 41 41 10
Width: 366
VWidth: 1494
Flags: W
HStem: 698 20G<234 324.5>
VStem: 290 86<272.563 579.875>
Fore
54 -111 m 1
 156 2 290 192 290 441 c 0
 290 534 271 626 234 718 c 1
 305 718 l 1
 344 631 376 535 376 423 c 0
 376 210 258 28 128 -111 c 1
 54 -111 l 1
EndSplineSet
EndChar
StartChar: asterisk
Encoding: 42 42 11
Width: 548
VWidth: 1494
Flags: MW
HStem: 468 108<195.524 228.766 530.188 560.875>
Fore
177 507 m 0
 177 541 208 573 241 573 c 0
 259 573 329 552 329 552 c 1
 283 620 l 2
 261 650 304 703 346 703 c 0
 369 703 384 688 388 671 c 1
 394 578 l 1
 422 623 437 673 444 679 c 1
 457 694 478 703 494 703 c 0
 512 703 536 690 536 661 c 0
 536 620 506 616 446 552 c 1
 530 574 l 2
 534 575 539 576 543 576 c 0
 567 576 581 556 581 531 c 0
 581 495 548 468 519 468 c 0
 513 468 l 1
 433 490 l 1
 477 422 l 2
 502 385 450 338 413 338 c 0
 396 338 372 347 372 371 c 2
 371 457 l 1
 319 379 319 338 268 338 c 0
 234 338 225 359 225 378 c 0
 225 423 259 428 319 489 c 1
 229 468 l 1
 224 466 219 465 215 465 c 0
 198 465 177 481 177 507 c 0
EndSplineSet
EndChar
StartChar: plus
Encoding: 43 43 12
Width: 597
VWidth: 1494
Flags: W
HStem: 209 102<135 292 416 573 113 595 135 135>
Fore
292 209 m 1
 113 209 l 1
 135 311 l 1
 314 311 l 1
 352 490 l 1
 454 490 l 1
 416 311 l 1
 595 311 l 1
 573 209 l 1
 394 209 l 1
 356 30 l 1
 254 30 l 1
 292 209 l 1
EndSplineSet
EndChar
StartChar: comma
Encoding: 44 44 13
Width: 364
VWidth: 1494
Flags: W
HStem: -158 307<99 207 207 207>
VStem: 109 165<7.57739 109.493>
Fore
109 54 m 0
 109 99 153 149 207 149 c 0
 245 149 274 125 274 84 c 0
 274 39 246 -55 99 -158 c 1
 50 -121 l 1
 85 -104 155 -37 172 -7 c 1
 133 -7 109 21 109 54 c 0
EndSplineSet
EndChar
StartChar: hyphen
Encoding: 45 45 14
Width: 597
VWidth: 1494
Flags: W
HStem: 209 102<135 573 113 595 135 135>
Fore
113 209 m 1
 135 311 l 1
 595 311 l 1
 573 209 l 1
 113 209 l 1
EndSplineSet
EndChar
StartChar: period
Encoding: 46 46 15
Width: 307
VWidth: 1494
Flags: W
HStem: 0 146<129.438 211.786>
VStem: 94 150<31.6316 110.701>
Fore
94 55 m 0
 94 100 136 146 185 146 c 256
 222 146 244 121 244 89 c 0
 244 42 205 0 154 0 c 256
 118 0 94 22 94 55 c 0
EndSplineSet
EndChar
StartChar: slash
Encoding: 47 47 16
Width: 291
VWidth: 1494
Flags: W
Fore
-39 -94 m 1
 386 768 l 1
 475 768 l 1
 50 -94 l 1
 -39 -94 l 1
EndSplineSet
EndChar
StartChar: zero
Encoding: 48 48 17
Width: 597
VWidth: 1494
Flags: W
HStem: -10 92<238.36 397.58> 637 91<353.196 510.767>
VStem: 99 91<135.121 280.486> 559 88<443.128 584.742>
Fore
295 -10 m 256
 211 -10 99 25 99 214 c 0
 99 255 104 303 116 359 c 0
 180 658 350 728 452 728 c 0
 536 728 647 693 647 506 c 0
 647 465 641 416 629 359 c 256
 562 42 397 -10 295 -10 c 256
316 82 m 0
 456 82 516 234 542 359 c 0
 552 407 559 452 559 491 c 0
 559 578 527 637 434 637 c 256
 332 637 248 561 205 359 c 0
 195 310 190 268 190 233 c 0
 190 123 238 82 316 82 c 0
EndSplineSet
EndChar
StartChar: one
Encoding: 49 49 18
Width: 440
VWidth: 1494
Flags: W
HStem: 0 21G<226 319.247> 700 20G<442 461.5>
VStem: 178 308<541 671 541 541>
Fore
449 631 m 1
 315 0 l 1
 226 0 l 1
 345 561 l 1
 336 555 263 502 231 481 c 1
 178 541 l 1
 413 709 l 1
 413 710 l 1
 425 717 437 720 447 720 c 0
 476 720 486 686 486 671 c 0
 486 655 465 636 449 631 c 1
EndSplineSet
EndChar
StartChar: two
Encoding: 50 50 19
Width: 581
VWidth: 1494
Flags: W
HStem: 0 91<73.496 81.9769 81.9769 94 207 451> 634 87<339.268 483.919>
VStem: 516 92<461.57 600.744>
Fore
418 634 m 0
 337 634 261 570 261 495 c 0
 261 487 262 478 263 469 c 1
 174 448 l 1
 175 476 178 502 183 526 c 0
 212 664 338 721 435 721 c 0
 523 721 608 671 608 560 c 0
 608 405 458 276 312 172 c 2
 254 130 l 1
 207 91 l 1
 451 91 l 1
 463 108 486 134 494 146 c 1
 501 146 513 135 561 108 c 1
 487 0 l 1
 87 0 l 2
 83 0 80 -1 77 -1 c 0
 56 -1 46 7 46 22 c 0
 46 36 58 68 67 82 c 0
 72 88 78 91 88 91 c 0
 94 91 l 1
 105 104 142 145 227 208 c 2
 264 235 l 2
 357 301 516 418 516 540 c 0
 516 615 454 634 418 634 c 0
EndSplineSet
EndChar
StartChar: three
Encoding: 51 51 20
Width: 594
VWidth: 1494
Flags: W
HStem: -13 79<233.182 399.855> 534 21G<238 251> 625 90<299 487 599.723 639.841>
VStem: 77 90<136.621 209> 510 99<197.905 355.225>
Fore
313 66 m 0
 445 66 510 190 510 279 c 0
 510 344 476 394 413 394 c 0
 396 394 375 390 352 383 c 1
 327 360 311 341 291 341 c 0
 273 341 254 360 254 384 c 0
 254 410 262 409 434 575 c 2
 487 625 l 1
 299 625 l 1
 285 600 253 544 249 534 c 1
 227 546 196 558 180 573 c 1
 252 715 l 1
 633 715 l 2
 649 715 656 706 656 693 c 0
 656 683 651 672 649 667 c 0
 634 631 630 625 604 625 c 1
 601 623 593 616 580 602 c 2
 442 471 l 1
 559 471 609 399 609 309 c 0
 609 162 486 -13 318 -13 c 0
 202 -13 97 15 77 209 c 1
 167 235 l 1
 171 132 212 66 313 66 c 0
EndSplineSet
EndChar
StartChar: four
Encoding: 52 52 21
Width: 560
VWidth: 1494
Flags: W
HStem: 0 21G<350 443.255> 141 91<198 380 488 561> 700 20G<550.5 567>
Fore
590 675 m 0
 590 662 589 659 576 643 c 1
 488 232 l 1
 580 232 l 1
 561 141 l 1
 469 141 l 1
 439 0 l 1
 350 0 l 1
 380 141 l 1
 88 141 l 2
 67 142 57 161 57 180 c 0
 57 183 57 197 69 211 c 2
 530 707 l 2
 538 716 546 720 555 720 c 0
 579 720 590 695 590 675 c 0
461 520 m 1
 448 507 429 487 403 458 c 2
 247 284 l 2
 224 258 207 241 198 232 c 1
 399 232 l 1
 461 520 l 1
EndSplineSet
EndChar
StartChar: five
Encoding: 53 53 22
Width: 594
VWidth: 1494
Flags: W
HStem: -14 86<239.127 394.181> 422 87<318.394 476.28> 625 90<332 658>
VStem: 529 87<213.653 371.583>
Fore
306 72 m 0
 433 72 529 201 529 302 c 0
 529 386 460 422 394 422 c 0
 331 422 255 392 206 294 c 1
 133 326 l 1
 162 371 216 559 247 641 c 1
 237 665 256 701 271 710 c 1
 279 713 287 715 298 715 c 2
 677 715 l 1
 658 625 l 1
 332 625 l 1
 322 594 301 531 279 469 c 1
 327 495 374 509 420 509 c 0
 550 509 616 435 616 328 c 0
 616 166 486 -14 292 -14 c 0
 256 -14 170 -5 90 94 c 1
 164 160 l 1
 230 85 274 72 306 72 c 0
EndSplineSet
EndChar
StartChar: six
Encoding: 54 54 23
Width: 587
VWidth: 1494
Flags: W
HStem: -15 84<246.525 406.916> 401 89<320.783 477.471> 645 81<372.349 529.712>
VStem: 97 98<118.968 275.337> 519 90<186.166 360.469> 576 81<544 599.016>
Fore
97 219 m 0xf8
 97 398 224 726 472 726 c 0
 643 726 657 601 657 550 c 0
 657 544 l 1
 576 522 l 1xf4
 577 596 535 645 452 645 c 0
 313 645 241 488 210 390 c 1
 265 453 347 490 423 490 c 0
 543 490 609 402 609 294 c 0
 609 137 474 -15 311 -15 c 0
 238 -15 97 25 97 219 c 0xf8
403 401 m 0
 300 401 195 306 195 193 c 0
 195 114 252 69 323 69 c 0
 431 69 519 165 519 284 c 0xf8
 519 341 494 401 403 401 c 0
EndSplineSet
EndChar
StartChar: seven
Encoding: 55 55 24
Width: 581
VWidth: 1494
Flags: W
HStem: 0 21G<196 315> 532 21G<182.5 244.759> 625 90<277 568>
VStem: 182 91<561 620.908> 196 88<25.3617 213.932>
Fore
188 668 m 1xf0
 194 697 217 715 243 715 c 2
 669 715 l 1
 686 712 695 704 695 690 c 0
 695 676 679 630 654 623 c 1
 644 592 653 587 594 522 c 0
 462 387 346 206 284 0 c 1
 196 0 l 1xe8
 239 133 351 389 533 575 c 0
 563 604 561 604 568 625 c 1
 277 625 l 1
 275 609 273 610 273 579 c 2
 273 561 l 1
 182 532 l 1
 183 599 188 668 188 668 c 1xf0
EndSplineSet
EndChar
StartChar: eight
Encoding: 56 56 25
Width: 591
VWidth: 1494
Flags: W
HStem: -19 82<231.203 397.683> 372 91<334.679 450.586> 640 92<363.719 492.514>
VStem: 80 96<117.567 266.777> 213 97<487.68 589.908> 504 95<172.28 320.316> 515 96<512.018 617.938>
Fore
611 590 m 0xfa
 611 509 555 451 519 425 c 1
 576 392 599 330 599 271 c 0xfc
 599 148.54 503.38 -19 290 -19 c 256
 170 -19 80 46 80 165 c 0
 80 297 171 385 250 423 c 1
 230 446 213 478 213 518 c 0
 213 617 307 732 450 732 c 0
 576 732 611 655 611 590 c 0xfa
430 640 m 0
 394 640 310 607 310 535 c 0
 310 485 362 463 392 463 c 0
 472 463 515 525 515 570 c 0xfa
 515 617 470 640 430 640 c 0
373 372 m 0
 284 372 176 299 176 188 c 0
 176 111 235 63 307 63 c 0
 438 63 504 176 504 252 c 0xfc
 504 320 450 372 373 372 c 0
EndSplineSet
EndChar
StartChar: nine
Encoding: 57 57 26
Width: 550
VWidth: 1494
Flags: W
HStem: -11 83<202.758 350.517> 221 90<277.347 388.641> 641 88<326.065 481.026>
VStem: 134 91<365.01 528.34> 525 93<429.424 597.532>
Fore
134 416 m 0
 134 566 254 729 424 729 c 0
 569 729 618 647 618 532 c 0
 618 384 542 176 480 100 c 0
 420 26 346 -11 258 -11 c 0
 178 -11 80 24 71 145 c 1
 158 190 l 1
 160 135 188 72 271 72 c 0
 407 72 469 225 487 287 c 1
 404 221 344 221 316 221 c 0
 228 221 134 288 134 416 c 0
409 641 m 0
 288 641 225 525 225 440 c 0
 225 355 285 311 345 311 c 0
 430 311 525 409 525 518 c 0
 525 572 503 641 409 641 c 0
EndSplineSet
EndChar
StartChar: colon
Encoding: 58 58 27
Width: 328
VWidth: 1494
Flags: W
HStem: -3 147<138.594 221.572> 353 146<214.438 298.132>
VStem: 104 151<30.0942 109.029> 179 151<385.451 463.527>
Fore
104 51 m 0xe0
 104 94 140 144 195 144 c 256
 234 144 255 117 255 85 c 0
 255 43 218 -3 163 -3 c 256
 127 -3 104 18 104 51 c 0xe0
179 408 m 0xd0
 179 453 221 499 270 499 c 256
 308 499 330 475 330 442 c 0
 330 393 289 353 239 353 c 256
 203 353 179 375 179 408 c 0xd0
EndSplineSet
EndChar
StartChar: semicolon
Encoding: 59 59 28
Width: 348
VWidth: 1494
Flags: W
HStem: 353 146<214.438 298.132>
VStem: 106 165<7.57739 109.493> 179 151<385.451 463.527>
Fore
106 54 m 0xc0
 106 99 150 149 204 149 c 0
 242 149 271 125 271 84 c 0
 271 39 243 -55 96 -158 c 1
 47 -121 l 1
 82 -104 152 -37 169 -7 c 1
 130 -7 106 21 106 54 c 0xc0
179 408 m 0xa0
 179 453 221 499 270 499 c 256
 308 499 330 475 330 442 c 0
 330 393 289 353 239 353 c 256
 203 353 179 375 179 408 c 0xa0
EndSplineSet
EndChar
StartChar: less
Encoding: 60 60 29
Width: 582
VWidth: 1494
Flags: MW
Fore
115 311 m 1
 638 499 l 1
 617 398 l 1
 234 259 l 1
 558 123 l 1
 536 21 l 1
 93 209 l 1
 115 311 l 1
EndSplineSet
EndChar
StartChar: equal
Encoding: 61 61 30
Width: 677
VWidth: 1494
Flags: MW
HStem: 109 102<135 597> 311 102<178 640>
Fore
156 311 m 1
 178 413 l 1
 662 413 l 1
 640 311 l 1
 156 311 l 1
113 109 m 1
 135 211 l 1
 619 211 l 1
 597 109 l 1
 113 109 l 1
EndSplineSet
EndChar
StartChar: greater
Encoding: 62 62 31
Width: 575
VWidth: 1494
Flags: MW
Fore
575 209 m 1
 52 21 l 1
 74 123 l 1
 456 259 l 1
 133 398 l 1
 154 499 l 1
 597 311 l 1
 575 209 l 1
EndSplineSet
EndChar
StartChar: question
Encoding: 63 63 32
Width: 542
VWidth: 1494
Flags: W
HStem: -1 134<227.892 310.009> 638 84<327.222 466.754>
VStem: 199 138<25.1715 104.167> 488 101<504.452 616.104>
Fore
250 224 m 2
 285 389 488 452 488 563 c 0
 488 592 475 638 402 638 c 0
 331 638 273 583 255 549 c 1
 195 593 l 1
 233 660 302 722 422 722 c 0
 551 722 589 649 589 585 c 0
 589 428 381 351 354 224 c 2
 340 161 l 1
 236 161 l 1
 250 224 l 2
199 47 m 0
 199 90 233 133 282 133 c 256
 316 133 337 112 337 80 c 0
 337 38 304 -1 254 -1 c 256
 221 -1 199 17 199 47 c 0
EndSplineSet
EndChar
StartChar: at
Encoding: 64 64 33
Width: 1031
VWidth: 1494
Flags: W
HStem: -200 80<398.487 644.462> -11 62<673.404 760.201> -1 81<418.317 525.954> 457 84<561.689 669.006> 651 82<545.526 800.237>
VStem: 123 89<57.367 298.53> 313 88<96.5717 227.037> 950 84<299.131 513.13>
Fore
675 651 m 0xdf
 387 651 212 367 212 174 c 0
 212 8 328 -120 516 -120 c 0
 587 -120 665 -99 761 -57 c 1
 746 -142 l 1
 682 -171 591 -200 496 -200 c 0
 220 -200 123 -10 123 162 c 0
 123 418 356 733 692 733 c 0
 836 733 1034 661 1034 432 c 0
 1034 208 851 -11 701 -11 c 0xdf
 677 -11 605 -5 589 57 c 1
 590 59 588 59 588 61 c 1
 583 52 520 -1 443 -1 c 0xbf
 387 -1 313 36 313 141 c 0
 313 287 454 541 638 541 c 0
 676 541 718 525 737 492 c 1
 755 535 l 1
 845 535 l 1
 744 294 l 2
 683 147 670 133 670 93 c 0
 670 68 680 51 707 51 c 0
 782 51 950 222 950 413 c 0
 950 568 830 651 675 651 c 0xdf
407 211 m 0
 403 192 401 176 401 161 c 0
 401 97 437 80 466 80 c 0xbf
 512 80 575 130 609 193 c 0
 669 301 683 371 683 393 c 0
 683 431 660 457 620 457 c 0
 521 457 420 274 407 211 c 0
EndSplineSet
EndChar
StartChar: A
Encoding: 65 65 34
Width: 663
VWidth: 1494
Flags: W
HStem: -18 21G<9 118.724 547.355 655> 185 93<282 498>
Fore
533 662 m 1
 655 0 l 1
 551 -18 l 1
 514 185 l 1
 226 185 l 1
 107 -18 l 1
 9 0 l 1
 426 680 l 2
 437 701 470 736 492 736 c 0
 510 736 552 719 552 696 c 0
 552 686 549 683 533 662 c 1
450 564 m 1
 282 278 l 1
 498 278 l 1
 450 564 l 1
EndSplineSet
EndChar
StartChar: B
Encoding: 66 66 35
Width: 632
VWidth: 1494
Flags: W
HStem: 0 100<221 464.907> 318 99<291 487.063> 608 104<331 539.599>
VStem: 522 102<188.61 289.154> 550 101<503.616 594.573>
Fore
404 417 m 2xe8
 489 417 550 471 550 553 c 0
 550 592 526 608 455 608 c 2
 331 608 l 1
 291 417 l 1
 404 417 l 2xe8
371 100 m 2
 466 100 502 133 519 214 c 0
 521 223 522 231 522 239 c 0xf0
 522 301 459 318 397 318 c 2
 268 318 l 1
 221 100 l 1
 371 100 l 2
624 254 m 0
 624 193 574 0 375 0 c 2
 102 0 l 1
 227 589 l 1
 228 591 228 594 228 596 c 0
 228 620 197 638 197 658 c 0
 197 678 246 724 269 724 c 0
 274 724 284 719 296 712 c 1
 489 712 l 2
 585 712 651 655 651 566 c 0xe8
 651 538 642 438 547 380 c 1
 576 365 624 327 624 254 c 0
EndSplineSet
EndChar
StartChar: C
Encoding: 67 67 36
Width: 642
VWidth: 1494
Flags: W
HStem: -10 101<306.929 508.011> 616 105<402.544 571.004>
VStem: 118 108<173.86 394.588>
Fore
506 616 m 0
 282 616 226 370 226 271 c 0
 226 178 267 91 406 91 c 0
 498 91 552 135 572 152 c 1
 622 78 l 1
 549 12 453 -10 371 -10 c 0
 210 -10 118 84 118 245 c 0
 118 472 269 721 521 721 c 0
 591 721 671 701 718 644 c 1
 703 618 677 585 655 552 c 1
 600 612 533 616 506 616 c 0
EndSplineSet
EndChar
StartChar: D
Encoding: 68 68 37
Width: 677
VWidth: 1494
Flags: W
HStem: 0 102<216 439.684> 610 100<324 522.277>
VStem: 614 106<355.278 529.983>
Fore
604 356 m 0
 610 386 614 414 614 438 c 0
 614 553 545 610 408 610 c 2
 324 610 l 1
 216 102 l 1
 334 102 l 2
 464 102 564 168 604 356 c 0
720 466 m 0
 720 307 636 0 300 0 c 2
 94 0 l 1
 219 589 l 1
 220 591 220 594 220 596 c 0
 220 621 189 639 189 657 c 0
 189 672 233 724 261 724 c 0
 267 724 269 724 289 710 c 1
 451 710 l 2
 659 710 720 596 720 466 c 0
EndSplineSet
EndChar
StartChar: E
Encoding: 69 69 38
Width: 563
VWidth: 1494
Flags: W
HStem: 0 100<203 478> 318 102<271 516> 610 102<312 610>
Fore
248 724 m 0
 253 724 263 719 275 712 c 1
 631 712 l 1
 610 610 l 1
 312 610 l 1
 271 420 l 1
 537 420 l 1
 516 318 l 1
 250 318 l 1
 203 100 l 1
 499 100 l 1
 478 0 l 1
 81 0 l 1
 206 589 l 1
 207 591 207 594 207 596 c 0
 207 620 176 638 176 658 c 0
 176 678 225 724 248 724 c 0
EndSplineSet
EndChar
StartChar: F
Encoding: 70 70 39
Width: 532
VWidth: 1494
Flags: W
HStem: 0 21G<85 191.25> 320 100<277 522> 611 99<318 613>
Fore
254 723 m 0
 257 723 280 710 280 710 c 1
 634 710 l 1
 613 611 l 1
 318 611 l 1
 277 420 l 1
 543 420 l 1
 522 320 l 1
 255 320 l 1
 187 0 l 1
 85 0 l 1
 210 587 l 1
 210 589 211 591 211 593 c 0
 211 618 180 636 180 654 c 0
 180 672 226 723 254 723 c 0
EndSplineSet
EndChar
StartChar: G
Encoding: 71 71 40
Width: 686
VWidth: 1494
Flags: W
HStem: -12 102<300.224 469.249> 284 103<424 555> 625 101<398.679 564.34>
VStem: 129 104<158.378 382.073>
Fore
478 625 m 0
 320 625 233 400 233 253 c 0
 233 136 296 90 393 90 c 0
 417 90 445 93 519 115 c 1
 555 284 l 1
 402 284 l 1
 424 387 l 1
 614 387 l 1
 628 398 641 406 656 406 c 0
 681 406 700 362 700 344 c 0
 700 321 656 312 649 278 c 2
 599 40 l 1
 521 9 444 -12 342 -12 c 0
 186 -12 129 98 129 233 c 0
 129 457 277 726 499 726 c 0
 697 726 708 591 709 552 c 1
 606 517 l 1
 605 547 599 625 478 625 c 0
EndSplineSet
EndChar
StartChar: H
Encoding: 72 72 41
Width: 677
VWidth: 1494
Flags: W
HStem: 0 21G<88 192.277 490 593.264> 318 102<277 558> 693 20G<235.736 340 637.7 741>
Fore
490 0 m 1
 558 318 l 1
 256 318 l 1
 188 0 l 1
 88 0 l 1
 240 713 l 1
 340 713 l 1
 277 420 l 1
 579 420 l 1
 642 713 l 1
 741 713 l 1
 589 0 l 1
 490 0 l 1
EndSplineSet
EndChar
StartChar: I
Encoding: 73 73 42
Width: 273
VWidth: 1494
Flags: MW
HStem: 0 21G<88 191.264> 693 20G<235.736 339>
Fore
88 0 m 1
 240 713 l 1
 339 713 l 1
 187 0 l 1
 88 0 l 1
EndSplineSet
EndChar
StartChar: J
Encoding: 74 74 43
Width: 449
VWidth: 1494
Flags: MW
HStem: -11 94<104.291 241.173> 693 20G<395.725 500>
Fore
173 83 m 0
 204 83 269 98 285 175 c 2
 400 713 l 1
 500 713 l 1
 387 185 l 2
 340 25 240 -11 169 -11 c 0
 110 -11 59 11 30 28 c 1
 84 124 l 1
 99 104 132 83 173 83 c 0
EndSplineSet
EndChar
StartChar: K
Encoding: 75 75 44
Width: 635
VWidth: 1494
Flags: W
HStem: -9 21G<91 197.259 498.865 629> 693 20<238.736 345 634.833 727.966>
Fore
514 -9 m 1
 262 324 l 1
 193 0 l 1
 91 0 l 1
 243 713 l 1
 345 713 l 1
 282 417 l 1
 659 729 l 1
 759 700 l 1
 354 371 l 1
 629 0 l 1
 514 -9 l 1
EndSplineSet
EndChar
StartChar: L
Encoding: 76 76 45
Width: 548
VWidth: 1494
Flags: MW
HStem: 0 91<219 520> 693 20G<246.74 352>
Fore
123 112 m 2
 251 713 l 1
 352 713 l 1
 219 91 l 1
 539 91 l 1
 520 0 l 1
 158 0 l 1
 147 -9 114 -23 107 -23 c 0
 83 -23 61 18 61 36 c 0
 61 60 116 82 123 112 c 2
EndSplineSet
EndChar
StartChar: M
Encoding: 77 77 46
Width: 985
VWidth: 1494
Flags: W
HStem: -15 21G<33 137.286 475.5 495.5 851.188 952>
VStem: 851 101<1 250.5 250.5 516>
Fore
295 682 m 0
 295 711 362 731 375 731 c 0
 398 731 419 695 421 676 c 2
 527 160 l 1
 853 676 l 2
 862 694 897 731 919 731 c 0
 939 731 981 712 981 690 c 0
 981 681 976 675 951 647 c 1
 952 1 l 1
 851 -15 l 1
 856 516 l 1
 550 34 l 1
 551 16 550 20 549 16 c 0
 545 -7 507 -22 484 -22 c 0
 467 -22 457 -16 458 -3 c 1
 349 516 l 1
 129 -15 l 1
 33 1 l 1
 310 647 l 1
 299 668 295 675 295 682 c 0
EndSplineSet
EndChar
StartChar: N
Encoding: 78 78 47
Width: 708
VWidth: 1494
Flags: W
HStem: 0 21G<97 201.241 519.437 615.254> 704 20<265.5 293 657.729 762>
Fore
201 666 m 0
 201 690 251 724 280 724 c 0
 306 724 325 699 334 673 c 0
 339 658 336 674 472 389 c 2
 555 209 l 1
 662 710 l 1
 762 710 l 1
 611 0 l 1
 529 0 l 1
 299 481 l 1
 197 0 l 1
 97 0 l 1
 224 596 l 2
 225 599 225 601 225 604 c 0
 225 629 201 648 201 666 c 0
EndSplineSet
EndChar
StartChar: O
Encoding: 79 79 48
Width: 695
VWidth: 1494
Flags: W
HStem: -13 98<289.551 449.244> 628 98<396.583 557.729>
VStem: 121 103<156.979 387.545> 621 104<323.054 556.234>
Fore
121 238 m 0
 121 425 236 726 502 726 c 0
 664 726 725 608 725 470 c 0
 725 283 609 -13 345 -13 c 0
 183 -13 121 99 121 238 c 0
481 628 m 256
 312 628 224 411 224 268 c 0
 224 179 255 85 366 85 c 0
 531 85 621 299 621 447 c 0
 621 540 587 628 481 628 c 256
EndSplineSet
EndChar
StartChar: P
Encoding: 80 80 49
Width: 581
VWidth: 1494
Flags: W
HStem: 0 21G<87 191.219> 256 100<258 451.924> 608 104<311.177 503.293>
VStem: 552 104<464.294 566.715>
Fore
324 356 m 2
 477 356 532 409 549 489 c 0
 551 498 552 506 552 514 c 0
 552 571 503 608 376 608 c 0
 367 608 314 608 311 605 c 1
 258 356 l 1
 324 356 l 2
656 538 m 0
 656 436 585 256 307 256 c 2
 241 256 l 1
 187 0 l 1
 87 0 l 1
 212 589 l 1
 213 591 213 594 213 596 c 0
 213 620 182 638 182 658 c 0
 182 678 231 724 254 724 c 0
 259 724 269 719 281 712 c 1
 395 712 l 2
 531 712 656 666 656 538 c 0
EndSplineSet
EndChar
StartChar: Q
Encoding: 81 81 50
Width: 714
VWidth: 1494
Flags: W
HStem: -12 105<298.991 436.903> 620 105<404.46 565.405>
VStem: 129 109<159.018 384.41> 625 110<320.806 557.621>
Fore
129 232 m 0
 129 406 230 725 511 725 c 0
 685 725 735 602 735 476 c 0
 735 374 703 233 616 120 c 1
 694 43 l 1
 615 -31 l 1
 538 46 l 1
 482 7 421 -12 354 -12 c 0
 191 -12 129 93 129 232 c 0
546 191 m 1
 605 278 625 389 625 455 c 0
 625 542 594 620 489 620 c 0
 310 620 238 389 238 262 c 0
 238 167 277 93 377 93 c 0
 409 93 439 101 469 118 c 1
 412 176 l 1
 489 250 l 1
 546 191 l 1
EndSplineSet
EndChar
StartChar: R
Encoding: 82 82 51
Width: 623
VWidth: 1494
Flags: W
HStem: -13 21G<87 191.219 456.227 573> 256 100<258 347> 608 104<311.137 503.293>
VStem: 552 104<464.02 566.715>
Fore
324 356 m 2
 477 356 532 409 549 489 c 0
 551 498 552 506 552 514 c 0
 552 571 503 608 376 608 c 0
 375 608 313 607 311 605 c 1
 258 356 l 1
 324 356 l 2
656 538 m 0
 656 453 605 319 448 275 c 1
 573 1 l 1
 465 -13 l 1
 347 256 l 1
 241 256 l 1
 187 0 l 1
 87 0 l 1
 212 589 l 1
 213 591 213 594 213 596 c 0
 213 620 182 638 182 658 c 0
 182 678 231 724 254 724 c 0
 259 724 269 719 281 712 c 1
 395 712 l 2
 531 712 656 666 656 538 c 0
EndSplineSet
EndChar
StartChar: S
Encoding: 83 83 52
Width: 626
VWidth: 1494
Flags: W
HStem: -23 98<239.364 425.869> 622 103<355.115 534.151>
VStem: 183 109<461.045 566.291> 503 108<138.803 240.753>
Fore
611 225 m 0
 611 129 522 -23 310 -23 c 0
 202 -23 133 5 77 76 c 1
 169 160 l 1
 223 95 260 75 327 75 c 0
 413 75 503 122 503 194 c 0
 503 310 183 300 183 486 c 0
 183 587 273 725 459 725 c 0
 531 725 621 704 664 634 c 1
 595 550 l 1
 588 560 542 622 440 622 c 0
 348 622 292 564 292 509 c 0
 292 388 611 403 611 225 c 0
EndSplineSet
EndChar
StartChar: T
Encoding: 84 84 53
Width: 581
VWidth: 1494
Flags: W
HStem: 0 21G<233 337.267> 614 99<170.335 364 464 677.315>
Fore
162 654 m 0
 162 697 183 713 214 713 c 2
 663 713 l 2
 679 713 695 708 695 687 c 0
 695 674 684 614 638 614 c 2
 464 614 l 1
 333 0 l 1
 233 0 l 1
 364 614 l 1
 192 614 l 2
 168 614 162 635 162 654 c 0
EndSplineSet
EndChar
StartChar: U
Encoding: 85 85 54
Width: 736
VWidth: 1494
Flags: W
HStem: -12 91<290.827 490.971> 693 20G<244.723 348 690.729 793>
VStem: 140 100<125.595 203.186 193.582 212.79 212.79 226 236 242.389>
Fore
389 79 m 256
 470 79 566 108 591 226 c 2
 695 713 l 1
 793 713 l 1
 691 236 l 2
 659 85 529 -12 369 -12 c 0
 231 -12 140 46 140 170 c 0
 140 190 142 212 147 236 c 2
 249 713 l 1
 348 713 l 1
 244 226 l 2
 241 212 240 200 240 188 c 0
 240 102 318 79 389 79 c 256
EndSplineSet
EndChar
StartChar: V
Encoding: 86 86 55
Width: 695
VWidth: 1494
Flags: W
HStem: 706 20G<175 281.552 712.172 821>
Fore
300 49 m 1
 175 709 l 1
 278 726 l 1
 381 146 l 1
 724 726 l 1
 821 709 l 1
 403 24 l 2
 394 6 358 -30 335 -30 c 0
 316 -30 274 -8 274 11 c 0
 274 19 279 24 300 49 c 1
EndSplineSet
EndChar
StartChar: W
Encoding: 87 87 56
Width: 985
VWidth: 1494
Flags: W
HStem: 707 20G<183 284.774 634.5 653 998.66 1102>
VStem: 184 95<190 455 455 704>
Fore
643 727 m 0
 663 727 694 715 694 692 c 0
 694 690 693 688 693 686 c 256
 693 685 691 680 686 671 c 1
 786 190 l 1
 1007 720 l 1
 1102 704 l 1
 825 58 l 1
 835 40 839 31 839 23 c 0
 839 -6 771 -26 757 -26 c 0
 736 -26 716 11 715 30 c 1
 609 546 l 1
 283 30 l 2
 268 7 233 -26 215 -26 c 0
 203 -26 154 -9 154 16 c 0
 154 25 162 35 184 58 c 1
 183 704 l 1
 285 720 l 1
 279 190 l 1
 610 709 l 1
 613 721 626 727 643 727 c 0
EndSplineSet
EndChar
StartChar: X
Encoding: 88 88 57
Width: 659
VWidth: 1494
Flags: W
HStem: -9 21G<43.381 148.533 520.089 624.238> 699 20G<209 322.476 640.836 753>
Fore
529 -9 m 1
 394 294 l 1
 131 -6 l 1
 39 15 l 1
 363 378 l 1
 209 700 l 1
 314 719 l 1
 428 450 l 1
 658 718 l 1
 753 700 l 1
 456 368 l 1
 629 12 l 1
 529 -9 l 1
EndSplineSet
EndChar
StartChar: Y
Encoding: 89 89 58
Width: 597
VWidth: 1494
Flags: W
HStem: 0 21G<248 349.239> 708 20G<172 276.17 619.051 725>
Fore
725 709 m 1
 686 661 686 661 676 650 c 2
 416 335 l 1
 345 0 l 1
 248 0 l 1
 319 335 l 1
 194 651 l 2
 183 679 173 708 172 710 c 1
 269 728 l 1
 383 410 l 1
 635 726 l 1
 725 709 l 1
EndSplineSet
EndChar
StartChar: Z
Encoding: 90 90 59
Width: 606
VWidth: 1494
Flags: W
HStem: 0 97<220 568> 613 97<191 535>
Fore
73 -19 m 0
 45 -19 35 30 35 44 c 0
 35 67 88 91 112 118 c 2
 535 613 l 1
 170 613 l 1
 191 710 l 1
 632 710 l 1
 675 728 670 729 682 729 c 0
 709 729 720 681 720 667 c 0
 720 642 664 616 643 592 c 2
 220 97 l 1
 589 97 l 1
 568 0 l 1
 123 0 l 1
 80 -18 85 -19 73 -19 c 0
EndSplineSet
EndChar
StartChar: bracketleft
Encoding: 91 91 60
Width: 366
VWidth: 1494
Flags: MW
HStem: -138 95<155 251> 647 96<302 418>
Fore
44 -138 m 1
 231 743 l 1
 438 743 l 1
 418 647 l 1
 302 647 l 1
 155 -43 l 1
 271 -43 l 1
 251 -138 l 1
 44 -138 l 1
EndSplineSet
EndChar
StartChar: backslash
Encoding: 92 92 61
Width: 336
VWidth: 1494
Flags: MW
Fore
264 -25 m 1
 137 743 l 1
 227 743 l 1
 354 -25 l 1
 264 -25 l 1
EndSplineSet
EndChar
StartChar: bracketright
Encoding: 93 93 62
Width: 367
VWidth: 1494
Flags: MW
HStem: -138 95<78 193> 647 96<245 340>
Fore
58 -138 m 1
 78 -43 l 1
 193 -43 l 1
 340 647 l 1
 225 647 l 1
 245 743 l 1
 451 743 l 1
 264 -138 l 1
 58 -138 l 1
EndSplineSet
EndChar
StartChar: asciicircum
Encoding: 94 94 63
Width: 599
VWidth: 1494
Flags: W
HStem: 318 380<478 507>
VStem: 149 435<318 318 318 318>
Fore
478 318 m 1
 422 589 l 1
 255 318 l 1
 149 318 l 1
 386 698 l 1
 507 698 l 1
 584 318 l 1
 478 318 l 1
EndSplineSet
EndChar
StartChar: underscore
Encoding: 95 95 64
Width: 556
VWidth: 1494
Flags: W
HStem: -149 74<-16 524>
Fore
-32 -149 m 1
 -16 -75 l 1
 540 -75 l 1
 524 -149 l 1
 -32 -149 l 1
EndSplineSet
EndChar
StartChar: grave
Encoding: 96 96 65
Width: 322
VWidth: 1494
Flags: W
HStem: 577 157<307 329 190 394 190 190>
Fore
394 577 m 1
 307 577 l 1
 190 734 l 1
 329 732 l 1
 394 577 l 1
EndSplineSet
EndChar
StartChar: a
Encoding: 97 97 66
Width: 605
VWidth: 1494
Flags: W
HStem: -9 88<233.919 378.397> 438 90<302.293 445.035>
VStem: 100 94<122.93 308.459>
Fore
377 438 m 0
 267 438 194 313 194 208 c 0
 194 149 215 79 301 79 c 0
 393 79 455 161 479 233 c 2
 490 286 l 1
 490 290 491 296 491 303 c 0
 491 346 477 438 377 438 c 0
100 192 m 0
 100 345 218 528 396 528 c 0
 459 528 504 496 530 466 c 1
 542 522 l 1
 636 522 l 1
 551 123 l 2
 545 95 542 75 542 57 c 0
 542 41 544 27 549 9 c 1
 456 -21 l 1
 446 14 444 26 444 36 c 2
 444 43 l 1
 422 26 373 -9 282 -9 c 0
 143 -9 100 96 100 192 c 0
EndSplineSet
Substitution2: "Single Substitution lookup 22 subtable" uni0E38
Substitution2: "Single Substitution lookup 22 subtable" uni0E38
EndChar
StartChar: b
Encoding: 98 98 67
Width: 602
VWidth: 1494
Flags: W
HStem: -6 90<273.767 418.041> 441 88<343.822 485.949>
VStem: 527 94<213.057 399.299>
Fore
621 330 m 0
 621 177 503 -6 325 -6 c 0
 267 -6 221 13 187 52 c 1
 181 39 175 24 146 -12 c 1
 67 18 l 1
 93 56 102 79 113 132 c 2
 240 731 l 1
 333 731 l 1
 277 468 l 1
 317 498 374 529 438 529 c 0
 574 529 621 429 621 330 c 0
344 84 m 0
 461 84 527 217 527 315 c 0
 527 374 505 441 420 441 c 0
 304 441 249 307 241 281 c 2
 230 230 l 2
 229 223 229 217 229 210 c 0
 229 145 261 84 344 84 c 0
EndSplineSet
Substitution2: "Single Substitution lookup 22 subtable" uni0E39
Substitution2: "Single Substitution lookup 22 subtable" uni0E39
EndChar
StartChar: c
Encoding: 99 99 68
Width: 487
VWidth: 1494
Flags: W
HStem: -12 90<229.592 380.02> 444 91<295.583 438.744>
VStem: 89 93<125.766 306.661>
Fore
365 444 m 0
 255 444 182 313 182 203 c 0
 182 106 249 78 300 78 c 0
 335 78 384 92 424 132 c 1
 469 63 l 1
 449 48 383 -12 279 -12 c 0
 196 -12 89 35 89 182 c 0
 89 363 220 535 386 535 c 0
 453 535 503 508 538 468 c 1
 478 378 l 1
 459 412 426 444 365 444 c 0
EndSplineSet
Substitution2: "Single Substitution lookup 22 subtable" uni0E3A
Substitution2: "Single Substitution lookup 22 subtable" uni0E3A
EndChar
StartChar: d
Encoding: 100 100 69
Width: 602
VWidth: 1494
Flags: W
HStem: -6 90<232.651 379.664> 441 88<300.814 441.846>
VStem: 99 93<126.018 310.543>
Fore
99 192 m 0
 99 343 210 529 395 529 c 0
 458 529 504 498 530 468 c 1
 586 731 l 1
 678 731 l 1
 551 132 l 2
 545 105 543 86 543 68 c 0
 543 52 545 37 550 18 c 1
 456 -12 l 1
 445 19 442 32 442 41 c 0
 442 45 443 48 443 51 c 1
 394 13 341 -6 282 -6 c 0
 154 -6 99 86 99 192 c 0
377 441 m 0
 259 441 192 310 192 210 c 0
 192 150 215 84 301 84 c 0
 391 84 455 161 477 230 c 2
 488 281 l 2
 489 288 489 295 489 302 c 0
 489 365 460 441 377 441 c 0
EndSplineSet
EndChar
StartChar: e
Encoding: 101 101 70
Width: 584
VWidth: 1494
Flags: W
HStem: -8 82<249.429 377.192> 218 88<219 503> 444 84<310.896 462.932>
VStem: 96 100<126.955 211.285 210 212.57> 503 90<306.059 320.523 313.291 402.246>
Fore
96 191 m 0
 96 343 220 528 412 528 c 0
 561 528 600 423 600 336 c 0
 600 313 597 292 593 274 c 0
 588 248 579 218 521 218 c 2
 197 218 l 1
 197 213 196 207 196 202 c 0
 196 120 254 74 319 74 c 0
 343 74 384 81 452 120 c 1
 493 49 l 1
 474 35 409 -8 301 -8 c 0
 172 -8 96 72 96 191 c 0
503 306 m 1
 505 316 506 326 506 335 c 0
 506 394 467 444 391 444 c 0
 357 444 267 432 219 306 c 1
 503 306 l 1
EndSplineSet
EndChar
StartChar: f
Encoding: 102 102 71
Width: 334
VWidth: 1494
Flags: MW
HStem: 445 77<144 204 311 403> 650 82<345.591 434.815>
Fore
234 589 m 2
 258 703 337 732 398 732 c 0
 423 732 461 727 492 718 c 1
 462 638 l 1
 436 646 415 650 396 650 c 0
 361 650 336 638 321 571 c 2
 311 522 l 1
 435 522 l 1
 403 445 l 1
 295 445 l 1
 205 22 l 2
 182 -85 121 -141 103 -163 c 1
 20 -138 l 1
 62 -100 98 -54 113 21 c 2
 204 445 l 1
 111 445 l 1
 144 522 l 1
 220 522 l 1
 234 589 l 2
EndSplineSet
EndChar
StartChar: g
Encoding: 103 103 72
Width: 602
VWidth: 1494
Flags: W
HStem: -208 85<181.719 335.936> -10 89<232.247 375.446> 439 90<300.363 445.561>
VStem: 98 91<124.266 304.88>
Fore
98 186 m 0
 98 335 206 529 393 529 c 0
 454 529 500 510 531 471 c 1
 534 482 539 491 546 500 c 2
 570 532 l 1
 654 502 l 1
 629 466 617 445 605 389 c 2
 529 30 l 2
 503 -93 406 -208 215 -208 c 0
 185 -208 156 -205 128 -199 c 1
 177 -117 l 1
 200 -121 222 -123 242 -123 c 0
 349 -123 415 -64 439 46 c 1
 391 9 338 -10 279 -10 c 0
 151 -10 98 80 98 186 c 0
374 439 m 0
 260 439 189 309 189 211 c 0
 189 150 212 79 298 79 c 0
 390 79 453 163 475 232 c 2
 480 255 l 2
 485 276 487 297 487 315 c 0
 487 390 450 439 374 439 c 0
EndSplineSet
EndChar
StartChar: h
Encoding: 104 104 73
Width: 602
VWidth: 1494
Flags: W
HStem: -18 21<88 183.218 443.5 507.645> 447 81<334.816 467.601>
VStem: 437 92<25.6781 84.1912> 496 92<312.643 329 329 343.109 343.109 344.546 343.828 418.42>
Fore
535 100 m 2xd0
 531 80 529 66 529 54 c 0
 529 39 532 27 541 13 c 1
 447 -18 l 1
 440 4 437 23 437 43 c 0xe0
 437 60 439 78 444 100 c 2
 493 329 l 2
 495 340 496 351 496 360 c 0
 496 428 438 447 406 447 c 0
 332 447 259 378 241 294 c 2
 179 0 l 1
 88 0 l 1
 243 731 l 1
 336 731 l 1
 282 474 l 1
 324 506 373 528 426 528 c 0
 530 528 588 458 588 371 c 0
 588 357 587 343 584 329 c 2
 535 100 l 2xd0
EndSplineSet
EndChar
StartChar: i
Encoding: 105 105 74
Width: 289
VWidth: 1494
Flags: W
HStem: 0 21G<100 194.253> 502 20G<206.747 301> 590 123<244.284 321.041>
VStem: 218 128<615.113 686.911>
Fore
218 638 m 0
 218 679 258 713 297 713 c 0
 328 713 346 691 346 664 c 0
 346 622 305 590 270 590 c 256
 241 590 218 609 218 638 c 0
100 0 m 1
 211 522 l 1
 301 522 l 1
 190 0 l 1
 100 0 l 1
EndSplineSet
EndChar
StartChar: j
Encoding: 106 106 75
Width: 289
VWidth: 1494
Flags: W
HStem: -212 79<-86.7596 49.4631> 502 20G<206.733 301> 592 123<242.603 320.125>
VStem: 217 129<617.492 689.949>
Fore
217 640 m 0
 217 674 249 715 294 715 c 0
 324 715 346 696 346 667 c 0
 346 623 303 592 268 592 c 256
 240 592 217 612 217 640 c 0
-103 -133 m 1
 64 -123 79 -101 99 -3 c 2
 211 522 l 1
 301 522 l 1
 191 3 l 2
 162 -132 118 -193 -82 -212 c 1
 -103 -133 l 1
EndSplineSet
EndChar
StartChar: k
Encoding: 107 107 76
Width: 505
VWidth: 1494
Flags: W
HStem: -16 21<78 174.215 392 481.759> 514 20G<399.5 547.667>
Fore
419 -16 m 1
 365 52 296 139 260 188 c 2
 221 242 l 1
 170 0 l 1
 78 0 l 1
 233 731 l 1
 325 731 l 1
 245 353 l 1
 258 362 276 375 298 392 c 0
 308 400 298 392 501 534 c 1
 578 501 l 1
 339 332 l 2
 315 315 299 304 291 299 c 1
 510 13 l 1
 419 -16 l 1
EndSplineSet
EndChar
StartChar: l
Encoding: 108 108 77
Width: 291
VWidth: 1494
Flags: MW
HStem: 0 21G<100 195.248>
Fore
100 0 m 1
 254 723 l 1
 300 758 l 1
 352 758 l 1
 191 0 l 1
 100 0 l 1
EndSplineSet
EndChar
StartChar: m
Encoding: 109 109 78
Width: 884
VWidth: 1494
Flags: W
HStem: 0 21G<87 182.267 399 494.267 729 790.875> 444 84<323.257 448.05 634.186 765.601>
VStem: 724 95<15.2308 90.2465> 781 88<318.429 323 335 339.218 339.218 348.287 343.752 425.255>
Fore
384 444 m 0xd0
 294 444 254 359 242 300 c 2
 178 0 l 1
 87 0 l 1
 170 389 l 2
 176 416 178 435 178 452 c 0
 178 469 176 484 171 502 c 1
 264 532 l 1
 270 510 274 498 274 474 c 1
 317 510 364 528 415 528 c 0
 507 528 542 472 552 450 c 1
 597 500 663 528 723 528 c 0
 830 528 875 460 875 377 c 0
 875 360 873 341 869 323 c 2xd0
 822 103 l 2
 821 96 819 73 819 52 c 0
 819 35 820 19 825 16 c 1
 734 -16 l 1
 729 -1 l 2
 727 3 724 15 724 36 c 0xe0
 724 52 726 74 732 103 c 2
 781 335 l 2
 783 346 785 358 785 369 c 0
 785 409 766 444 705 444 c 0
 623 444 569 371 554 300 c 2
 490 0 l 1
 399 0 l 1
 470 335 l 2
 472 345 473 354 473 363 c 0
 473 410 443 444 384 444 c 0xd0
EndSplineSet
EndChar
StartChar: n
Encoding: 110 110 79
Width: 587
VWidth: 1494
Flags: MW
HStem: 0 21G<87 183.238 429 493.935> 442 87<329.009 459.251>
VStem: 424 94<19.8274 81.3418> 484 91<318.55 333 333 348.421 348.421 349.023 348.722 418.934>
Fore
393 442 m 0
 308 442 257 367 243 302 c 2
 179 0 l 1
 87 0 l 1
 170 389 l 2
 176 416 178 435 178 452 c 0
 178 469 176 484 171 502 c 1
 264 532 l 1
 270 514 274 502 274 484 c 0
 274 480 273 476 273 472 c 1
 315 506 367 529 421 529 c 0
 543 529 575 452 575 382 c 0
 575 365 573 348 570 333 c 2
 520 100 l 1
 520 97 518 83 518 67 c 0
 518 49 520 27 528 13 c 1
 432 -18 l 1
 426 1 424 19 424 37 c 0
 424 58 427 78 431 100 c 2
 481 335 l 2
 483 345 484 354 484 363 c 0
 484 412 452 442 393 442 c 0
EndSplineSet
EndChar
StartChar: o
Encoding: 111 111 80
Width: 574
VWidth: 1494
Flags: W
HStem: -6 82<236.652 368.567> 444 82<306.915 440.895>
VStem: 99 94<122.363 307.069> 483 96<213.258 395.701>
Fore
99 188 m 0
 99 341 210 526 396 526 c 256
 525 526 579 439 579 334 c 0
 579 174 459 -6 283 -6 c 0
 152 -6 99 83 99 188 c 0
378 444 m 0
 278 444 193 324 193 207 c 0
 193 132 231 76 300 76 c 0
 395 76 483 193 483 308 c 0
 483 375 455 444 378 444 c 0
EndSplineSet
EndChar
StartChar: p
Encoding: 112 112 81
Width: 602
VWidth: 1494
Flags: W
HStem: -221 21G<53.6129 118> -9 88<273.101 416.203> 441 88<340.529 483.023>
VStem: 167 95<449.283 502> 525 94<211.412 398.307>
Fore
341 79 m 0
 451 79 525 206 525 310 c 0
 525 370 504 441 418 441 c 0
 324 441 263 356 240 286 c 2
 229 233 l 2
 228 226 228 219 228 212 c 0
 228 149 258 79 341 79 c 0
619 332 m 0
 619 175 502 -9 322 -9 c 0
 263 -9 217 9 186 45 c 1
 154 -103 l 2
 146 -139 134 -181 102 -221 c 1
 27 -190 l 1
 31 -186 56 -138 63 -103 c 2
 168 389 l 2
 173 414 175 432 175 447 c 0
 175 467 172 482 167 502 c 1
 262 532 l 1
 268 514 275 495 275 469 c 1
 323 509 377 529 436 529 c 0
 564 529 619 438 619 332 c 0
EndSplineSet
EndChar
StartChar: q
Encoding: 113 113 82
Width: 602
VWidth: 1494
Flags: W
HStem: -221 21G<404 468.935> -9 88<231.512 372.231> 441 88<298.722 442.03>
VStem: 95 92<124.962 309.34> 398 94<-183.759 -118.344>
Fore
95 187 m 0
 95 349 214 529 392 529 c 0
 453 529 498 510 529 471 c 1
 534 484 537 491 567 532 c 1
 651 502 l 1
 626 466 614 445 602 389 c 2
 497 -103 l 2
 495 -114 492 -129 492 -144 c 0
 492 -160 495 -177 503 -190 c 1
 407 -221 l 1
 401 -201 398 -183 398 -165 c 0
 398 -144 401 -124 406 -103 c 2
 438 45 l 1
 391 9 337 -9 278 -9 c 0
 150 -9 95 80 95 187 c 0
374 441 m 0
 255 441 187 305 187 208 c 0
 187 141 218 79 297 79 c 0
 384 79 451 160 475 233 c 2
 485 284 l 2
 486 291 486 299 486 307 c 0
 486 371 458 441 374 441 c 0
EndSplineSet
EndChar
StartChar: r
Encoding: 114 114 83
Width: 396
VWidth: 1494
Flags: MW
HStem: 0 21G<91 188.236> 442 94<333.168 445.701>
Fore
385 442 m 0
 321 442 264 377 245 288 c 2
 184 0 l 1
 91 0 l 1
 174 389 l 2
 180 417 183 437 183 455 c 0
 183 470 181 485 176 502 c 1
 268 532 l 1
 273 519 276 512 276 487 c 0
 276 475 l 1
 322 517 370 536 419 536 c 0
 453 536 486 524 521 504 c 1
 445 419 l 1
 425 434 405 442 385 442 c 0
EndSplineSet
EndChar
StartChar: s
Encoding: 115 115 84
Width: 503
VWidth: 1494
Flags: W
HStem: -9 81<185.46 367.696> 450 84<278.786 412.18>
VStem: 151 96<342 421.376> 402 95<104.242 184.658>
Fore
151 357 m 0
 151 433 235 534 374 534 c 0
 432 534 503 506 538 478 c 1
 481 401 l 1
 423 445 382 450 355 450 c 0
 296 450 247 421 247 377 c 0
 247 295 497 308 497 172 c 0
 497 100 435 -9 251 -9 c 0
 201 -9 138 -7 57 70 c 1
 137 135 l 1
 170 97 209 72 266 72 c 0
 326 72 402 88 402 150 c 0
 402 182 372 194 287 227 c 0
 196 260 151 303 151 357 c 0
EndSplineSet
EndChar
StartChar: t
Encoding: 116 116 85
Width: 352
VWidth: 1494
Flags: W
HStem: -12 82<223.287 271.243> 445 77<142 201 308 389 105 428 142 142>
VStem: 128 93<71.8643 118.834> 242 99<538.112 641>
Fore
255 70 m 0
 269 70 291 74 324 87 c 1
 336 4 l 1
 336 4 245 -12 236 -12 c 0
 152 -12 128 23 128 75 c 0
 128 96 132 120 137 145 c 2
 201 445 l 1
 105 445 l 1
 142 522 l 1
 217 522 l 1
 242 641 l 1
 296 676 l 1
 341 676 l 1
 308 522 l 1
 428 522 l 1
 389 445 l 1
 292 445 l 1
 223 124 l 2
 221 116 221 108 221 102 c 0
 221 81 230 70 255 70 c 0
EndSplineSet
EndChar
StartChar: u
Encoding: 117 117 86
Width: 597
VWidth: 1494
Flags: W
HStem: -12 81<243.408 381.418> 502 20G<194.74 290 528.765 624>
VStem: 123 92<96.099 169.267 167.977 170.557 170.557 198.528>
Fore
539 123 m 2
 534 98 532 80 532 64 c 0
 532 45 535 29 540 9 c 1
 449 -21 l 1
 443 -5 437 12 437 35 c 2
 437 40 l 1
 389 1 332 -12 283 -12 c 0
 155 -12 123 74 123 142 c 0
 123 157 124 172 127 184 c 2
 199 522 l 1
 290 522 l 1
 218 182 l 2
 216 172 215 163 215 154 c 0
 215 102 252 69 311 69 c 0
 392 69 453 148 468 215 c 2
 533 522 l 1
 624 522 l 1
 539 123 l 2
EndSplineSet
EndChar
StartChar: v
Encoding: 118 118 87
Width: 529
VWidth: 1494
Flags: W
HStem: -14 21G<251 278.5> 517 20G<157.931 223.868 521.98 583.375>
VStem: 130 483<508 508 508 508>
Fore
265 -14 m 0
 237 -14 213 3 213 19 c 0
 213 24 214 26 221 40 c 1
 130 508 l 1
 220 537 l 1
 296 144 l 1
 534 540 l 1
 613 508 l 1
 351 84 l 2
 348 80 304 9 303 6 c 0
 300 0 292 -14 265 -14 c 0
EndSplineSet
EndChar
StartChar: w
Encoding: 119 119 88
Width: 798
VWidth: 1494
Flags: W
HStem: -19 21G<218 244 542 568> 520 20G<148.852 218.957 490 511.5 799.592 861.333>
Fore
177 14 m 0
 177 19 178 22 186 37 c 1
 125 513 l 1
 217 540 l 1
 258 121 l 1
 464 520 l 1
 468 534 481 539 499 539 c 0
 524 539 555 525 555 503 c 0
 555 501 554 500 554 498 c 256
 554 497 552 492 547 483 c 1
 593 123 l 1
 810 540 l 1
 887 510 l 1
 624 37 l 1
 625 27 625 22 624 20 c 1
 619 -4 580 -19 556 -19 c 0
 528 -19 524 -5 523 1 c 2
 476 390 l 1
 271 1 l 2
 268 -5 258 -19 230 -19 c 0
 206 -19 177 -6 177 14 c 0
EndSplineSet
EndChar
StartChar: x
Encoding: 120 120 89
Width: 536
VWidth: 1494
Flags: W
HStem: -15 21G<76.6154 121.904 418.365 461.852> 524 20G<183.898 229.968 529.553 575.122>
Fore
613 495 m 1
 378 260 l 1
 516 39 l 1
 430 -15 l 1
 309 193 l 1
 102 -15 l 1
 36 37 l 1
 267 260 l 1
 133 495 l 1
 219 544 l 1
 338 327 l 1
 549 544 l 1
 613 495 l 1
EndSplineSet
EndChar
StartChar: y
Encoding: 121 121 90
Width: 559
VWidth: 1494
Flags: W
HStem: -226 21G<50.9231 108.615> 523 20G<180.947 236.239 547.88 598.974>
Fore
42 -148 m 1
 165 -105 177 -98 244 30 c 1
 135 505 l 1
 232 543 l 1
 317 142 l 1
 560 543 l 1
 636 504 l 1
 272 -87 l 2
 256 -111 219 -166 125 -200 c 2
 54 -226 l 1
 42 -148 l 1
EndSplineSet
EndChar
StartChar: z
Encoding: 122 122 91
Width: 517
VWidth: 1494
Flags: W
HStem: 0 82<205 475> 448 83<153 419>
Fore
73 -3 m 0
 55 -3 44 5 44 28 c 0
 44 47 51 69 60 74 c 1
 108 90 108 93 114 100 c 2
 419 448 l 1
 135 448 l 1
 153 531 l 1
 530 531 l 1
 537 533 546 534 553 534 c 0
 565 534 581 529 581 503 c 0
 581 494 577 460 565 458 c 1
 550 452 l 2
 522 442 517 437 512 431 c 2
 205 82 l 1
 492 82 l 1
 475 0 l 1
 96 0 l 1
 89 -2 80 -3 73 -3 c 0
EndSplineSet
EndChar
StartChar: braceleft
Encoding: 123 123 92
Width: 306
VWidth: 1494
Flags: W
HStem: -154 52<153.02 211> 697 52<338.223 381>
VStem: 132 86<215.484 224 224 231 231 240.046 235.523 267.312>
Fore
196 297 m 1
 207 284 218 261 218 238 c 0
 218 233 218 229 217 224 c 2
 154 -72 l 2
 153 -75 153 -78 153 -80 c 0
 153 -101 180 -97 211 -102 c 1
 244 -154 l 1
 134 -154 l 2
 85 -154 65 -117 65 -85 c 0
 65 -80 65 -75 66 -70 c 2
 130 232 l 2
 131 238 132 244 132 248 c 0
 132 264 124 270 104 275 c 1
 117 320 l 1
 145 329 155 348 159 365 c 2
 222 665 l 2
 230 699 269 749 326 749 c 2
 436 749 l 1
 381 697 l 1
 344 693 318 700 311 667 c 2
 248 371 l 2
 241 341 212 311 196 297 c 1
EndSplineSet
EndChar
StartChar: bar
Encoding: 124 124 93
Width: 276
VWidth: 1494
Flags: MW
HStem: -13 21G<91 183.265> 708 20G<244.735 337>
Fore
91 -13 m 1
 249 728 l 1
 337 728 l 1
 179 -13 l 1
 91 -13 l 1
EndSplineSet
EndChar
StartChar: braceright
Encoding: 125 125 94
Width: 309
VWidth: 1494
Flags: W
HStem: -154 54<63 109> 697 52<224 284.98>
VStem: 219 87<329.494 367.789>
Fore
307 365 m 2
 306 361 306 357 306 353 c 0
 306 340 312 327 331 320 c 1
 321 275 l 1
 296 267 285 262 278 232 c 2
 214 -70 l 2
 207 -103 169 -154 109 -154 c 2
 0 -154 l 1
 63 -100 l 1
 100 -96 121 -99 127 -72 c 2
 190 224 l 2
 194 246 213 277 239 297 c 1
 230 310 219 332 219 356 c 0
 219 361 220 366 221 371 c 2
 284 667 l 2
 285 670 285 672 285 674 c 0
 285 696 258 692 224 697 c 1
 192 749 l 1
 301 749 l 2
 351 749 372 713 372 681 c 0
 372 675 371 670 370 665 c 2
 307 365 l 2
EndSplineSet
EndChar
StartChar: asciitilde
Encoding: 126 126 95
Width: 659
VWidth: 1494
Flags: W
HStem: 167 107<435.915 517.112> 244 108<208.482 340.346>
Fore
506 274 m 0x80
 524 274 560 284 614 345 c 1
 659 259 l 1
 582 176 505 167 477 167 c 0x80
 393 167 344 244 271 244 c 0
 229 244 195 220 152 173 c 1
 124 268 l 1
 147 288 209 352 293 352 c 0x40
 375 352 435 274 506 274 c 0x80
EndSplineSet
EndChar
StartChar: uni0E33.alt1
Encoding: 65539 -1 96
Width: 556
VWidth: 1494
Flags: W
HStem: 0 21<380 485.267> 517 91<280.609 430.108> 734 69<-210.15 -125.877> 912 70<-194.463 -111.149>
VStem: -287 72<807.215 891.861> -106 73<820.589 896.978> 105 98<418.815 504.969>
Back
-190 712 m 0
 -230.667 712 -258.667 724.833 -274 750.5 c 128
 -289.333 776.167 -293.667 804.5 -287 835.5 c 128
 -280.333 866.5 -264 895 -238 921 c 128
 -212 947 -178.667 960 -138 960 c 0
 -110.667 960 -89 953.667 -73 941 c 128
 -57 928.333 -46.5 913 -41.5 895 c 128
 -36.5 877 -36.3333 857.167 -41 835.5 c 128
 -45.6667 813.833 -54.5 794 -67.5 776 c 128
 -80.5 758 -97.3333 742.833 -118 730.5 c 128
 -138.667 718.167 -162.667 712 -190 712 c 0
-176 780 m 256
 -158 780 -143.333 785.833 -132 797.5 c 128
 -120.667 809.167 -113.5 821.667 -110.5 835 c 128
 -107.5 848.333 -109.333 860.667 -116 872 c 128
 -122.667 883.333 -134.667 889 -152 889 c 256
 -170 889 -184.833 883.333 -196.5 872 c 128
 -208.167 860.667 -215.5 848.333 -218.5 835 c 128
 -221.5 821.667 -219.667 809.167 -213 797.5 c 128
 -206.333 785.833 -194 780 -176 780 c 256
481 0 m 1
 380 0 l 1
 465 407 l 2
 465.667 415 469 424.167 475 434.5 c 128
 481 444.833 486.667 451.333 492 454 c 1
 480 469.333 464.5 484 445.5 498 c 128
 426.5 512 399 518.333 363 517 c 0
 337 516.333 314.833 512 296.5 504 c 128
 278.167 496 262.833 486 250.5 474 c 128
 238.167 462 228 448.833 220 434.5 c 128
 212 420.167 206 406 202 392 c 1
 105 392 l 1
 125 455.333 158.333 506.667 205 546 c 128
 251.667 585.333 311.333 606 384 608 c 0
 409.333 609.333 431.167 607.667 449.5 603 c 128
 467.833 598.333 484 592.333 498 585 c 128
 512 577.667 524 568.833 534 558.5 c 128
 544 548.167 553 538 561 528 c 1
 565.667 530 572.167 529.5 580.5 526.5 c 128
 588.833 523.5 597 516 605 504 c 0
 617 484.667 620 470.833 614 462.5 c 128
 608 454.167 598.667 443 586 429 c 0
 578.667 422.333 573.333 415.167 570 407.5 c 128
 566.667 399.833 563.667 389 561 375 c 2
 481 0 l 1
EndSplineSet
Refer: 284 3661 N 1 0 0 1 -178 0 2
Refer: 261 3634 N 1 0 0 1 0 0 2
EndChar
StartChar: quotedbl
Encoding: 34 34 97
Width: 429
VWidth: 1494
Flags: MW
Fore
423 422 m 1
 349 422 l 1
 391 700 l 1
 503 700 l 1
 423 422 l 1
253 422 m 1
 178 422 l 1
 221 700 l 1
 333 700 l 1
 253 422 l 1
EndSplineSet
EndChar
StartChar: exclam
Encoding: 33 33 98
Width: 384
VWidth: 1494
Flags: W
HStem: -10 131<164.417 242.77> 692 20G<279.39 401>
VStem: 136 134<17.5079 92.7096> 183 83<172.744 230.581>
Fore
266 158 m 1xd0
 183 158 l 1
 283 712 l 1
 401 712 l 1
 266 158 l 1xd0
136 40 m 0xe0
 136 84 177 121 217 121 c 256
 250 121 270 97 270 68 c 0
 270 29 232 -10 189 -10 c 256
 156 -10 136 13 136 40 c 0xe0
EndSplineSet
EndChar
StartChar: uni0E4E.alt1
Encoding: 65540 -1 99
Width: 0
VWidth: 1494
Flags: W
HStem: 1014 37<-55.2993 40.2669 35.6772 44.8565 44.8565 55>
VStem: -310 108<723.466 816.082> -175 92<910.447 987.73>
Back
96 1007 m 1
 52.6667 1016.33 13.8333 1016.83 -20.5 1008.5 c 128
 -54.8333 1000.17 -75.1667 982.5 -81.5 955.5 c 128
 -87.8333 928.5 -74 907 -40 891 c 1
 -81 842 l 1
 -144.333 838.667 -184 822.667 -200 794 c 1
 -206 768.667 -194.833 754 -166.5 750 c 128
 -138.167 746 -116 748 -100 756 c 1
 -152 695 l 1
 -196 676.333 -234.667 674.167 -268 688.5 c 128
 -301.333 702.833 -314.667 731 -308 773 c 0
 -289.333 837.667 -236.333 875 -149 885 c 1
 -174.333 907 -181.167 933.667 -169.5 965 c 128
 -157.833 996.333 -131.833 1020 -91.5 1036 c 128
 -51.1667 1052 -2.66667 1055 54 1045 c 1
 96 1007 l 1
EndSplineSet
Refer: 285 3662 N 1 0 0 1 -104 0 2
EndChar
StartChar: exclamdown
Encoding: 161 161 100
Width: 376
VWidth: 1494
Flags: MW
HStem: 383 131<248.664 325.76>
VStem: 220 134<411.203 485.797> 222 83<287.301 345>
Fore
206 -208 m 1
 88 -208 l 1
 222 345 l 1
 305 345 l 1
 206 -208 l 1
220 435 m 0
 220 478 262 514 300 514 c 256
 333 514 354 491 354 462 c 0
 354 417 310 383 272 383 c 256
 239 383 220 406 220 435 c 0
EndSplineSet
EndChar
StartChar: cent
Encoding: 162 162 101
Width: 674
VWidth: 1494
Flags: W
VStem: 125 108<172.656 394.805>
Fore
480 718 m 1
 495 789 l 1
 578 789 l 1
 563 720 l 1
 679 716 728 657 739 644 c 1
 675 552 l 1
 638 592 585 606 541 616 c 1
 429 90 l 1
 473 92 540 110 593 152 c 1
 642 78 l 1
 611 55 525 -10 408 -10 c 1
 394 -75 l 1
 311 -75 l 1
 326 -7 l 1
 159 25 125 146 125 243 c 0
 125 479 287 708 480 718 c 1
457 611 m 1
 289 578 233 373 233 271 c 0
 233 122 341 100 348 97 c 1
 457 611 l 1
EndSplineSet
EndChar
StartChar: sterling
Encoding: 163 163 102
Width: 674
VWidth: 1494
Flags: W
HStem: 0 96<226 586> 317 81<159 242 345 484> 634 91<410.891 557.938>
VStem: 235 97<417.977 559.341> 242 103<210.125 315 398 410.651>
Fore
235 484 m 0xf0
 235 642 367 725 504 725 c 0
 588 725 655 693 689 653 c 1
 630 574 l 1
 588 625 530 634 497 634 c 0
 437 634 332 602 332 472 c 0xf0
 332 428 346 402 345 398 c 1
 530 398 l 1
 484 317 l 1
 345 317 l 1
 345 264 337 166 226 96 c 1
 607 96 l 1
 586 0 l 1
 84 0 l 1
 101 79 l 1
 237 172 239 257 242 315 c 1xe8
 118 315 l 1
 159 396 l 1
 247 396 l 1
 240 422 235 452 235 484 c 0xf0
EndSplineSet
EndChar
StartChar: currency
Encoding: 164 164 103
Width: 726
VWidth: 1494
Flags: W
HStem: 146 95<355.307 482.427> 448 92<390.101 518.105>
VStem: 230 101<275.395 387.638> 543 101<300.278 422.757>
Fore
230 310 m 0
 230 368 262 421 290 444 c 1
 228 519 l 1
 310 586 l 1
 370 510 l 1
 397 526 436 540 476 540 c 0
 498 540 547 536 577 513 c 1
 671 589 l 1
 722 522 l 1
 628 444 l 1
 636 414 644 405 644 384 c 0
 644 311 594 256 582 241 c 1
 640 164 l 1
 562 102 l 1
 500 176 l 1
 447 151 445 146 393 146 c 0
 354 146 323 161 303 178 c 1
 208 100 l 1
 156 166 l 1
 249 244 l 1
 236 264 230 287 230 310 c 0
458 448 m 0
 385 448 331 380 331 322 c 0
 331 272 367 241 414 241 c 0
 483 241 543 296 543 364 c 0
 543 412 512 448 458 448 c 0
EndSplineSet
EndChar
StartChar: yen
Encoding: 165 165 104
Width: 618
VWidth: 1494
Flags: W
HStem: 0 21G<260 361.129> 155 62<146 293 402 544> 283 61<173 319 429 571>
Fore
741 697 m 1
 429 344 l 1
 584 344 l 1
 571 283 l 1
 416 283 l 1
 402 217 l 1
 557 217 l 1
 544 155 l 1
 389 155 l 1
 357 0 l 1
 260 0 l 1
 293 155 l 1
 133 155 l 1
 146 217 l 1
 306 217 l 1
 319 283 l 1
 160 283 l 1
 173 344 l 1
 333 344 l 1
 170 697 l 1
 252 743 l 1
 399 428 l 1
 680 743 l 1
 741 697 l 1
EndSplineSet
EndChar
StartChar: brokenbar
Encoding: 166 166 105
Width: 269
VWidth: 1494
Flags: MW
HStem: 705 20G<240.781 333>
Fore
256 360 m 1
 168 360 l 1
 245 725 l 1
 333 725 l 1
 256 360 l 1
129 178 m 1
 217 178 l 1
 139 -187 l 1
 51 -187 l 1
 129 178 l 1
EndSplineSet
EndChar
StartChar: section
Encoding: 167 167 106
Width: 683
VWidth: 1494
Flags: W
HStem: -129 97<235.037 395.903> 697 104<451.618 616.845>
VStem: 163 113<340.129 433.541> 267 134<562.388 649.436> 445 115<13.2368 107.127> 552 116<252.37 342.832>
Fore
267 597 m 0xd0
 267 696 368 801 521 801 c 0
 629 801 689 772 732 712 c 1
 644 643 l 1
 627 682 582 697 522 697 c 0
 456 697 401 647 401 598 c 0
 401 565 427 551 445 538 c 0xd8
 578 449 668 423 668 333 c 0xc4
 668 269 629 208 581 174 c 0
 542 147 547 150 541 147 c 1
 540 143 560 115 560 74 c 0
 560 -14 474 -129 300 -129 c 0
 213 -129 166 -109 108 -42 c 1
 199 27 l 1
 218 -14 273 -32 320 -32 c 0
 410 -32 445 33 445 67 c 0
 445 89 431 103 414 114 c 2
 221 241 l 2
 186 264 163 297 163 347 c 0xe8
 163 393 180 477 283 537 c 1
 272 556 267 576 267 597 c 0xd0
482 218 m 1
 532 247 552 268 552 302 c 0
 552 328 535 341 527 347 c 2
 527 347 344 463 342 463 c 1
 321 453 276 431 276 383 c 0xe4
 276 343 316 327 379 286 c 2
 482 218 l 1
EndSplineSet
EndChar
StartChar: dieresis
Encoding: 168 168 107
Width: 328
VWidth: 1494
Flags: W
HStem: 595 133<165.757 241.243 366.768 444.844>
VStem: 136 135<624.188 698.871> 338 136<623.613 699.321>
Fore
136 646 m 0
 136 693 180 728 218 728 c 256
 251 728 271 704 271 675 c 0
 271 631 227 595 189 595 c 0
 155 595 136 618 136 646 c 0
338 647 m 0
 338 694 383 728 421 728 c 0
 455 728 474 701 474 673 c 0
 474 634 433 595 392 595 c 0
 358 595 338 618 338 647 c 0
EndSplineSet
EndChar
StartChar: copyright
Encoding: 169 169 108
Width: 799
VWidth: 1494
Flags: W
HStem: -22 68<311.644 515.451> 114 68<380.947 532.055> 507 70<438.1 562.84> 653 69<430.68 641.551>
VStem: 109 69<178.755 399.269> 271 73<220.537 393.001> 772 68<306.388 517.753>
Fore
109 273 m 0
 109 502 330 722 554 722 c 256
 719 722 840 597 840 428 c 0
 840 208 631 -22 396 -22 c 0
 219 -22 109 111 109 273 c 0
540 653 m 0
 360 653 178 478 178 285 c 0
 178 147 276 46 411 46 c 0
 585 46 772 220 772 414 c 0
 772 546 682 653 540 653 c 0
512 507 m 0
 396 507 344 379 344 294 c 0
 344 228 377 182 452 182 c 0
 510 182 542 209 557 221 c 1
 592 170 l 1
 546 130 489 114 438 114 c 0
 365 114 271 148 271 275 c 0
 271 424 374 577 525 577 c 0
 574 577 620 564 652 528 c 1
 652 527 651 528 607 466 c 1
 575 502 529 507 512 507 c 0
EndSplineSet
EndChar
StartChar: ordfeminine
Encoding: 170 170 109
Width: 424
VWidth: 1494
Flags: W
HStem: 271 73<221.524 332.449> 564 74<259.383 370.82>
VStem: 128 74<363.297 502.55>
Fore
128 407 m 0
 128 512 211 638 335 638 c 0
 374 638 404 626 427 601 c 1
 435 638 l 1
 501 638 l 1
 437 341 l 1
 428 280 l 1
 360 280 l 1
 365 308 l 1
 333 283 297 271 257 271 c 0
 167 271 128 334 128 407 c 0
319 564 m 256
 250 564 202 488 202 428 c 0
 202 392 215 344 272 344 c 0
 341 344 391 420 391 483 c 0
 391 530 365 564 319 564 c 256
EndSplineSet
EndChar
StartChar: guillemotleft
Encoding: 171 171 110
Width: 597
VWidth: 1494
Flags: MW
Fore
109 266 m 1
 293 486 l 1
 415 486 l 1
 224 266 l 1
 322 45 l 1
 200 45 l 1
 109 266 l 1
329 266 m 1
 513 486 l 1
 635 486 l 1
 444 266 l 1
 542 45 l 1
 420 45 l 1
 329 266 l 1
EndSplineSet
EndChar
StartChar: logicalnot
Encoding: 172 172 111
Width: 684
VWidth: 1494
Flags: W
HStem: 327 89<130 622>
Fore
578 123 m 1
 622 327 l 1
 112 327 l 1
 130 416 l 1
 728 416 l 1
 666 123 l 1
 578 123 l 1
EndSplineSet
EndChar
StartChar: registered
Encoding: 174 174 112
Width: 804
VWidth: 1494
Flags: W
HStem: -22 68<311.644 515.451> 291 60<411 464> 505 62<443 461.285 461.285 571.557> 653 69<430.68 641.551>
VStem: 109 69<178.755 399.269> 590 61<392.413 485.399> 772 68<306.388 517.753>
Fore
109 273 m 0
 109 502 330 722 554 722 c 256
 719 722 840 597 840 428 c 0
 840 208 631 -22 396 -22 c 0
 219 -22 109 111 109 273 c 0
540 653 m 0
 360 653 178 478 178 285 c 0
 178 147 276 46 411 46 c 0
 585 46 772 220 772 414 c 0
 772 546 682 653 540 653 c 0
449 351 m 2
 567 351 590 412 590 449 c 0
 590 493 534 505 481 505 c 0
 449 505 444 504 443 504 c 1
 411 351 l 1
 449 351 l 2
369 539 m 0
 369 556 395 573 406 573 c 0
 414 573 418 571 424 567 c 1
 493 567 l 2
 558 567 651 546 651 463 c 0
 651 431 637 338 523 303 c 1
 599 138 l 1
 534 129 l 1
 464 291 l 1
 400 291 l 1
 367 136 l 1
 304 136 l 1
 382 502 l 1
 382 504 383 506 383 507 c 0
 383 522 369 526 369 539 c 0
EndSplineSet
EndChar
StartChar: macron
Encoding: 175 175 113
Width: 322
VWidth: 1494
Flags: W
HStem: 598 81<186 407 169 424 186 186>
Fore
169 598 m 1
 186 679 l 1
 424 679 l 1
 407 598 l 1
 169 598 l 1
EndSplineSet
EndChar
StartChar: degree
Encoding: 176 176 114
Width: 355
VWidth: 1494
Flags: W
HStem: 484 60<251.791 353.12> 688 59<271.211 374.252>
VStem: 177 62<555.626 655.869> 386 62<576.852 675.541>
Fore
177 587 m 0
 177 674 257 747 340 747 c 256
 405 747 448 703 448 643 c 0
 448 561 370 484 284 484 c 256
 219 484 177 528 177 587 c 0
327 688 m 256
 276 688 239 643 239 604 c 0
 239 570 261 544 297 544 c 256
 345 544 386 586 386 632 c 0
 386 666 360 688 327 688 c 256
EndSplineSet
EndChar
StartChar: plusminus
Encoding: 177 177 115
Width: 641
VWidth: 1494
Flags: W
HStem: 0 90<109 550> 326 96<199 341 458 601> 584 20G<397.824 496>
Fore
109 90 m 1
 569 90 l 1
 550 0 l 1
 90 0 l 1
 109 90 l 1
302 142 m 1
 341 326 l 1
 178 326 l 1
 199 422 l 1
 364 422 l 1
 402 604 l 1
 496 604 l 1
 458 422 l 1
 622 422 l 1
 601 326 l 1
 437 326 l 1
 398 142 l 1
 302 142 l 1
EndSplineSet
EndChar
StartChar: twosuperior
Encoding: 178 178 116
Width: 436
VWidth: 1494
Flags: W
HStem: 284 75<255 373> 534 21G<195 271> 646 73<298.037 399.05>
VStem: 408 75<547.69 635.487>
Fore
483 609 m 0
 483 494 339 430 255 359 c 1
 373 359 l 1
 402 398 l 1
 445 374 440 377 455 366 c 1
 401 284 l 1
 135 284 l 2
 125 284 121 287 121 294 c 0
 121 339 154 350 159 353 c 1
 196 391 l 2
 259 454 408 528 408 593 c 0
 408 614 397 646 351 646 c 0
 292 646 261 585 271 552 c 1
 196 534 l 1
 194 542 193 550 193 558 c 0
 193 651 287 719 368 719 c 0
 448 719 483 664 483 609 c 0
EndSplineSet
EndChar
StartChar: threesuperior
Encoding: 179 179 117
Width: 454
VWidth: 1494
Flags: W
HStem: 271 73<239.502 364.261> 634 75<286 391>
VStem: 417 75<397.417 502.379>
Fore
492 480 m 0
 492 374 397 271 286 271 c 0
 199 271 144 322 145 395 c 1
 220 416 l 1
 221 364 256 344 296 344 c 0
 368 344 417 405 417 460 c 0
 417 504 376 513 362 513 c 0
 336 513 311 481 296 481 c 0
 273 481 258 510 258 516 c 0
 258 519 262 526 268 531 c 2
 391 634 l 1
 286 634 l 1
 255 581 l 1
 200 614 l 1
 247 709 l 1
 508 709 l 2
 521 709 526 705 526 695 c 0
 526 680 505 650 499 645 c 0
 494 640 486 637 477 635 c 1
 409 574 l 1
 464 574 492 536 492 480 c 0
EndSplineSet
EndChar
StartChar: acute
Encoding: 180 180 118
Width: 381
VWidth: 1494
Flags: MW
Fore
373 732 m 1
 512 734 l 1
 329 577 l 1
 243 577 l 1
 373 732 l 1
EndSplineSet
EndChar
StartChar: mu
Encoding: 181 181 119
Width: 605
VWidth: 1494
Flags: W
HStem: -12 81<242.585 381.418>
VStem: 449 88<-11.1305 35.7732>
Fore
539 123 m 2
 533 95 530 75 530 57 c 0
 530 41 532 27 537 9 c 1
 449 -21 l 1
 440.168 2.55143 437.001 14.7763 437 40 c 1
 389 1 332 -12 283 -12 c 256
 237 -12 208 -1 182 15 c 1
 125 -254 l 1
 34 -254 l 1
 199 522 l 1
 290 522 l 1
 218 182 l 2
 216 172 215 163 215 154 c 0
 215 102 252 69 311 69 c 0
 392 69 453 148 468 215 c 2
 533 522 l 1
 624 522 l 1
 539 123 l 2
EndSplineSet
EndChar
StartChar: paragraph
Encoding: 182 182 120
Width: 745
VWidth: 1494
Flags: W
HStem: -211 21G<445 540.264> 638 94<535 625 717 792>
Fore
172 473 m 0
 172 592 269 732 433 732 c 2
 812 732 l 1
 792 638 l 1
 717 638 l 1
 536 -211 l 1
 445 -209 l 1
 625 638 l 1
 535 638 l 1
 355 -208 l 1
 265 -208 l 1
 375 312 l 1
 343 312 l 2
 272 312 172 361 172 473 c 0
EndSplineSet
EndChar
StartChar: periodcentered
Encoding: 183 183 121
Width: 343
VWidth: 1494
Flags: W
HStem: 257 193<203.664 293.022>
VStem: 148 198<309.849 394.198>
Fore
148 332 m 0
 148 394 208 450 268 450 c 0
 316 450 346 416 346 374 c 0
 346 310 287 257 227 257 c 0
 183 257 148 286 148 332 c 0
EndSplineSet
EndChar
StartChar: cedilla
Encoding: 184 184 122
Width: 322
VWidth: 1494
Flags: W
HStem: -219 58<22.3767 150.486>
VStem: 160 94<-150.632 -92.3774>
Fore
254 -103 m 0
 254 -150 195 -219 84 -219 c 0
 47 -219 19 -212 -4 -200 c 1
 36 -144 l 1
 45 -151 66 -161 98 -161 c 0
 135 -161 160 -140 160 -117 c 0
 160 -91 118 -84 89 -84 c 0
 83 -84 78 -85 72 -85 c 1
 150 6 l 1
 218 6 l 1
 165 -48 l 1
 173 -47 180 -46 187 -46 c 0
 234 -46 254 -75 254 -103 c 0
EndSplineSet
EndChar
StartChar: onesuperior
Encoding: 185 185 123
Width: 391
VWidth: 1494
Flags: W
HStem: 283 437
VStem: 213 205<620 685 620 620>
Fore
418 685 m 0
 418 680 416 662 398 649 c 1
 320 283 l 1
 245 283 l 1
 313 602 l 1
 242 561 l 1
 213 620 l 1
 346 699 l 2
 371 714 378 720 388 720 c 0
 400 720 418 705 418 685 c 0
EndSplineSet
EndChar
StartChar: ordmasculine
Encoding: 186 186 124
Width: 376
VWidth: 1494
Flags: W
HStem: 280 70<201.91 333.551> 567 70<238.891 369.868>
VStem: 100 78<374.063 502.155> 394 77<411.498 543.863>
Fore
100 415 m 0
 100 529 205 637 322 637 c 0
 411 637 471 584 471 500 c 0
 471 383 369 280 247 280 c 0
 153 280 100 338 100 415 c 0
309 567 m 0
 215 567 178 476 178 428 c 0
 178 365 234 350 262 350 c 0
 336 350 394 409 394 485 c 0
 394 529 368 567 309 567 c 0
EndSplineSet
EndChar
StartChar: guillemotright
Encoding: 187 187 125
Width: 597
VWidth: 1494
Flags: MW
Fore
412 45 m 1
 290 45 l 1
 482 266 l 1
 383 486 l 1
 505 486 l 1
 597 266 l 1
 412 45 l 1
192 45 m 1
 70 45 l 1
 262 266 l 1
 163 486 l 1
 285 486 l 1
 377 266 l 1
 192 45 l 1
EndSplineSet
EndChar
StartChar: onequarter
Encoding: 188 188 126
Width: 943
VWidth: 1494
Flags: W
HStem: -9 21G<200 297.248 729.33 798> 582 20G<278.366 308.737> 696 20G<383 394 770.807 870>
Fore
281 -9 m 1
 200 -9 l 1
 787 716 l 1
 870 716 l 1
 281 -9 l 1
418 685 m 0
 418 680 416 662 398 649 c 1
 320 283 l 1
 245 283 l 1
 313 602 l 1
 242 561 l 1
 213 620 l 1
 346 699 l 2
 371 714 378 720 388 720 c 0
 400 720 418 705 418 685 c 0
547 154 m 2
 542 149 537 139 537 129 c 0
 537 113 548 99 564 97 c 2
 746 97 l 1
 725 0 l 1
 798 0 l 1
 819 97 l 1
 892 97 l 1
 907 170 l 1
 834 170 l 1
 880 386 l 1
 891 400 893 396 893 401 c 0
 893 408 879 448 865 448 c 0
 856 448 850 446 843 439 c 2
 547 154 l 2
789 299 m 1
 761 170 l 1
 658 170 l 1
 789 299 l 1
EndSplineSet
LCarets2: 2 0 0 
Ligature2: "'frac' Diagonal Fractions in Latin lookup 0 subtable" one fraction four
Ligature2: "'frac' Diagonal Fractions in Latin lookup 0 subtable" one slash four
EndChar
StartChar: onehalf
Encoding: 189 189 127
Width: 923
VWidth: 1494
Flags: W
HStem: 0 75<660 778> 362 73<701.318 803.291> 582 20G<278.366 308.737> 700 20G<383 394 739.779 838>
VStem: 812 75<265.277 352.094>
Fore
887 326 m 0
 887 208 745 147 660 75 c 1
 778 75 l 1
 806 114 l 1
 850 90 845 93 859 82 c 1
 806 0 l 1
 540 0 l 2
 530 0 526 3 526 10 c 0
 526 57 560 67 564 69 c 1
 601 107 l 2
 659 166 812 243 812 311 c 0
 812 334 798 362 756 362 c 0
 711 362 661 319 676 268 c 1
 600 250 l 1
 599 257 598 264 598 272 c 0
 598 368 690 435 772 435 c 0
 852 435 887 381 887 326 c 0
418 685 m 0
 418 680 416 662 398 649 c 1
 320 283 l 1
 245 283 l 1
 313 602 l 1
 242 561 l 1
 213 620 l 1
 346 699 l 2
 371 714 378 720 388 720 c 0
 400 720 418 705 418 685 c 0
249 -9 m 1
 168 -9 l 1
 756 716 l 1
 838 716 l 1
 249 -9 l 1
EndSplineSet
LCarets2: 2 0 0 
Ligature2: "'frac' Diagonal Fractions in Latin lookup 0 subtable" one fraction two
Ligature2: "'frac' Diagonal Fractions in Latin lookup 0 subtable" one slash two
EndChar
StartChar: threequarters
Encoding: 190 190 128
Width: 938
VWidth: 1494
Flags: W
HStem: 0 21G<246 343.248 729.33 798> 271 73<239.502 364.261> 634 75<286 391>
VStem: 417 75<397.417 502.379>
Fore
547 154 m 2
 542 149 537 139 537 129 c 0
 537 113 548 99 564 97 c 2
 746 97 l 1
 725 0 l 1
 798 0 l 1
 819 97 l 1
 892 97 l 1
 907 170 l 1
 834 170 l 1
 880 386 l 1
 891 400 893 396 893 401 c 0
 893 408 879 448 865 448 c 0
 856 448 850 446 843 439 c 2
 547 154 l 2
789 299 m 1
 761 170 l 1
 658 170 l 1
 789 299 l 1
492 480 m 0
 492 374 397 271 286 271 c 0
 199 271 144 322 145 395 c 1
 220 416 l 1
 221 364 256 344 296 344 c 0
 368 344 417 405 417 460 c 0
 417 504 376 513 362 513 c 0
 336 513 311 481 296 481 c 0
 273 481 258 510 258 516 c 0
 258 519 262 526 268 531 c 2
 391 634 l 1
 286 634 l 1
 255 581 l 1
 200 614 l 1
 247 709 l 1
 508 709 l 2
 521 709 526 705 526 695 c 0
 526 680 505 650 499 645 c 0
 494 640 486 637 477 635 c 1
 409 574 l 1
 464 574 492 536 492 480 c 0
327 -9 m 1
 246 -9 l 1
 834 716 l 1
 916 716 l 1
 327 -9 l 1
EndSplineSet
LCarets2: 2 0 0 
Ligature2: "'frac' Diagonal Fractions in Latin lookup 0 subtable" three fraction four
Ligature2: "'frac' Diagonal Fractions in Latin lookup 0 subtable" three slash four
EndChar
StartChar: questiondown
Encoding: 191 191 129
Width: 596
VWidth: 1494
Flags: W
HStem: -212 84<217.918 357.919> 377 134<373.178 456.649>
VStem: 94 103<-108.352 4.32263> 347 139<406.594 483.782>
Fore
435 285 m 2
 400 120 197 58 197 -53 c 0
 197 -86 213 -128 278 -128 c 0
 361 -128 415 -64 430 -39 c 1
 489 -84 l 1
 449 -155 377 -212 261 -212 c 0
 140 -212 94 -145 94 -77 c 0
 94 79 302 157 330 286 c 2
 343 348 l 1
 448 348 l 1
 435 285 l 2
486 461 m 0
 486 416 448 377 401 377 c 256
 366 377 347 399 347 428 c 0
 347 470 378 511 430 511 c 256
 465 511 486 492 486 461 c 0
EndSplineSet
EndChar
StartChar: Aring
Encoding: 197 197 134
Width: 684
VWidth: 1494
Flags: W
HStem: -18 21<19 128.724 557.355 665> 185 93<292 508> 782 56<442.248 517.293> 927 56<451.79 527.12>
VStem: 381 58<841.594 914.154> 530 58<850.225 923.927>
Back
520 851 m 0
 535.333 851 549.167 856.167 561.5 866.5 c 128
 573.833 876.833 581.333 889 584 903 c 256
 587.333 917 585 929.167 577 939.5 c 128
 569 949.833 557.667 955 543 955 c 0
 529 955 515.667 949.833 503 939.5 c 128
 490.333 929.167 482.667 917 480 903 c 0
 478 889 480.667 876.833 488 866.5 c 128
 495.333 856.167 506 851 520 851 c 0
558 1021 m 256
 591.333 1021 617.333 1009.5 636 986.5 c 128
 654.667 963.5 660.333 935 653 901 c 0
 645 867.667 627.167 839.5 599.5 816.5 c 128
 571.833 793.5 541 782 507 782 c 256
 473 782 446.833 793.5 428.5 816.5 c 128
 410.167 839.5 405 867.667 413 901 c 0
 419.667 935 437 963.5 465 986.5 c 128
 493 1009.5 524 1021 558 1021 c 256
665 0 m 1
 561 -18 l 1
 525 185 l 1
 236 185 l 1
 117 -18 l 1
 19 0 l 1
 435 680 l 2
 439 686 446 694.667 456 706 c 128
 466 717.333 477 726 489 732 c 0
 495 735.333 501.5 736.5 508.5 735.5 c 128
 515.5 734.5 522.5 732.5 529.5 729.5 c 128
 536.5 726.5 542.5 723 547.5 719 c 128
 552.5 715 556 711.667 558 709 c 0
 564.667 699.667 564.5 690.5 557.5 681.5 c 128
 550.5 672.5 545.667 666 543 662 c 1
 665 0 l 1
460 564 m 1
 291 278 l 1
 508 278 l 1
 460 564 l 1
EndSplineSet
Refer: 34 65 N 1 0 0 1 10 0 2
Refer: 207 730 N 1 0 0 1 130 209 2
EndChar
StartChar: AE
Encoding: 198 198 135
Width: 970
VWidth: 1494
Flags: W
HStem: 1 101<651 924> 184 93<394 564> 320 100<717 963> 613 102<758 1054>
Fore
599 1 m 2
 561 1 532 33 541 75 c 2
 564 184 l 1
 320 184 l 1
 145 -19 l 1
 55 27 l 1
 595 655 l 2
 629 695 669 715 716 715 c 2
 1077 715 l 1
 1054 613 l 1
 758 613 l 1
 717 420 l 1
 983 420 l 1
 963 320 l 1
 697 320 l 1
 651 102 l 1
 946 102 l 1
 924 1 l 1
 599 1 l 2
650 590 m 1
 394 277 l 1
 584 277 l 1
 650 590 l 1
EndSplineSet
EndChar
StartChar: Eth
Encoding: 208 208 145
Width: 780
VWidth: 1494
Flags: W
HStem: 0 102<216 439.684> 324 75<85 163 279 411> 610 100<324 522.277>
VStem: 614 106<355.278 529.983>
Fore
720 466 m 0
 720 307 636 0 300 0 c 2
 94 0 l 1
 163 324 l 1
 69 324 l 1
 85 399 l 1
 179 399 l 1
 219 589 l 1
 220 591 220 594 220 596 c 0
 220 621 189 639 189 657 c 0
 189 672 233 724 261 724 c 0
 266.6 724 268.963 724.471 289 710 c 1
 451 710 l 2
 659 710 720 596 720 466 c 0
604 356 m 0
 610 386 614 414 614 438 c 0
 614 553 545 610 408 610 c 2
 324 610 l 1
 279 399 l 1
 427 399 l 1
 411 324 l 1
 263 324 l 1
 216 102 l 1
 334 102 l 2
 464 102 564 168 604 356 c 0
EndSplineSet
EndChar
StartChar: multiply
Encoding: 215 215 152
Width: 641
VWidth: 1494
Flags: W
Fore
511 12 m 1
 370 202 l 1
 146 10 l 1
 94 70 l 1
 318 260 l 1
 175 450 l 1
 252 510 l 1
 394 318 l 1
 612 507 l 1
 663 447 l 1
 442 260 l 1
 588 72 l 1
 511 12 l 1
EndSplineSet
EndChar
StartChar: Oslash
Encoding: 216 216 153
Width: 730
VWidth: 1494
Flags: W
HStem: -9 99<302.039 469.647> 629 99<409.759 576.033>
VStem: 136 104<200.259 389.209> 637 106<329.295 515.059>
Fore
136 239 m 0
 136 412 238 728 518 728 c 0
 580 728 630 711 669 677 c 1
 767 794 l 1
 821 755 l 1
 710 623 l 1
 732 584 743 536 743 480 c 0
 743 275 616 -9 361 -9 c 0
 300 -9 252 6 216 36 c 1
 112 -87 l 1
 57 -48 l 1
 171 88 l 1
 160 108 136 155 136 239 c 0
497 629 m 0
 306 629 240 376 240 262 c 0
 240 232 244 204 253 182 c 1
 596 590 l 1
 573 616 540 629 497 629 c 0
382 90 m 0
 569 90 637 333 637 454 c 0
 637 480 635 504 629 526 c 1
 288 123 l 1
 310 101 342 90 382 90 c 0
EndSplineSet
EndChar
StartChar: Thorn
Encoding: 222 222 159
Width: 727
VWidth: 1494
Flags: W
HStem: 96 113<244 483.214> 532 99<334 556.387>
VStem: 618 111<327.744 369 374 382.547 382.547 413.705 398.126 473.994>
Fore
334 631 m 1
 473 631 l 2
 620 631 736 572 736 436 c 0
 736 417 734 396 729 374 c 0
 685 166 517 96 314 96 c 2
 220 96 l 1
 173 -126 l 1
 66 -126 l 1
 263 801 l 1
 370 801 l 1
 334 631 l 1
356 209 m 2
 527 209 598 273 618 369 c 0
 621 383 622 396 622 408 c 0
 622 496 545 532 451 532 c 2
 313 532 l 1
 244 209 l 1
 356 209 l 2
EndSplineSet
EndChar
StartChar: uni00DF
Encoding: 223 223 160
Width: 689
VWidth: 1494
Flags: W
HStem: -6 97<296 447.427> 401 97<383 514.971> 638 82<382.249 525.508>
VStem: 544 120<537.075 618.845> 570 101<202.128 348.346>
Fore
671 302 m 0xe8
 671 135 513 -6 350 -6 c 2
 276 -6 l 1
 296 91 l 1
 360 91 l 2
 462 91 570 171 570 279 c 0xe8
 570 356 506 401 441 401 c 2
 360 401 l 1
 383 498 l 1
 468 498 l 2
 527 505 544 547 544 571 c 0
 544 602 525 638 458 638 c 0
 392 638 320 591 303 513 c 2
 153 -191 l 1
 153 -191 143 -194 101 -194 c 0
 71 -194 60 -193 50 -193 c 1
 202 520 l 2
 228 645 323 720 462 720 c 0
 629 720 664 637 664 582 c 0xf0
 664 555 654 496 584 448 c 1
 642 427 671 370 671 302 c 0xe8
EndSplineSet
EndChar
StartChar: ae
Encoding: 230 230 167
Width: 988
VWidth: 1494
Flags: W
HStem: -12 97<232.774 372.742 620.565 794.047> 227 91<602 898> 433 96<298.262 444.396> 444 93<693.023 856.425>
VStem: 95 93<133.166 306.445> 899 99<318.543 401.889>
Fore
95 186 m 0xdc
 95 359 227 529 386 529 c 0xec
 449 529 495 507 524 462 c 1
 540 535 l 1
 639 535 l 1
 627 478 l 1
 673 512 732 537 802 537 c 0
 924 537 998 465 998 351 c 0
 998 329 995 307 990 283 c 0
 980 237 950 227 915 227 c 2
 583 227 l 1
 580 214 579 202 579 192 c 0
 579 119 636 87 697 87 c 0
 750 87 798 108 831 127 c 1
 872 49 l 1
 824 15 743 -7 677 -7 c 0
 628 -7 578 2 536 34 c 1
 532 14 l 2
 531 11 531 7 532 3 c 1
 430 3 l 1
 440 58 l 1
 390 12 333 -12 271 -12 c 0
 147 -12 95 81 95 186 c 0xdc
373 433 m 0
 260 433 188 312 188 213 c 0
 188 140 228 85 299 85 c 0
 416 85 486 210 486 306 c 0
 486 365 463 433 373 433 c 0
898 318 m 1
 899 324 899 330 899 337 c 0
 899 390 865 444 780 444 c 0xdc
 658 444 611 342 602 318 c 1
 898 318 l 1
EndSplineSet
EndChar
StartChar: eth
Encoding: 240 240 177
Width: 621
VWidth: 1494
Flags: W
HStem: -16 74<247.147 414.874> 456 81<309.236 489.051>
VStem: 80 92<131.178 306.152> 557 101<283.988 390.911>
Fore
80 197 m 0
 80 369 233 537 417 537 c 0
 476 537 522 520 557 499 c 1
 533 558 501 597 453 637 c 1
 356 597 338 584 260 555 c 1
 258 569 249 611 247 625 c 1
 262 632 371 679 403 692 c 1
 368 715 318 743 275 759 c 1
 285 773 313 807 330 827 c 1
 383 808 461 756 489 734 c 1
 519 745 488 736 640 794 c 1
 646 757 655 737 657 722 c 1
 588 694 598 702 540 677 c 1
 635 576 658 467 658 383 c 0
 658 334 650 295 645 272 c 0
 603 73 450 -16 307 -16 c 0
 154 -16 80 82 80 197 c 0
330 58 m 0
 474 58 557 213 557 312 c 0
 557 401 493 456 405 456 c 0
 236 456 172 295 172 210 c 0
 172 115 248 58 330 58 c 0
EndSplineSet
EndChar
StartChar: divide
Encoding: 247 247 184
Width: 747
VWidth: 1494
Flags: W
HStem: 1 150<337.74 419.177> 208 104<157 693> 372 151<419.444 499.382>
VStem: 305 152<39.0812 118.131> 383 152<407.805 487.108>
Fore
383 431 m 0xe8
 383 476 425 523 476 523 c 0
 513 523 535 495 535 463 c 0
 535 411 484 372 444 372 c 0
 405 372 383 399 383 431 c 0xe8
305 60 m 0xf0
 305 111 348 151 397 151 c 0
 434 151 457 125 457 93 c 0
 457 49 411 1 365 1 c 0
 329 1 305 25 305 60 c 0xf0
157 312 m 1
 715 312 l 1
 693 208 l 1
 135 208 l 1
 157 312 l 1
EndSplineSet
EndChar
StartChar: oslash
Encoding: 248 248 185
Width: 621
VWidth: 1494
Flags: W
HStem: -10 97<280.883 410.234> 431 97<327.886 449.036> 578 20G<602.549 645>
VStem: 126 87<165.64 306.062> 522 86<210.989 355.065>
Fore
608 327 m 0
 608 181 498 -10 310 -10 c 0
 263 -10 223 2 192 25 c 1
 100 -81 l 1
 54 -45 l 1
 156 70 l 1
 133 107 126 150 126 190 c 0
 126 342 243 528 424 528 c 0
 468 528 504 517 531 496 c 1
 620 598 l 1
 665 562 l 1
 572 456 l 1
 599 417 608 369 608 327 c 0
404 431 m 0
 291 431 213 315 213 216 c 0
 213 191 218 168 226 149 c 1
 463 417 l 1
 447 426 427 431 404 431 c 0
330 87 m 0
 456 87 522 216 522 301 c 0
 522 327 516 354 503 378 c 1
 263 105 l 1
 282 93 303 87 330 87 c 0
EndSplineSet
EndChar
StartChar: thorn
Encoding: 254 254 191
Width: 730
VWidth: 1494
Flags: W
HStem: -27 93<301.877 466.017> 450 94<408.129 539.877>
VStem: 605 97<209.603 381.967>
Fore
380 66 m 256
 500 66 605 186 605 300 c 0
 605 385 548 450 462 450 c 256
 344 450 237 335 237 214 c 0
 237 125 297 66 380 66 c 256
702 320 m 0
 702 149 540 -27 360 -27 c 0
 323 -27 262 -20 207 31 c 1
 150 -236 l 1
 43 -236 l 1
 251 743 l 1
 358 743 l 1
 303 484 l 1
 378 537 445 544 482 544 c 0
 614 544 702 446 702 320 c 0
EndSplineSet
EndChar
StartChar: Lslash
Encoding: 321 321 193
Width: 527
VWidth: 1494
Flags: W
HStem: 0 91<212 513> 505 20G<387.16 415.775> 693 20G<238.693 345>
VStem: 51 481<91 241 508.711 529.618>
Fore
115 112 m 2
 155 303 l 1
 51 241 l 1
 66 311 l 1
 170 374 l 1
 243 713 l 1
 345 713 l 1
 287 444 l 1
 420 525 l 1
 405 454 l 1
 272 374 l 1
 212 91 l 1
 532 91 l 1
 513 0 l 1
 151 0 l 1
 141 -8 107 -23 99 -23 c 0
 74 -23 55 20 55 38 c 0
 55 60 108 81 115 112 c 2
EndSplineSet
EndChar
StartChar: lslash
Encoding: 322 322 194
Width: 273
VWidth: 1494
Flags: W
HStem: 0 21G<91 186.235> 511 20G<364.042 392.652>
VStem: 56 341<265 531 265 279.771>
Fore
71 333 m 1
 175 396 l 1
 241 707 l 1
 288 741 l 1
 340 741 l 1
 280 460 l 1
 397 531 l 1
 382 462 l 1
 265 392 l 1
 182 0 l 1
 91 0 l 1
 161 327 l 1
 56 265 l 1
 71 333 l 1
EndSplineSet
EndChar
StartChar: OE
Encoding: 338 338 195
Width: 1025
VWidth: 1494
Flags: W
HStem: -13 98<304.794 467.106> 1 101<675 949> 318 102<742 989> 611 102<783 1081> 628 98<410.531 572.653>
VStem: 138 103<156.133 392.095>
Fore
138 237 m 0xa4
 138 448 267 726 519 726 c 0xac
 604 726 657 692 690 650 c 1
 705 687 739 713 780 713 c 2
 1103 713 l 1
 1081 611 l 1
 783 611 l 1
 742 420 l 1
 1008 420 l 1
 989 318 l 1
 721 318 l 1
 675 102 l 1
 971 102 l 1
 949 1 l 1
 625 1 l 2x74
 587 1 567 24 567 55 c 0
 567 64 l 1
 551 51 475 -13 362 -13 c 0
 199 -13 138 99 138 237 c 0xa4
498 628 m 0
 328 628 241 413 241 266 c 0
 241 177 272 85 383 85 c 0
 494 85 580 187 621 332 c 2
 632 384 l 2
 635 406 636 427 636 447 c 0
 636 556 592 628 498 628 c 0
EndSplineSet
EndChar
StartChar: oe
Encoding: 339 339 196
Width: 979
VWidth: 1494
Flags: W
HStem: -10 97<237.751 367.445 631.119 759.865> 221 91<598 896> 431 95<293.188 443.754 720.989 857.013>
VStem: 94 88<134.98 308.487> 896 91<312.667 319.5 316.083 394.544>
Fore
94 194 m 0
 94 341 214 526 393 526 c 0
 442 526 523 515 560 416 c 1
 654 522 754 529 798 529 c 0
 919 529 994 459 994 344 c 0
 994 323 992 301 987 277 c 0
 980 243 961 221 912 221 c 2
 581 221 l 1
 578 208 577 196 577 185 c 0
 577 112 634 81 695 81 c 0
 748 81 796 102 829 121 c 1
 870 43 l 1
 813 -4 726 -15 682 -15 c 0
 648 -15 519 -9 488 96 c 1
 440 38 368 -10 279 -10 c 0
 151 -10 94 87 94 194 c 0
373 431 m 256
 258 431 182 315 182 214 c 0
 182 147 218 87 299 87 c 0
 395 87 448 153 482 250 c 0
 485 265 488 283 488 302 c 0
 488 363 463 431 373 431 c 256
896 312 m 1
 897 317 897 322 897 327 c 0
 897 381 863 438 778 438 c 0
 679 438 619 366 598 312 c 1
 896 312 l 1
EndSplineSet
EndChar
StartChar: florin
Encoding: 402 402 202
Width: 533
VWidth: 1494
Flags: W
HStem: -111 80<18 33.5231 20.455 95.1871> 362 64<195.768 282 394 484> 643 81<486.33 608.266>
Fore
303 426 m 1
 337 536 384 724 552 724 c 0
 592 724 635 712 675 686 c 1
 615 622 l 1
 569 641 569 643 547 643 c 0
 456 643 434 548 394 426 c 1
 508 426 l 1
 484 362 l 1
 373 362 l 1
 335 247 321 208 307 170 c 2
 280 92 l 2
 248 7 209 -45 140 -87 c 0
 105 -107 70 -112 10 -112 c 0
 -4 -112 -17 -112 -28 -111 c 1
 1 -63 7 -56 18 -31 c 1
 29 -33 39 -34 49 -34 c 0
 122 -34 163 30 185 88 c 2
 212 161 l 2
 247 261 252 282 282 362 c 1
 170 362 l 1
 183 393 l 2
 186 400 196 423 197 426 c 1
 303 426 l 1
EndSplineSet
EndChar
StartChar: circumflex
Encoding: 710 710 203
Width: 535
VWidth: 1494
Flags: W
HStem: 692 148<501 502 322 385 385 385>
VStem: 217 387<692 692 629 692>
Fore
432 788 m 1
 322 692 l 1
 217 692 l 1
 385 840 l 1
 502 840 l 1
 604 692 l 1
 501 692 l 1
 432 788 l 1
EndSplineSet
EndChar
StartChar: caron
Encoding: 711 711 204
Width: 523
VWidth: 1494
Flags: W
HStem: 753 148<366 367 483 546 262 262>
VStem: 262 387<901 901 1122 1185>
Fore
546 901 m 1
 649 901 l 1
 483 753 l 1
 366 753 l 1
 262 901 l 1
 367 901 l 1
 437 807 l 1
 546 901 l 1
EndSplineSet
EndChar
StartChar: breve
Encoding: 728 728 205
Width: 448
VWidth: 1494
Flags: W
HStem: 616 73<331.732 431.722> 616 173
VStem: 211 359<689 757 742 789 775.908 789> 211 89<706.531 774.931 773.954 775.908 775.908 789> 482 88<717.142 789>
Fore
570 789 m 1x60
 548 689 470 616 358 616 c 0xa0
 264 616 211 662 211 742 c 0
 211 757 212 772 216 789 c 1
 303 789 l 1x60
 301 778 300 768 300 759 c 0
 300 700 347 689 370 689 c 0x90
 399 689 465 709 482 789 c 1x58
 570 789 l 1x60
EndSplineSet
EndChar
StartChar: dotaccent
Encoding: 729 729 206
Width: 236
VWidth: 1494
Flags: W
HStem: 616 149<226.199 307.828>
VStem: 189 153<650.311 728.188>
Fore
189 673 m 0
 189 720 234 765 283 765 c 256
 320 765 342 738 342 706 c 0
 342 656 297 616 251 616 c 256
 215 616 189 638 189 673 c 0
EndSplineSet
EndChar
StartChar: ring
Encoding: 730 730 207
Width: 415
VWidth: 1494
Flags: W
HStem: 573 56<312.248 387.293> 718 56<321.79 397.12>
VStem: 251 58<632.594 705.154> 400 58<641.225 714.927>
Fore
458 696 m 0
 458 631 401 573 333 573 c 256
 283 573 251 602 251 648 c 0
 251 710 302 774 376 774 c 256
 427 774 458 741 458 696 c 0
345 629 m 0
 374 629 400 655 400 684 c 0
 400 705 385 718 364 718 c 0
 335 718 309 691 309 664 c 0
 309 644 325 629 345 629 c 0
EndSplineSet
EndChar
StartChar: tilde
Encoding: 732 732 209
Width: 449
VWidth: 1494
Flags: MW
HStem: 582 90<371.046 478.004> 629 92<249.349 354.391>
VStem: 488 81<672.299 719>
Fore
288 629 m 0
 251 629 248 603 238 581 c 1
 156 581 l 1
 172 654 215 721 292 721 c 0
 347 721 382 672 440 672 c 0
 463 672 480 683 488 719 c 1
 569 719 l 1
 548 619 483 582 433 582 c 0
 371 582 345 629 288 629 c 0
EndSplineSet
EndChar
StartChar: uni0E01
Encoding: 3585 3585 212
Width: 693
VWidth: 1494
Flags: W
HStem: 0 21G<139 246.286 501 608.262> 528 79<348.481 543.08>
Fore
582 381 m 2
 591 425 604 436 613 444 c 1
 613 444 563 528 456 528 c 0
 336 528 282 470 251 426 c 1
 286 395 l 1
 310 418 331 430 366 442 c 1
 398 378 l 1
 331 353 306 302 299 266 c 2
 242 0 l 1
 139 0 l 1
 197 271 l 2
 202 295 207 317 222 332 c 1
 133 399 l 1
 196 515 320 607 470 607 c 0
 606 607 659 542 676 513 c 1
 679 516 683 518 688 518 c 0
 713 518 738 487 738 464 c 0
 738 431 697 436 682 366 c 2
 604 0 l 1
 501 0 l 1
 582 381 l 2
EndSplineSet
EndChar
StartChar: uni0E02
Encoding: 3586 3586 213
Width: 653
VWidth: 1494
Flags: W
HStem: 0 90<318 485.469> 347 67<193.804 272.197> 529 82<345.538 409.096>
VStem: 122 69<417.238 492.919> 286 68<427.036 504.212> 422 92<425.864 516.364>
Back
122 436 m 0
 122 505 197 611 362 611 c 0
 432 611 514 586 514 491 c 0
 514 472 511 382 428 313 c 2
 383 278 l 2
 371 267 362 254 359 239 c 2
 332 114 l 1
 332 112 326 98 319 93 c 1
 458 93 l 2
 475 93 485 102 489 121 c 2
 590 598 l 1
 695 598 l 1
 585 82 l 2
 572 19 511 3 476 3 c 2
 254 3 l 1
 254 3 226 -9 220 -9 c 0
 196 -9 175 33 175 51 c 0
 175 73 222 90 230 126 c 2
 254 241 l 2
 258 258 268 287 325 324 c 2
 354 345 l 2
 395 374 422 424 422 465 c 0
 422 499 404 529 362 529 c 0
 356 529 350 529 344 528 c 1
 352 510 354 495 354 483 c 0
 354 415 290 347 215 347 c 256
 157 347 122 386 122 436 c 0
249 507 m 256
 215 507 191 477 191 449 c 0
 191 429 205 414 229 414 c 256
 263 414 286 445 286 471 c 0
 286 493 271 507 249 507 c 256
EndSplineSet
Fore
122 436 m 0
 122 505 197 611 362 611 c 0
 432 611 514 586 514 491 c 0
 514 472 511 382 428 313 c 2
 383 278 l 2
 371 267 362 254 359 239 c 2
 332 111 l 1
 331 109 325 95 318 90 c 1
 457 90 l 2
 474 90 484 99 488 118 c 2
 590 598 l 1
 695 598 l 1
 585 79 l 2
 571 16 510 0 475 0 c 2
 253 0 l 1
 253 0 225 -12 219 -12 c 0
 196 -12 175 28 175 47 c 0
 175 70 222 89 229 123 c 2
 254 241 l 2
 258 258 268 287 325 324 c 2
 354 345 l 2
 395 374 422 424 422 465 c 0
 422 499 404 529 362 529 c 0
 356 529 350 529 344 528 c 1
 352 510 354 495 354 483 c 0
 354 415 290 347 215 347 c 256
 157 347 122 386 122 436 c 0
249 507 m 256
 215 507 191 477 191 449 c 0
 191 429 205 414 229 414 c 256
 263 414 286 445 286 471 c 0
 286 493 271 507 249 507 c 256
EndSplineSet
EndChar
StartChar: uni0E03
Encoding: 3587 3587 214
Width: 672
VWidth: 1494
Flags: W
HStem: 0 88<352 505.444> 299 52<177.152 246.553> 432 54<223.192 255.643> 529 78<244.191 322.903> 537 71<434.837 496.971>
VStem: 111 64<352.858 420.871> 257 60<361.453 430.213> 479 83<451.951 525.329>
Fore
225 432 m 256xe7
 204 432 175 412 175 383 c 0
 175 364 190 351 208 351 c 256
 236 351 257 378 257 401 c 0
 257 419 243 432 225 432 c 256xe7
111 395 m 0
 111 500 202 607 307 607 c 0xf7
 345 607 373 594 393 567 c 1
 428 591 452 608 483 608 c 0
 518 608 562 582 562 505 c 0
 562 489 560 470 555 448 c 0
 546 404 514 405 425 324 c 0
 415 316 408 303 405 288 c 2
 368 114 l 2
 367 106 361 93 352 88 c 1
 476 88 l 2
 495 88 504 100 508 117 c 2
 610 598 l 1
 714 598 l 1
 604 78 l 2
 590 16 530 0 495 0 c 2
 291 0 l 1
 291 0 267 -12 259 -12 c 0
 240 -12 214 24 214 46 c 0
 214 74 260 85 268 123 c 2
 294 244 l 2
 306 300 329 331 362 356 c 2
 393 380 l 2
 411 395 417 397 440 416 c 2
 463 438 l 1
 465 439 479 447 479 489 c 0
 479 514 471 537 461 537 c 0xef
 453 537 442 532 418 516 c 1
 420 499 424 496 424 488 c 0
 424 465 389 450 372 450 c 0
 341 450 362 491 322 519 c 0
 313 526 303 529 293 529 c 0xf7
 273 529 238 511 223 483 c 1
 231 485 239 486 247 486 c 0
 295 486 317 448 317 411 c 0
 317 354 263 299 197 299 c 0
 143 299 111 336 111 395 c 0
EndSplineSet
EndChar
StartChar: uni0E04
Encoding: 3588 3588 215
Width: 689
VWidth: 1494
Flags: W
HStem: 0 21G<146.5 170.5 510 617.262> 226 62<375.953 455.398> 381 63<401.019 466.671> 528 80<362.494 562.957>
VStem: 159 85<220.554 314.829> 470 63<302.216 377.223>
Fore
431 381 m 0
 399 381 373 353 373 324 c 0
 373 302 389 288 411 288 c 0
 441 288 470 313 470 346 c 0
 470 366 456 381 431 381 c 0
155 257 m 0
 155 534 339 608 480 608 c 0
 616 608 668 553 691 516 c 1
 693 517 696 517 698 517 c 0
 720 517 747 489 747 465 c 0
 747 430 706 437 691 366 c 2
 613 0 l 1
 510 0 l 1
 591 381 l 2
 600 425 613 436 622 444 c 1
 617 455 592 528 466 528 c 0
 325 528 271 439 257 371 c 0
 241 296 247 280 244 220 c 1
 325 382 343 403 382 426 c 0
 401 438 422 444 444 444 c 0
 498 444 533 407 533 359 c 0
 533 295 474 226 398 226 c 0
 375 226 355 232 340 245 c 1
 321 208 302 174 283 141 c 2
 232 60 l 2
 208 24 182 -6 159 -6 c 0
 134 -6 112 27 112 43 c 0
 112 63 150 88 157 120 c 0
 159 129 159 139 159 149 c 0
 159 178 155 214 155 257 c 0
EndSplineSet
EndChar
StartChar: uni0E05
Encoding: 3589 3589 216
Width: 692
VWidth: 1494
Flags: W
HStem: 0 21G<146.5 173 514 621.262> 199 63<370.214 449.027> 354 63<380.699 459.437> 590 20G<380.5 391 567.5 586.5>
VStem: 151 91<211.781 231.546 221.664 348.348> 462 65<274.773 350.794>
Fore
111 43 m 0
 111 64 154 79 154 136 c 0
 154 158 151 192 151 235 c 0
 151 278 154 330 167 389 c 0
 208 584 379 610 382 610 c 0
 400 610 446 581 478 546 c 1
 535 593 559 610 576 610 c 0
 597 610 675 585 705 519 c 1
 725 516 751 486 751 464 c 0
 751 431 709 435 695 366 c 2
 617 0 l 1
 514 0 l 1
 596 386 l 2
 605 429 618 440 627 448 c 1
 614 502 574 512 555 517 c 1
 532 507 484 444 453 444 c 0
 425 444 423 485 366 519 c 1
 317 503 275 481 256 389 c 0
 253 374 241 330 241 252 c 0
 241 239 241 226 242 211 c 1
 273 269 308 325 326 353 c 0
 340 373 380 417 440 417 c 0
 494 417 527 380 527 333 c 0
 527 260 460 199 393 199 c 0
 368 199 340 209 333 221 c 1
 313 185 294 152 276 123 c 2
 226 48 l 2
 219 39 191 -7 155 -7 c 0
 138 -7 111 24 111 43 c 0
425 354 m 256
 390 354 367 324 367 299 c 0
 367 276 383 262 406 262 c 256
 434 262 462 285 462 319 c 0
 462 340 447 354 425 354 c 256
EndSplineSet
EndChar
StartChar: uni0E06
Encoding: 3590 3590 217
Width: 754
VWidth: 1494
Flags: W
HStem: -10 80<251.015 293.528> 200 87<444 517.266> 294 57<189.221 259.281> 431 55<235.647 266.584> 527 79<253.575 329.836> 536 74<441.093 512.171>
VStem: 125 62<352.956 419.213> 170 74<70.4411 165.522> 269 60<360.787 428.788> 486 92<455.857 532.246>
Fore
125 388 m 0xfac0
 125 475 190 606 313 606 c 0xfac0
 351 606 380 593 400 565 c 1
 453 600 496 610 505 610 c 0
 544 610 578 535 578 499 c 0
 578 462 527 427 501 408 c 2
 474 388 l 2
 466 382 459 369 456 351 c 2
 444 287 l 1
 516 277 599 222 616 170 c 1
 707 598 l 1
 807 598 l 1
 680 0 l 1
 580 0 l 1
 588 39 l 1
 568 120 508 185 424 200 c 1
 403 105 l 2
 386 25 330 -10 267 -10 c 0
 222 -10 170 20 170 89 c 0
 170 153 212 258 346 290 c 1
 353 326 l 2
 362 368 377 396 414 421 c 2
 445 442 l 2
 465 459 486 463 486 492 c 0
 486 513 469 536 455 536 c 0xf5c0
 451 536 431 527 422 520 c 1
 435 481 398 463 378 463 c 0
 342 463 371 488 329 517 c 0
 319 524 309 527 298 527 c 0
 262 527 241 492 235 483 c 1
 243 485 251 486 259 486 c 0
 307 486 329 446 329 409 c 0
 329 346 270 294 209 294 c 0
 156 294 125 330 125 388 c 0xfac0
237 431 m 256
 214 431 187 409 187 382 c 0
 187 363 202 351 220 351 c 256
 249 351 269 377 269 399 c 0
 269 418 255 431 237 431 c 256
326 200 m 1
 281 194 244 157 244 102 c 0xf1c0
 244 75 259 70 270 70 c 0
 285 70 300 80 302 91 c 2
 326 200 l 1
EndSplineSet
EndChar
StartChar: uni0E07
Encoding: 3591 3591 218
Width: 509
VWidth: 1494
Flags: W
HStem: -13 21G<315 329.5> 378 67<372.11 415.127> 538 67<381.003 459.248>
VStem: 299 70<447.603 526.365> 463 78<477.8 534.795>
Fore
299 466 m 0
 299 537 360 604 440 605 c 0
 520 605 541 563 541 523 c 0
 541 513 540 504 538 496 c 2
 451 85 l 2
 436 16 332 -13 327 -13 c 0
 303 -13 287 28 287 42 c 0
 287 48 291 48 291 51 c 0
 291 68 108 270 71 303 c 1
 145 383 l 1
 196 334 311 181 364 123 c 1
 420 384 l 1
 409 380 396 378 391 378 c 0
 334 378 299 416 299 466 c 0
425 538 m 256
 389 538 369 508 369 480 c 0
 369 460 382 445 406 445 c 256
 437 445 463 474 463 503 c 0
 463 525 447 538 425 538 c 256
EndSplineSet
EndChar
StartChar: uni0E08
Encoding: 3592 3592 219
Width: 656
VWidth: 1494
Flags: W
HStem: -15 21G<414.5 429> 205 63<320.294 380.13> 365 64<332.165 412.984> 528 80<322.372 523.469>
VStem: 99 90<330.707 450.418> 253 64<272.199 349.187> 400 78<146 148 148 223> 416 67<283.037 361.193>
Fore
253 291 m 0xfe
 253 362 312 429 390 429 c 0
 466 429 483 378 483 334 c 2
 483 326 l 1xfd
 478 146 l 1
 564 393 l 2
 573 419 582 435 593 442 c 1
 585 446 550 528 430 528 c 0
 313 528 223 472 189 312 c 1
 99 312 l 1
 150 549 316 608 446 608 c 0
 556 608 620 570 654 516 c 1
 656 519 660 520 665 520 c 0
 685 520 714 489 714 464 c 0
 714 438 677 426 657 386 c 2
 538 61 l 2
 530 41 522 32 487 12 c 2
 439 -12 l 2
 435 -14 431 -15 427 -15 c 0
 402 -15 379 30 379 45 c 0
 379 56 390 58 400 73 c 1
 395 223 l 1
 378 211 359 205 337 205 c 0
 298 205 253 233 253 291 c 0xfe
377 365 m 256
 347 365 317 339 317 306 c 0
 317 285 331 268 356 268 c 256
 391 268 416 299 416 328 c 0
 416 348 402 365 377 365 c 256
EndSplineSet
EndChar
StartChar: uni0E09
Encoding: 3593 3593 220
Width: 702
VWidth: 1494
Flags: W
HStem: -6 69<515.657 598.738> 335 61<238.316 318.607> 525 88<337.478 546.798>
VStem: 161 63<241.928 320.704> 322 63<253.121 332.072> 435 75<68.6314 135.155> 619 71<82.5256 168.927>
Fore
161 264 m 0
 161 328 223 396 296 396 c 256
 350 396 385 359 385 310 c 0
 385 279 370 253 356 233 c 1
 341 167 l 1
 449 249 525 250 558 250 c 1
 588 389 l 2
 592 409 603 426 615 438 c 1
 605 453 572 525 441 525 c 0
 367 525 257 491 192 369 c 1
 116 402 l 1
 223 573 350 613 460 613 c 0
 612 613 662 546 681 517 c 1
 683 518 685 518 688 518 c 0
 712 518 738 487 738 464 c 0
 738 431 697 436 682 366 c 2
 651 223 l 1
 676 210 690 178 690 144 c 0
 690 64 616 -6 537 -6 c 0
 481 -6 435 31 435 91 c 0
 435 111 441 139 454 152 c 1
 436 146 407 132 368 100 c 2
 326 64 l 2
 271 16 258 -11 231 -11 c 0
 209 -11 187 20 187 38 c 0
 187 60 227 74 235 106 c 2
 250 178 l 1
 196 178 161 215 161 264 c 0
263 239 m 256
 298 239 322 269 322 299 c 0
 322 321 307 335 283 335 c 256
 248 335 224 305 224 275 c 0
 224 253 239 239 263 239 c 256
577 173 m 256
 541 173 510 141 510 106 c 0
 510 82 525 63 553 63 c 256
 590 63 619 96 619 131 c 0
 619 155 605 173 577 173 c 256
EndSplineSet
EndChar
StartChar: uni0E0A
Encoding: 3594 3594 221
Width: 653
VWidth: 1494
Flags: W
HStem: 0 90<316 485.469> 347 67<193.804 272.197> 529 82<345.538 409.096>
VStem: 122 69<417.238 492.919> 286 68<427.036 504.212> 422 92<425.864 516.364>
Fore
122 436 m 0
 122 505 197 611 362 611 c 0
 432 611 514 586 514 491 c 0
 514 472 511 382 428 313 c 2
 383 278 l 2
 371 267 362 254 359 239 c 2
 332 111 l 2
 329 100 324 93 316 90 c 1
 457 90 l 2
 474 90 484 99 488 118 c 2
 547 396 l 2
 548 400 549 404 549 409 c 0
 549 418 545 428 535 444 c 1
 529 449 523 453 516 456 c 1
 516 460 517 464 517 468 c 1
 529 522 633 596 658 614 c 2
 748 679 l 1
 795 610 l 1
 675 533 654 509 627 478 c 1
 635 473 655 455 655 421 c 0
 655 415 655 408 653 401 c 2
 585 79 l 2
 571 16 510 0 475 0 c 2
 253 0 l 1
 228 -11 225 -12 220 -12 c 0
 199 -12 175 27 175 47 c 0
 175 71 222 88 229 123 c 2
 254 241 l 2
 258 258 268 287 325 324 c 2
 354 345 l 2
 395 374 422 424 422 465 c 0
 422 499 404 529 362 529 c 0
 356 529 350 529 344 528 c 1
 352 510 354 495 354 483 c 0
 354 415 290 347 215 347 c 256
 157 347 122 386 122 436 c 0
249 507 m 256
 215 507 191 477 191 449 c 0
 191 429 205 414 229 414 c 256
 263 414 286 445 286 471 c 0
 286 493 271 507 249 507 c 256
EndSplineSet
EndChar
StartChar: uni0E0B
Encoding: 3595 3595 222
Width: 686
VWidth: 1494
Flags: W
HStem: 0 88<352 520.444> 299 52<177.152 246.553> 432 54<223.192 255.643> 529 78<244.191 322.903> 537 71<435.971 495.971>
VStem: 111 64<352.858 420.871> 257 60<361.453 430.213> 479 76<435.521 526.019> 582 105<384.375 403 403 411.023 407.012 437.081>
Fore
225 432 m 256xe780
 204 432 175 412 175 383 c 0
 175 364 190 351 208 351 c 256
 236 351 257 378 257 401 c 0
 257 419 243 432 225 432 c 256xe780
584 410 m 0
 584 422 577 444 550 456 c 1
 550 488 584 538 690 614 c 2
 779 679 l 1
 827 610 l 1
 721 542 695 517 661 478 c 1
 669 473 689 455 689 421 c 0
 689 415 689 408 687 401 c 2
 619 78 l 2
 605 16 545 0 510 0 c 2
 291 0 l 1
 291 0 265 -12 258 -12 c 0
 235 -12 214 28 214 47 c 0
 214 70 261 89 268 123 c 2
 294 244 l 2
 306 300 329 331 362 356 c 2
 393 380 l 2
 411 395 417 397 440 416 c 2
 463 438 l 2
 464 439 479 447 479 489 c 0
 479 514 471 537 461 537 c 1xef80
 453 535 442 532 418 516 c 1
 420 499 424 496 424 488 c 0
 424 465 389 450 372 450 c 0
 341 450 362 491 322 519 c 0
 313 526 303 529 293 529 c 0
 273 529 238 511 223 483 c 1
 231 485 239 486 247 486 c 0
 295 486 317 448 317 411 c 0
 317 354 263 299 197 299 c 0
 143 299 111 336 111 395 c 0
 111 500 202 607 307 607 c 0xf780
 345 607 373 594 393 567 c 1
 428 591 452 608 483 608 c 0xef80
 516 607 555 586 555 518 c 0
 555 414 492 385 425 324 c 0
 415 316 408 303 405 288 c 2
 368 114 l 2
 367 106 361 93 352 88 c 1
 491 88 l 2
 510 88 519 100 523 117 c 2
 582 396 l 2
 583 401 584 405 584 410 c 0
EndSplineSet
EndChar
StartChar: uni0E0C
Encoding: 3596 3596 223
Width: 970
VWidth: 1494
Flags: W
HStem: -1 67<232.688 308.096 488.931 522.345> 158 65<289 320.256> 185 83<661 717.578> 528 79<347.391 540.378>
VStem: 160 69<69.6686 128.305> 325 64<79.6515 154.74> 413 69<64.1917 161.351>
Fore
552 193 m 1x9e
 519 188 482 150 482 96 c 0
 482 70 495 64 504 64 c 0
 514 64 526 72 529 84 c 2
 552 193 l 1x9e
288 158 m 0xde
 253 158 229 130 229 101 c 0
 229 81 243 66 268 66 c 0
 302 66 325 98 325 123 c 0
 325 145 310 158 288 158 c 0xde
389 134 m 0
 389 70 328 -1 248 -1 c 256
 193 -1 160 34 160 84 c 0
 160 93 161 102 163 112 c 2
 197 271 l 2
 202 295 207 317 222 332 c 1
 133 399 l 1
 196 515 315 607 470 607 c 0
 582 607 646 567 681 516 c 1
 683 517 685 517 688 517 c 0
 714 517 738 487 738 464 c 0
 738 431 697 436 682 366 c 2
 661 268 l 1
 696 265 763 241 817 179 c 1
 906 598 l 1
 1007 598 l 1
 880 0 l 1
 779 0 l 1
 793 64 l 1
 741 161 662 182 644 185 c 1xbe
 626 100 l 2
 613 38 569 -3 506 -3 c 0
 446 -3 413 34 413 85 c 0
 413 146 451 226 557 262 c 1
 583 387 l 2
 584 392 587 424 613 444 c 1
 601 447 561 528 456 528 c 0
 336 528 282 470 251 426 c 1
 286 395 l 1
 310 418 331 430 366 442 c 1
 383 410 l 2
 390 398 397 381 398 378 c 1
 343 358 310 321 299 266 c 2
 289 223 l 1
 363 223 389 176 389 134 c 0
EndSplineSet
EndChar
StartChar: uni0E0D
Encoding: 3597 3597 224
Width: 962
VWidth: 1494
Flags: W
HStem: -267 70<480.26 595.176> -111 61<490.863 561.418> -7 67<231.098 310.736> 0 90<609 787.6> 154 67<271.547 320.612> 528 79<347.827 539.945>
VStem: 159 69<63.8235 124.065> 324 69<72.8356 150.492> 416 62<-195.005 -123.45> 564 61<-170.183 -113.984>
Fore
286 154 m 0xefc0
 254 154 228 127 228 97 c 0
 228 74 244 60 266 60 c 0
 300 60 324 88 324 118 c 0
 324 138 310 154 286 154 c 0xefc0
511 -197 m 0
 536 -197 564 -173 564 -146 c 0
 564 -127 551 -111 530 -111 c 0
 503 -111 478 -139 478 -162 c 0
 478 -181 490 -197 511 -197 c 0
393 131 m 0
 393 65 330 -7 252 -7 c 256xefc0
 194 -7 159 33 159 83 c 0
 159 91 160 100 162 108 c 2
 197 271 l 2
 202 295 207 317 222 332 c 1
 133 399 l 1
 196 515 317 607 470 607 c 0
 582 607 642 568 678 516 c 1
 680 517 682 517 685 517 c 0
 711 517 735 487 735 464 c 0
 735 431 694 436 679 366 c 2
 625 115 l 2
 624 110 618 95 609 90 c 1
 763 90 l 2
 780 90 791 99 795 118 c 2
 897 598 l 1
 1001 598 l 1
 891 82 l 2
 868 -29 856 -65 838 -102 c 0
 769 -234 634 -267 556 -267 c 0
 491 -267 416 -248 416 -176 c 0
 416 -100 487 -50 545 -50 c 0
 597 -50 625 -93 625 -134 c 0
 625 -153 619 -169 613 -182 c 1
 725 -159 761 -98 788 0 c 1
 552 0 l 1xdfc0
 528 -7 531 -7 526 -7 c 0
 502 -7 479 31 479 51 c 0
 479 73 514 76 521 109 c 2
 582 393 l 2
 586 414 602 437 610 444 c 1
 600 446 561 528 456 528 c 0
 336 528 282 470 251 426 c 1
 286 395 l 1
 310 418 331 430 366 442 c 1
 398 378 l 1
 331 353 306 302 299 266 c 2
 289 220 l 1
 291 221 292 221 300 221 c 0
 355 221 393 183 393 131 c 0
EndSplineSet
Substitution2: "Single Substitution lookup 22 subtable" uni0E0D.alt1
Substitution2: "Single Substitution lookup 22 subtable" uni0E0D.alt1
EndChar
StartChar: uni0E0E
Encoding: 3598 3598 225
Width: 724
VWidth: 1494
Flags: W
HStem: -366 67<107.21 187.347> -199 69<118.384 195.408> -10 68<136.773 213.674> 151 69<147.723 221.675> 531 79<383.747 579.67>
VStem: 32 71<-295.138 -215.274> 65 68<61.6704 136.743> 204 69<-282.809 -235.928>
Fore
65 81 m 0xfb
 65 147 128 220 207 220 c 0
 215 220 215 219 227 217 c 1
 239 274 l 2
 244 298 250 320 264 335 c 1
 167 402 l 1
 218 495 330 610 505 610 c 0
 602 610 671 584 715 517 c 1
 717 518 720 518 722 518 c 0
 748 518 772 485 772 464 c 0
 772 433 729 432 716 366 c 2
 598 -187 l 2
 594 -207 580 -219 562 -236 c 2
 468 -320 l 2
 450 -336 422 -366 406 -366 c 0
 390 -366 355 -338 355 -317 c 0
 355 -312 357 -308 361 -303 c 1
 335 -268 305 -246 273 -235 c 1
 273 -275 222 -366 128 -366 c 0
 72 -366 32 -327 32 -273 c 0xfd
 32 -198 105 -130 178 -130 c 0
 188 -130 198 -132 206 -135 c 1
 220 -72 l 1
 305 -72 l 1
 288 -151 l 1
 329 -161 380 -187 426 -242 c 1
 455 -217 478 -197 497 -178 c 1
 619 394 l 2
 620 399 632 431 648 448 c 1
 636 455 599 531 491 531 c 0
 372 531 317 473 285 429 c 1
 321 398 l 1
 345 421 365 433 401 445 c 1
 431 388 430 386 434 381 c 1
 418 375 362 359 343 269 c 2
 311 117 l 2
 299 63 259 -10 158 -10 c 0
 101 -10 65 29 65 81 c 0xfb
192 151 m 0
 156 151 133 119 133 95 c 0xfb
 133 74 147 58 172 58 c 0
 206 58 229 90 229 116 c 0
 229 137 214 151 192 151 c 0
164 -199 m 256
 130 -199 103 -229 103 -259 c 0xfd
 103 -281 117 -299 142 -299 c 256
 173 -299 204 -271 204 -237 c 0
 204 -214 188 -199 164 -199 c 256
EndSplineSet
Substitution2: "Single Substitution lookup 22 subtable" uni0E0E.alt1
Substitution2: "Single Substitution lookup 22 subtable" uni0E0E.alt1
EndChar
StartChar: uni0E0F
Encoding: 3599 3599 226
Width: 724
VWidth: 1494
Flags: W
HStem: -366 67<29.4846 109.566> -293 72<361.87 400> -199 69<40.7665 119.349> -10 68<136.773 213.674> 151 69<147.723 221.675> 531 79<382.903 575.88>
VStem: -46 71<-294.902 -215.254> 65 68<61.6704 136.743>
Fore
65 81 m 0
 65 147 128 220 207 220 c 0
 215 220 215 219 227 217 c 1
 239 274 l 2
 244 298 250 320 264 335 c 1
 167 402 l 1
 218 495 326 607 505 610 c 0
 602 610 671 584 715 517 c 1
 717 518 720 518 722 518 c 0
 748 518 772 485 772 464 c 0
 772 433 729 432 716 366 c 2
 596 -199 l 1
 595 -200 589 -207 577 -220 c 2
 495 -310 l 2
 478 -328 467 -342 452 -342 c 0
 434 -342 397 -326 397 -303 c 0
 397 -301 398 -300 398 -298 c 0
 398 -296 400 -294 400 -293 c 1
 308 -293 300 -366 275 -366 c 0
 272 -366 230 -354 223 -352 c 1
 210 -343 224 -335 238 -314 c 1
 230 -280 217 -261 196 -242 c 1
 179 -320 113 -366 51 -366 c 0
 -7 -366 -46 -327 -46 -273 c 0
 -46 -206 15 -130 100 -130 c 0
 111 -130 121 -132 128 -135 c 1
 145 -55 l 1
 229 -55 l 1
 209 -149 l 1
 281 -184 296 -240 302 -256 c 1
 345 -224 371 -221 386 -221 c 0
 403 -221 419 -225 434 -233 c 1
 498 -172 l 1
 619 394 l 2
 620 400 630 434 648 447 c 1
 637 450 597 531 491 531 c 0
 372 531 317 473 285 429 c 1
 321 398 l 1
 345 421 365 433 401 445 c 1
 431 388 430 386 434 381 c 1
 418 375 362 359 343 269 c 2
 311 117 l 2
 299 63 259 -10 158 -10 c 0
 101 -10 65 29 65 81 c 0
192 151 m 0
 156 151 133 119 133 95 c 0
 133 74 147 58 172 58 c 0
 206 58 229 90 229 116 c 0
 229 137 214 151 192 151 c 0
87 -199 m 0
 56 -199 25 -225 25 -259 c 0
 25 -283 42 -299 65 -299 c 256
 95 -299 127 -271 127 -235 c 0
 127 -215 114 -199 87 -199 c 0
EndSplineSet
Substitution2: "Single Substitution lookup 22 subtable" uni0E0F.alt1
Substitution2: "Single Substitution lookup 22 subtable" uni0E0F.alt1
EndChar
StartChar: uni0E10
Encoding: 3600 3600 227
Width: 624
VWidth: 1494
Flags: W
HStem: -366 63<-38.6951 43.0977> -330 66<262.727 356.941> -221 58<329.747 364.65> -205 64<-27.5151 49.0449> -87 59<337.14 405.561> -17 21G<344 363.5> 130 60<226.96 294.749> 286 61<239.766 320.447> 397 78<279.25 303.546 291.398 448.824> 496 71<652 714> 540 77<370.461 495.881>
VStem: -108 65<-298.586 -220.786> 165 59<194.072 270.5> 269 60<-161.317 -94.5611> 324 89<203.615 260.565> 407 65<-137.767 -88.897>
Fore
269 -146 m 0x6f9d
 269 -80 331 -28 387 -28 c 0
 424 -28 472 -50 472 -101 c 0
 472 -107 471 -114 470 -121 c 2
 430 -310 l 2
 428 -319 402 -350 385 -350 c 0
 372 -350 354 -330 319 -330 c 0x6f9d
 260 -330 231 -363 214 -363 c 0
 210 -363 173 -341 173 -337 c 1
 174 -335 175 -332 178 -327 c 1
 173 -297 161 -267 121 -244 c 1
 120 -248 120 -253 119 -257 c 0
 110 -302 64 -366 -17 -366 c 0
 -68 -366 -108 -332 -108 -279 c 0
 -108 -209 -48 -141 30 -141 c 0x9f9d
 40 -141 50 -142 59 -145 c 1
 78 -57 l 1
 163 -57 l 1
 140 -164 l 1
 223 -196 238 -259 243 -280 c 1
 276 -266 304 -264 329 -264 c 0
 338 -264 347 -264 355 -265 c 1
 365 -218 l 1
 358 -220 352 -221 346 -221 c 0
 317 -221 269 -200 269 -146 c 0x6f9d
17 -205 m 256x9f98
 -19 -205 -43 -238 -43 -265 c 0
 -43 -288 -26 -303 -3 -303 c 256
 28 -303 58 -277 58 -243 c 0
 58 -220 41 -205 17 -205 c 256x9f98
375 -87 m 256
 350 -87 329 -109 329 -134 c 0
 329 -151 340 -163 358 -163 c 256
 387 -163 407 -139 407 -116 c 0x2f9d
 407 -99 396 -87 375 -87 c 256
285 286 m 256
 252 286 224 256 224 226 c 0
 224 204 241 190 264 190 c 256
 300 190 324 220 324 248 c 0x0f9a
 324 268 311 286 285 286 c 256
165 214 m 0
 165 292 234 347 300 347 c 0
 336 347 371 325 380 294 c 1
 392 270 413 182 413 120 c 0
 413 108 l 1
 477 287 l 2
 493 322 492 324 509 344 c 1
 499 356 436 397 297 397 c 0
 270 397 243 396 213 392 c 1
 204 379 191 367 179 367 c 0
 167 367 130 382 130 398 c 0
 130 409 246 617 455 617 c 0x0fba
 489 617 524 613 619 588 c 2
 672 574 l 2
 688 569 702 567 714 567 c 1
 671 501 l 1
 667 498 660 496 652 496 c 0x0fda
 637 496 600 507 578 513 c 2
 513 531 l 2
 484 539 468 540 437 540 c 0x0fba
 403 540 332 536 279 475 c 1
 296 476 313 476 328 476 c 0
 472 476 553 429 575 414 c 1
 576 416 581 417 586 417 c 0
 618 417 634 378 634 362 c 0
 634 342 586 307 572 275 c 2
 497 66 l 2
 485 38 370 -17 357 -17 c 0
 331 -17 312 27 312 46 c 0
 312 51 313 55 334 75 c 1
 333 91 325 114 321 154 c 1
 305 137 271 130 252 130 c 0
 207 130 165 159 165 214 c 0
EndSplineSet
Substitution2: "Single Substitution lookup 22 subtable" uni0E10.alt1
Substitution2: "Single Substitution lookup 22 subtable" uni0E10.alt1
EndChar
StartChar: uni0E11
Encoding: 3601 3601 228
Width: 813
VWidth: 1494
Flags: W
HStem: 0 21G<283 300 628 735.242> 293 58<183.927 253.016> 432 54<229.625 261.643> 529 77<248.5 318.866 429.791 503.061>
VStem: 118 64<353.234 422.104> 263 60<361.697 430.213> 474 91<474.261 519.002>
Fore
231 432 m 256
 207 432 182 409 182 383 c 0
 182 364 196 351 214 351 c 256
 242 351 263 378 263 401 c 0
 263 419 249 432 231 432 c 256
118 392 m 0
 118 497 204 606 303 606 c 0
 339 606 366 592 385 565 c 1
 408 582 448 610 489 610 c 0
 538 610 565 522 565 500 c 0
 565 492 560 474 540 460 c 2
 506 433 l 2
 461 399 452 377 449 363 c 2
 415 200 l 1
 688 608 l 1
 741 608 790 594 813 574 c 1
 816 578 821 579 828 579 c 0
 857 579 878 547 878 526 c 0
 878 494 837 498 822 429 c 2
 731 0 l 1
 628 0 l 1
 720 433 l 2
 729 474 741 490 750 501 c 1
 747 506 719 514 714 514 c 1
 396 58 l 2
 377 27 307 -9 293 -9 c 0
 273 -9 250 31 250 52 c 0
 250 74 288 90 295 123 c 2
 341 339 l 2
 355 404 469 463 474 483 c 1
 474 486 470 534 448 534 c 0
 440 534 425 527 410 516 c 1
 416 478 375 463 363 463 c 0
 329 463 354 489 318 519 c 1
 312 526 303 529 294 529 c 0
 258 529 234 491 229 483 c 1
 237 485 245 486 253 486 c 0
 301 486 323 448 323 411 c 0
 323 358 273 293 201 293 c 0
 148 293 118 333 118 392 c 0
EndSplineSet
EndChar
StartChar: uni0E12
Encoding: 3602 3602 229
Width: 959
VWidth: 1494
Flags: MW
HStem: -8 68<494.065 526.862> 175 81<667 721.522> 381 64<379.245 455.755> 578 20G<910 1010 1010 1010> 590 20<366.759 386.5 568.5 584 905.775 1010>
VStem: 156 87<152 215.133 215.133 228.185 221.659 418.905> 302 65<295.623 367.697> 417 70<60.3074 157.226> 458 66<305.788 378.259>
Fore
557 188 m 1xef
 519 183 487 142 487 92 c 0
 487 66 500 60 510 60 c 0
 520 60 531 68 534 79 c 2
 557 188 l 1xef
423 381 m 0
 389 381 367 351 367 327 c 0
 367 307 381 293 404 293 c 0
 435 293 458 320 458 348 c 0xee80
 458 369 442 381 423 381 c 0
302 316 m 0
 302 382 370 445 437 445 c 0
 488 445 524 409 524 360 c 0xee80
 524 271 435 225 343 144 c 2
 226 39 l 2
 224 37 180 -8 156 -8 c 0
 137 -8 113 28 113 43 c 0
 113 62 147 79 152 102 c 0
 155 117 156 133 156 151 c 0
 156 191 151 236 151 287 c 0
 151 582 381 610 381 610 c 1xee80
 392 610 431 601 479 549 c 1
 498 565 555 611 582 611 c 0xee80
 586 611 681 589 706 520 c 1
 707 520 709 521 711 521 c 0
 720 521 750 487 750 463 c 0
 750 431 705 430 691 366 c 2
 667 256 l 1
 702 253 766 233 820 172 c 1
 910 598 l 1
 1010 598 l 1xf7
 883 0 l 1
 783 0 l 1
 796 61 l 1
 765 119 701 166 648 175 c 1
 631 96 l 2
 618 32 573 -8 509 -8 c 0
 447 -8 417 38 417 88 c 0xef
 417 157 467 232 568 260 c 1
 597 396 l 2
 600 411 610 432 626 445 c 1
 621 466 613 513 555 523 c 1
 518 506 478 468 455 468 c 0
 442 468 423 502 371 525 c 1
 338 514 240 488 240 279 c 0
 240 246 243 218 243 177 c 2
 243 152 l 1
 283 190 341 241 346 245 c 1
 321 254 302 281 302 316 c 0
EndSplineSet
EndChar
StartChar: uni0E13
Encoding: 3603 3603 230
Width: 992
VWidth: 1494
Flags: W
HStem: -15 73<797.016 886.446> -7 67<240.467 318.941> 154 66<290.779 330.047> 173 86<811.5 858> 528 79<347.391 539.327>
VStem: 160 77<63.9733 127.115> 333 70<73.0827 151.514> 715 76<64.6125 152.719> 908 73<80.0649 167.64>
Fore
296 154 m 0x6f80
 263 154 237 128 237 96 c 0
 237 74 252 60 276 60 c 0
 310 60 333 89 333 118 c 0
 333 138 320 154 296 154 c 0x6f80
862 173 m 256x9f80
 822 173 791 139 791 103 c 0
 791 78 808 58 837 58 c 256
 879 58 908 93 908 131 c 0
 908 156 892 173 862 173 c 256x9f80
403 133 m 0
 403 59 335 -7 262 -7 c 0
 206 -7 160 23 160 84 c 0
 160 94 161 103 163 114 c 2
 197 271 l 2
 202 295 207 317 222 332 c 1
 133 399 l 1
 196 515 315 607 470 607 c 0
 579 607 642 569 678 517 c 1
 680 518 682 518 685 518 c 0
 709 518 735 487 735 464 c 0
 735 431 694 436 679 366 c 2
 641 188 l 1
 694 230 758 259 841 259 c 2
 858 259 l 1x5f80
 862 262 864 268 866 278 c 2
 926 562 l 1
 1026 562 l 1
 960 251 l 2
 958 239 954 231 944 223 c 1
 965 206 981 178 981 142 c 0
 981 64 907 -15 821 -15 c 0
 754 -15 715 29 715 86 c 0
 715 117 728 146 738 158 c 1
 624 127 568 -1 536 -1 c 0
 516 -1 484 28 484 50 c 0
 484 72 514 76 521 109 c 2
 582 393 l 2
 586 414 606 439 610 444 c 1
 600 446 561 528 456 528 c 0
 336 528 282 470 251 426 c 1
 286 395 l 1
 310 418 331 430 366 442 c 1
 398 378 l 1
 331 353 306 302 299 266 c 2
 288 215 l 1
 297 218 307 220 316 220 c 0xaf80
 350 220 403 193 403 133 c 0
EndSplineSet
EndChar
StartChar: uni0E14
Encoding: 3604 3604 231
Width: 684
VWidth: 1494
Flags: W
HStem: 0 21G<146.5 165 510 617.262> 387 67<386.456 464.957> 523 85<355.405 562.253>
VStem: 152 91<152 160.023 145.512 208.04 204.54 211.54 208.04 393.621> 305 68<297.077 372.825> 468 69<307.588 384.016>
Fore
150 271 m 0
 150 541 348 607 477 608 c 0
 571 608 642 587 688 517 c 1
 690 518 693 518 695 518 c 0
 722 518 747 487 747 464 c 0
 747 431 706 436 691 366 c 2
 613 0 l 1
 510 0 l 1
 592 386 l 2
 599 421 619 440 623 444 c 1
 615 446 594 523 461 523 c 0
 376 523 238 493 238 264 c 0
 238 224 244 196 244 168 c 0
 244 163 244 158 243 152 c 1
 295 201 329 226 351 244 c 1
 324 255 305 280 305 317 c 0
 305 389 372 454 445 454 c 256
 498 454 537 420 537 367 c 0
 537 268 432 217 282 84 c 2
 228 38 l 2
 208 20 174 -8 156 -8 c 0
 137 -8 113 28 113 43 c 0
 113 62 147 79 152 102 c 0
 155 117 156 131 156 147 c 0
 156 183 150 223 150 271 c 0
430 387 m 256
 398 387 373 358 373 331 c 0
 373 309 388 294 410 294 c 256
 444 294 468 324 468 352 c 0
 468 372 454 387 430 387 c 256
EndSplineSet
EndChar
StartChar: uni0E15
Encoding: 3605 3605 232
Width: 692
VWidth: 1494
Flags: W
HStem: -11 21G<155.5 184 514 621.262> 360 68<382.27 460.235> 587 20G<378.5 385.5 570.5 585.5>
VStem: 165 87<149 156.5 142.25 209.652 208.578 210.727 209.652 373.311> 301 68<270.926 346.705> 464 69<281.723 357.254>
Fore
301 295 m 0
 301 355 361 428 441 428 c 256
 499 428 533 389 533 339 c 0
 533 236 409 178 377 154 c 0
 254 66 203 -11 165 -11 c 0
 146 -11 121 25 121 40 c 0
 121 59 156 76 161 99 c 0
 164 112 165 128 165 145 c 0
 165 183 160 230 160 282 c 0
 160 589 376 607 381 607 c 0
 390 607 433 597 478 546 c 1
 497 562 558 610 583 610 c 0
 588 610 679 593 703 519 c 1
 706 520 707 520 709 520 c 0
 721 520 751 487 751 463 c 0
 751 432 709 433 695 366 c 2
 617 0 l 1
 514 0 l 1
 598 395 l 2
 601 410 611 431 626 444 c 1
 624 456 620 507 566 519 c 1
 544 509 476 444 451 444 c 0
 430 444 418 492 365 520 c 1
 313 496 279 473 261 392 c 256
 251 343 248 303 248 268 c 0
 248 225 253 192 253 164 c 0
 253 159 252 154 252 149 c 1
 291 187 320 201 346 223 c 1
 325 225 301 257 301 295 c 0
427 360 m 256
 398 360 369 336 369 303 c 0
 369 281 385 268 407 268 c 256
 438 268 464 296 464 324 c 0
 464 345 449 360 427 360 c 256
EndSplineSet
EndChar
StartChar: uni0E16
Encoding: 3606 3606 233
Width: 689
VWidth: 1494
Flags: W
HStem: -7 67<241.645 320.139> 154 67<288.67 332.331> 528 79<347.391 543.08>
VStem: 160 79<63.5829 127.115> 335 69<73.4121 150.976>
Fore
298 154 m 0
 265 154 239 128 239 96 c 0
 239 74 254 60 278 60 c 0
 312 60 335 92 335 119 c 0
 335 140 320 154 298 154 c 0
404 132 m 0
 404 66 343 -7 264 -7 c 0
 211 -7 160 20 160 84 c 0
 160 93 161 103 163 114 c 2
 197 271 l 2
 202 295 207 317 222 332 c 1
 133 399 l 1
 196 515 315 607 470 607 c 0
 606 607 659 542 676 513 c 1
 679 516 683 518 688 518 c 0
 713 518 738 487 738 464 c 0
 738 431 697 436 682 366 c 2
 604 0 l 1
 501 0 l 1
 582 381 l 2
 591 425 604 436 613 444 c 1
 613 444 563 528 456 528 c 0
 336 528 282 470 251 426 c 1
 286 395 l 1
 310 418 331 430 366 442 c 1
 398 378 l 1
 331 353 306 302 299 266 c 2
 288 218 l 1
 297 220 305 221 312 221 c 0
 368 221 404 183 404 132 c 0
EndSplineSet
EndChar
StartChar: uni0E17
Encoding: 3607 3607 234
Width: 721
VWidth: 1494
Flags: W
HStem: 0 21G<184.5 199 541 648.272> 384 67<219.844 271.429> 514 90<596 602.454 592.434 650.012> 546 67<231.623 308.648>
VStem: 146 71<454.595 531.768> 312 72<482.21 542.733>
Fore
146 474 m 0xec
 146 550 217 613 288 613 c 0xdc
 335 613 384 583 384 524 c 0
 384 516 383 508 381 499 c 2
 321 217 l 1
 556 604 l 1
 570 607 585 608 603 608 c 0
 661 608 710 586 726 571 c 1
 730 575 735 576 742 576 c 0
 770 576 790 542 790 523 c 0
 790 493 749 493 735 426 c 2
 644 0 l 1
 541 0 l 1
 634 438 l 2
 638 455 647 486 662 498 c 1
 655 509 635 515 609 515 c 0
 604 515 599 515 596 514 c 1
 298 58 l 2
 286 41 245 13 226 1 c 1
 206 -6 202 -8 196 -8 c 0
 173 -8 152 31 152 52 c 0
 152 75 193 95 198 124 c 2
 254 386 l 1
 251 385 246 384 240 384 c 0
 185 384 146 422 146 474 c 0xec
274 546 m 256
 244 546 217 520 217 487 c 0
 217 462 236 451 254 451 c 256
 289 451 312 482 312 510 c 0
 312 532 296 546 274 546 c 256
EndSplineSet
EndChar
StartChar: uni0E18
Encoding: 3608 3608 235
Width: 624
VWidth: 1494
Flags: W
HStem: 1 88<272 453.287> 336 97<331 501.625> 487 83<611.529 671> 531 83<355.489 559.976>
Fore
485 250 m 2xc0
 489 269 492 292 508 314 c 1
 493 320 404 333 331 336 c 1
 283 110 l 2
 281 99 278 92 272 89 c 1
 424 89 l 2
 440 89 453 99 457 118 c 2
 485 250 l 2xc0
551 79 m 2
 537 16 474 0 439 0 c 2
 205 1 l 1
 179 -9 182 -10 173 -10 c 0
 148 -10 130 34 130 52 c 0
 130 74 176 90 183 124 c 2
 231 347 l 1
 221 347 208 348 205 348 c 0
 182 348 174 337 162 337 c 0
 152 337 120 366 120 377 c 0
 120 386 138 396 178 453 c 0
 277 590 385 614 463 614 c 0xd0
 569 614 653 572 719 570 c 1
 671 487 l 1xe0
 575 492 536 531 448 531 c 0xd0
 383 531 334 512 265 433 c 1
 393 433 492 416 577 395 c 1
 582 399 587 401 592 401 c 0
 617 401 641 363 641 347 c 0
 641 318 598 300 590 263 c 2
 551 79 l 2
EndSplineSet
EndChar
StartChar: uni0E19
Encoding: 3609 3609 236
Width: 713
VWidth: 1494
Flags: W
HStem: -9 76<516.019 609.272> 188 90<533.576 579> 378 69<215.666 258.434> 540 68<227.063 305.385>
VStem: 144 69<449.986 525.658> 309 81<474.702 536.941> 431 78<74.6953 146.615> 632 78<90.1401 180.694>
Fore
584 188 m 256
 546 188 509 154 509 113 c 0
 509 85 530 67 558 67 c 256
 602 67 632 105 632 140 c 0
 632 167 615 188 584 188 c 256
272 540 m 0
 242 540 213 515 213 482 c 0
 213 462 227 447 252 447 c 0
 286 447 309 478 309 504 c 0
 309 526 294 540 272 540 c 0
710 155 m 0
 710 73 632 -9 541 -9 c 0
 473 -9 431 37 431 97 c 0
 431 123 438 150 450 170 c 1
 340 150 232 -2 202 -2 c 0
 177 -2 154 41 154 58 c 0
 154 79 198 96 206 130 c 2
 259 381 l 1
 251 379 242 378 234 378 c 0
 185 378 144 413 144 467 c 0
 144 538 208 608 286 608 c 0
 368 608 390 564 390 520 c 0
 390 510 389 499 387 489 c 2
 325 199 l 1
 401 258 498 278 563 278 c 2
 579 278 l 1
 585 285 587 290 590 299 c 2
 653 598 l 1
 758 598 l 1
 689 271 l 2
 687 263 681 249 671 241 c 1
 693 222 710 193 710 155 c 0
EndSplineSet
EndChar
StartChar: uni0E1A
Encoding: 3610 3610 237
Width: 727
VWidth: 1494
Flags: W
HStem: 0 88<287 547.737> 378 69<212.254 253.275> 540 68<222.827 302.502>
VStem: 139 70<449.765 525.913> 305 80<475.143 536.782>
Fore
139 469 m 0
 139 537 204 608 281 608 c 0
 363 608 385 564 385 520 c 0
 385 510 384 499 382 489 c 2
 302 111 l 1
 301 109 299 98 287 88 c 1
 532 88 l 2
 546 88 558 93 563 117 c 2
 665 598 l 1
 770 598 l 1
 660 79 l 2
 646 16 584 0 550 0 c 2
 220 0 l 1
 202 -7 198 -11 189 -11 c 0
 165 -11 142 32 142 51 c 0
 142 75 193 91 199 124 c 2
 254 381 l 1
 246 379 237 378 229 378 c 0
 180 378 139 416 139 469 c 0
267 540 m 0
 233 540 209 510 209 482 c 0
 209 462 223 447 247 447 c 0
 279 447 305 475 305 504 c 0
 305 526 289 540 267 540 c 0
EndSplineSet
EndChar
StartChar: uni0E1B
Encoding: 3611 3611 238
Width: 727
VWidth: 1494
Flags: W
HStem: 0 88<287 547.737> 378 69<212.254 253.275> 540 68<222.827 302.502>
VStem: 139 70<449.765 525.913> 305 80<475.143 536.782>
Fore
139 469 m 0
 139 537 204 608 281 608 c 0
 363 608 385 564 385 520 c 0
 385 510 384 499 382 489 c 2
 302 111 l 1
 301 109 299 98 287 88 c 1
 532 88 l 2
 546 88 558 93 563 117 c 2
 713 822 l 1
 818 822 l 1
 660 79 l 2
 646 16 584 0 550 0 c 2
 220 0 l 1
 202 -7 198 -11 189 -11 c 0
 165 -11 142 32 142 51 c 0
 142 75 193 91 199 124 c 2
 254 381 l 1
 246 379 237 378 229 378 c 0
 180 378 139 416 139 469 c 0
267 540 m 0
 233 540 209 510 209 482 c 0
 209 462 223 447 247 447 c 0
 279 447 305 475 305 504 c 0
 305 526 289 540 267 540 c 0
EndSplineSet
EndChar
StartChar: uni0E1C
Encoding: 3612 3612 239
Width: 692
VWidth: 1494
Flags: W
HStem: -17 21G<94.5 110 529 536.5> 378 69<274.407 348.219> 540 68<280.794 359.227>
VStem: 363 68<462.151 536.33>
Fore
431 517 m 0
 431 441 358 378 292 378 c 0
 284 378 277 379 269 381 c 1
 227 185 l 1
 372 311 l 2
 391 328 401 337 416 337 c 0
 427 337 436 328 446 311 c 2
 536 175 l 1
 626 598 l 1
 732 598 l 1
 618 63 l 2
 608 11 630 19 567 -7 c 256
 553 -13 540 -17 533 -17 c 0
 525 -17 524 -9 519 -1 c 2
 387 212 l 1
 135 0 l 2
 120 -13 114 -14 106 -14 c 0
 83 -14 58 26 58 46 c 0
 58 66 103 86 109 118 c 2
 187 483 l 2
 198 537 238 608 338 608 c 0
 395 608 431 569 431 517 c 0
304 447 m 0
 340 447 363 479 363 503 c 0
 363 524 349 540 324 540 c 0
 290 540 267 508 267 482 c 0
 267 461 282 447 304 447 c 0
EndSplineSet
EndChar
StartChar: uni0E1D
Encoding: 3613 3613 240
Width: 692
VWidth: 1494
Flags: W
HStem: -17 21G<94.5 110 529 536.5> 378 69<274.407 348.219> 540 68<280.794 359.227>
VStem: 363 68<462.151 536.33>
Fore
431 517 m 0
 431 441 358 378 292 378 c 0
 284 378 277 379 269 381 c 1
 227 185 l 1
 372 311 l 2
 391 328 401 337 416 337 c 0
 427 337 436 328 446 311 c 2
 536 175 l 1
 674 822 l 1
 780 822 l 1
 618 63 l 2
 608 11 630 19 567 -7 c 256
 553 -13 540 -17 533 -17 c 0
 525 -17 523 -10 519 -1 c 2
 387 212 l 1
 135 0 l 2
 120 -13 114 -14 106 -14 c 0
 83 -14 58 26 58 46 c 0
 58 66 103 86 109 118 c 2
 187 483 l 2
 198 537 238 608 338 608 c 0
 395 608 431 569 431 517 c 0
304 447 m 0
 340 447 363 479 363 503 c 0
 363 524 349 540 324 540 c 0
 290 540 267 508 267 482 c 0
 267 461 282 447 304 447 c 0
EndSplineSet
EndChar
StartChar: uni0E1E
Encoding: 3614 3614 241
Width: 787
VWidth: 1494
Flags: W
HStem: -10 21G<175 188.5 624 640> 378 69<212.254 253.275> 540 68<222.827 302.118>
VStem: 139 70<449.765 525.913> 305 77<475.143 536.378>
Fore
139 469 m 0
 139 537 204 608 281 608 c 0
 360 608 382 566 382 521 c 0
 382 510 381 499 379 489 c 2
 326 239 l 1
 518 562 l 2
 534 582 540 589 561 589 c 256
 583 589 587 582 593 562 c 2
 650 239 l 1
 726 598 l 1
 833 598 l 1
 726 93 l 2
 723 79 719 38 719 24 c 1
 710 1 701 5 677 -3 c 0
 659 -8 645 -10 635 -10 c 0
 613 -10 606 6 604 16 c 2
 521 405 l 1
 302 64 l 2
 264 13 229 6 198 -9 c 1
 194 -10 190 -11 187 -11 c 0
 163 -11 141 26 141 43 c 0
 141 66 191 88 199 120 c 2
 254 381 l 1
 246 379 237 378 229 378 c 0
 180 378 139 416 139 469 c 0
267 540 m 0
 233 540 209 510 209 482 c 0
 209 462 223 447 247 447 c 0
 279 447 305 475 305 504 c 0
 305 526 289 540 267 540 c 0
EndSplineSet
EndChar
StartChar: uni0E1F
Encoding: 3615 3615 242
Width: 787
VWidth: 1494
Flags: W
HStem: -10 21G<175 188.5 624 640> 378 69<212.254 253.275> 540 68<222.827 302.118>
VStem: 139 70<449.765 525.913> 305 77<475.143 536.378>
Fore
139 469 m 0
 139 537 204 608 281 608 c 0
 360 608 382 566 382 521 c 0
 382 510 381 499 379 489 c 2
 326 239 l 1
 518 562 l 2
 534 582 540 589 561 589 c 0
 577 589 592 583 592 564 c 1
 650 239 l 1
 774 821 l 1
 881 821 l 1
 726 93 l 2
 723 79 719 38 719 24 c 1
 710 1 701 5 677 -3 c 0
 659 -8 645 -10 635 -10 c 0
 613 -10 606 6 604 16 c 2
 521 405 l 1
 302 64 l 2
 264 13 229 6 198 -9 c 1
 194 -10 190 -11 187 -11 c 0
 163 -11 141 26 141 43 c 0
 141 66 191 88 199 120 c 2
 254 381 l 1
 246 379 237 378 229 378 c 0
 180 378 139 416 139 469 c 0
267 540 m 0
 233 540 209 510 209 482 c 0
 209 462 223 447 247 447 c 0
 279 447 305 475 305 504 c 0
 305 526 289 540 267 540 c 0
EndSplineSet
EndChar
StartChar: uni0E20
Encoding: 3616 3616 243
Width: 716
VWidth: 1494
Flags: W
HStem: -13 68<136.252 215.221> 148 69<147.001 220.811> 528 79<382.852 574.709>
VStem: 64 69<58.1048 134.409>
Fore
191 148 m 0
 154 148 133 116 133 91 c 0
 133 70 147 55 172 55 c 0
 199 55 229 80 229 111 c 0
 229 133 213 148 191 148 c 0
64 77 m 0
 64 153 135 217 206 217 c 0
 214 217 214 216 226 214 c 1
 239 271 l 2
 244 295 249 317 264 332 c 1
 167 399 l 1
 218 492 329 607 504 607 c 0
 616 607 680 567 715 517 c 1
 717 518 720 518 722 518 c 0
 748 518 772 485 772 464 c 0
 772 433 729 432 716 366 c 2
 638 0 l 1
 535 0 l 1
 618 391 l 2
 622 409 639 436 647 444 c 1
 636 447 596 528 490 528 c 0
 371 528 316 470 285 426 c 1
 320 395 l 1
 345 418 364 430 400 442 c 1
 433 378 l 1
 417 372 362 356 343 266 c 2
 310 114 l 2
 299 60 258 -13 157 -13 c 0
 101 -13 64 25 64 77 c 0
EndSplineSet
EndChar
StartChar: uni0E21
Encoding: 3617 3617 244
Width: 705
VWidth: 1494
Flags: W
HStem: 0 21G<162 214 523 627.247> 208 86<371 421.716> 378 69<242.666 285.434> 540 68<254.063 332.276>
VStem: 89 87<71.3136 167.212> 171 69<449.986 525.658> 336 80<474.702 537.42>
Fore
247 199 m 1xfa
 214 195 176 159 176 103 c 0
 176 77 189 70 198 70 c 0
 209 70 222 78 224 90 c 2
 247 199 l 1xfa
171 467 m 0xf6
 171 538 235 608 313 608 c 0
 394 608 416 565 416 521 c 0
 416 510 415 499 413 489 c 2
 371 294 l 1
 412 287 497 266 563 188 c 1
 650 598 l 1
 750 598 l 1
 623 0 l 1
 523 0 l 1
 533 46 l 1
 524 81 490 177 353 208 c 1
 331 103 l 2
 312 12 239 -11 189 -11 c 0
 135 -11 89 28 89 93 c 0xfa
 89 173 153 266 266 288 c 1
 286 381 l 1
 278 379 269 378 261 378 c 0
 212 378 171 413 171 467 c 0xf6
299 540 m 0
 269 540 240 515 240 482 c 0xf6
 240 462 254 447 279 447 c 0
 313 447 336 478 336 504 c 0
 336 526 321 540 299 540 c 0
EndSplineSet
EndChar
StartChar: uni0E22
Encoding: 3618 3618 245
Width: 680
VWidth: 1494
Flags: MW
HStem: 0 90<261 515.469> 250 81<306 430.41> 386 67<310.899 389.409> 546 67<323.545 400.009> 578 20G<620 725 725 725>
VStem: 146 99<355.934 432.129> 403 68<466.699 542.527>
Fore
249 435 m 1
 247 426 245 423 245 412 c 0
 245 383 261 331 336 331 c 0
 403 331 450 366 468 366 c 0
 483 366 492 322 492 308 c 0
 492 285 391 250 306 250 c 1
 278 111 l 2
 275 101 270 94 261 90 c 1
 487 90 l 2
 504 90 514 100 518 119 c 2
 620 598 l 1
 725 598 l 1xee
 615 80 l 2
 601 16 540 0 505 0 c 2
 196 0 l 1
 165 -10 174 -12 161 -12 c 0
 139 -12 118 32 118 51 c 0
 118 75 168 94 175 125 c 2
 206 274 l 1
 157 304 146 352 146 389 c 0
 146 504 253 613 377 613 c 0xf6
 451 613 471 561 471 523 c 0
 471 448 402 386 332 386 c 0
 289 386 262 408 249 435 c 1
366 546 m 256
 331 546 308 515 308 489 c 0
 308 469 322 453 346 453 c 256
 376 453 403 480 403 510 c 0
 403 532 388 546 366 546 c 256
EndSplineSet
EndChar
StartChar: uni0E23
Encoding: 3619 3619 246
Width: 563
VWidth: 1494
Flags: W
HStem: -7 68<324.538 405.24> 154 69<336.321 411.156> 361 84<264 389.913> 481 86<557.424 625> 520 89<330.35 535.455>
VStem: 253 69<64.1048 140.438>
Fore
253 83 m 0xec
 253 159 328 223 392 223 c 0
 400 223 408 222 416 220 c 1
 428 278 l 2
 430 286 437 308 446 318 c 1
 414 341 302 361 233 361 c 0
 178 361 178 345 156 345 c 0
 138 345 117 370 117 378 c 0
 117 390 184 486 251 540 c 0
 297 577 361 609 440 609 c 0xec
 533 609 542 581 661 567 c 1
 625 481 l 1xf4
 554 481 507 520 431 520 c 0
 345 520 298 488 264 445 c 1
 282 445 l 2
 382 445 462 422 520 395 c 1
 523 398 527 400 533 400 c 0
 558 400 583 369 583 346 c 0
 583 312 542 318 527 248 c 2
 498 112 l 2
 486 58 448 -7 347 -7 c 0
 291 -7 253 31 253 83 c 0xec
381 154 m 0
 348 154 322 128 322 97 c 0
 322 76 336 61 361 61 c 0
 396 61 419 92 419 118 c 0
 419 138 405 154 381 154 c 0
EndSplineSet
EndChar
StartChar: uni0E24
Encoding: 3620 3620 247
Width: 689
VWidth: 1494
Flags: W
HStem: -7 67<241.645 320.139> 154 67<288.67 332.331> 528 79<347.391 543.08>
VStem: 160 79<63.5829 127.115> 335 69<73.4121 150.976>
Fore
298 154 m 0
 265 154 239 128 239 96 c 0
 239 74 254 60 278 60 c 0
 312 60 335 92 335 119 c 0
 335 140 320 154 298 154 c 0
404 132 m 0
 404 66 343 -7 264 -7 c 0
 211 -7 160 20 160 84 c 0
 160 93 161 103 163 114 c 2
 197 271 l 2
 202 295 207 317 222 332 c 1
 133 399 l 1
 196 515 315 607 470 607 c 0
 606 607 659 542 676 513 c 1
 679 516 683 518 688 518 c 0
 713 518 738 487 738 464 c 0
 738 431 697 436 682 366 c 2
 532 -341 l 1
 429 -341 l 1
 582 381 l 2
 591 425 604 436 613 444 c 1
 613 444 563 528 456 528 c 0
 336 528 282 470 251 426 c 1
 286 395 l 1
 310 418 331 430 366 442 c 1
 398 378 l 1
 331 353 306 302 299 266 c 2
 288 218 l 1
 297 220 305 221 312 221 c 0
 368 221 404 183 404 132 c 0
EndSplineSet
EndChar
StartChar: uni0E25
Encoding: 3621 3621 248
Width: 671
VWidth: 1494
Flags: W
HStem: -4 67<205.418 284.849> 155 63<248.64 294.715> 522 85<319.625 473.164>
VStem: 107 93<355.786 455.052> 133 70<66.1199 140.28> 298 69<77.4381 151.995>
Fore
345 414 m 1xec
 345 445 384 461 397 461 c 0
 445 461 519 281 532 214 c 1
 570 392 l 2
 571 395 584 440 600 448 c 1
 537 519 460 522 432 522 c 0
 426 522 l 0
 310 522 227 460 200 336 c 1
 107 336 l 1xf4
 140 487 263 607 444 607 c 0
 537 607 613 583 665 517 c 1
 668 521 672 523 678 523 c 0
 703 523 724 488 724 468 c 0
 724 438 682 436 669 371 c 2
 590 0 l 1
 487 0 l 1
 493 30 l 1
 485 71 452 235 381 339 c 1
 349 315 303 271 272 217 c 1
 278 218 283 218 289 218 c 0
 339 218 367 183 367 137 c 0
 367 58 299 -4 226 -4 c 0
 159 -4 133 48 133 96 c 0
 133 176 245 332 345 414 c 1xec
260 155 m 0
 225 155 203 124 203 98 c 0xec
 203 77 218 63 240 63 c 256
 269 63 298 87 298 120 c 0
 298 142 282 155 260 155 c 0
EndSplineSet
EndChar
StartChar: uni0E26
Encoding: 3622 3622 249
Width: 720
VWidth: 1494
Flags: W
HStem: -13 68<136.252 215.221> 148 69<147.001 220.811> 528 79<382.852 574.639>
VStem: 64 69<58.1048 134.409>
Fore
191 148 m 0
 154 148 133 116 133 91 c 0
 133 70 147 55 172 55 c 0
 199 55 229 80 229 111 c 0
 229 133 213 148 191 148 c 0
64 77 m 0
 64 153 135 217 206 217 c 0
 214 217 214 216 226 214 c 1
 239 271 l 2
 244 295 249 317 264 332 c 1
 167 399 l 1
 218 492 329 607 504 607 c 0
 616 607 679 567 714 517 c 1
 716 518 718 518 721 518 c 0
 749 518 772 485 772 464 c 0
 772 431 730 435 716 366 c 2
 565 -342 l 1
 462 -342 l 1
 618 392 l 2
 620 402 630 432 647 444 c 1
 636 447 596 528 490 528 c 0
 371 528 316 470 285 426 c 1
 320 395 l 1
 345 418 364 430 400 442 c 1
 433 378 l 1
 417 372 362 356 343 266 c 2
 310 114 l 2
 299 60 258 -13 157 -13 c 0
 101 -13 64 25 64 77 c 0
EndSplineSet
EndChar
StartChar: uni0E27
Encoding: 3623 3623 250
Width: 572
VWidth: 1494
Flags: W
HStem: -9 69<345.097 423.61> 152 68<355.267 435.105> 517 91<300.446 445.186>
VStem: 273 69<63.7295 139.985>
Fore
273 81 m 0
 273 162 356 220 417 220 c 0
 425 220 434 219 441 217 c 1
 483 414 l 2
 487 431 500 450 508 454 c 1
 461 517 415 517 392 517 c 0
 248 517 220 411 205 339 c 1
 108 339 l 1
 112 357 l 2
 137 475 215 608 416 608 c 0
 519 608 562 547 577 528 c 1
 579 529 581 529 584 529 c 0
 609 529 634 496 634 474 c 0
 634 440 594 447 578 375 c 2
 522 111 l 2
 508 46 455 -9 366 -9 c 0
 310 -9 273 29 273 81 c 0
400 152 m 0
 364 152 342 124 342 95 c 0
 342 75 356 60 381 60 c 0
 414 60 438 90 438 115 c 0
 438 138 422 152 400 152 c 0
EndSplineSet
EndChar
StartChar: uni0E28
Encoding: 3624 3624 251
Width: 690
VWidth: 1494
Flags: W
HStem: 0 21G<139 164 502 609.262> 226 62<368.51 448.042> 381 63<393.417 458.982> 528 80<356.653 557.437>
VStem: 152 85<220.65 319.921> 462 63<302.61 377.558>
Fore
148 254 m 0
 148 537 334 608 473 608 c 0
 543 608 595 593 632 568 c 1
 648 584 671 603 701 624 c 2
 786 686 l 1
 832 617 l 1
 782 588 737 554 696 516 c 1
 720 509 739 484 739 465 c 0
 739 432 697 433 683 366 c 2
 605 0 l 1
 502 0 l 1
 583 381 l 2
 592 425 605 436 614 444 c 1
 613 449 586 528 459 528 c 0
 312 528 262 431 249 371 c 0
 234 303 239 265 237 220 c 1
 322 397 348 411 374 426 c 0
 393 438 414 444 436 444 c 0
 492 444 525 407 525 360 c 0
 525 296 469 226 390 226 c 0
 367 226 348 232 333 245 c 1
 210 17 177 -6 151 -6 c 0
 127 -6 104 27 104 43 c 0
 104 68 152 82 152 147 c 0
 152 174 148 210 148 254 c 0
423 381 m 0
 389 381 366 350 366 324 c 0
 366 302 381 288 403 288 c 0
 433 288 462 313 462 346 c 0
 462 366 448 381 423 381 c 0
EndSplineSet
EndChar
StartChar: uni0E29
Encoding: 3625 3625 252
Width: 739
VWidth: 1494
Flags: W
HStem: 0 90<296 571.494> 193 71<459.222 555.782> 364 73<452.797 549.317> 383 67<219.925 254.671 247.346 261.996> 546 67<232.29 309.878>
VStem: 146 71<453.302 531.085> 313 83<480.163 542.767> 367 73<273.231 350.686>
Fore
274 546 m 0xde
 244 546 217 517 217 487 c 0
 217 465 232 450 254 450 c 0
 289 450 313 482 313 508 c 0
 313 528 300 546 274 546 c 0xde
499 364 m 0xed
 468 364 440 341 440 306 c 0xed
 440 270 482 264 493 264 c 0
 550 264 607 321 628 372 c 1
 676 598 l 1
 782 598 l 1
 672 80 l 2
 658 16 596 0 561 0 c 2
 229 0 l 1
 206 -8 203 -10 197 -10 c 0
 174 -10 151 32 151 51 c 0
 151 74 202 96 208 125 c 2
 263 384 l 1
 256 383 253 383 231 383 c 0
 184 383 146 420 146 473 c 0
 146 550 218 613 288 613 c 0
 371 613 396 571 396 526 c 0xde
 396 515 394 504 392 493 c 2
 311 113 l 1
 311 111 308 100 296 90 c 1
 542 90 l 2
 561 90 571 102 574 119 c 2
 601 244 l 1
 575 211 531 193 488 193 c 0
 420 193 367 224 367 289 c 0
 367 380 450 437 517 437 c 0
 573 437 580 397 580 389 c 0
 580 373 544 349 530 349 c 0
 511 349 526 364 499 364 c 0xed
EndSplineSet
EndChar
StartChar: uni0E2A
Encoding: 3626 3626 253
Width: 671
VWidth: 1494
Flags: W
HStem: -4 67<205.418 284.849> 155 63<248.64 294.715> 522 85<319.625 473.164>
VStem: 107 93<355.786 455.052> 133 70<66.1199 140.28> 298 69<77.4381 151.995>
Fore
345 414 m 1xec
 345 445 384 461 397 461 c 0
 445 461 519 281 532 214 c 1
 570 392 l 2
 571 395 584 440 600 448 c 1
 537 519 460 522 432 522 c 0
 426 522 l 0
 310 522 227 460 200 336 c 1
 107 336 l 1xf4
 140 487 263 607 444 607 c 0
 521 607 572 591 613 564 c 1
 634 584 691 628 727 654 c 2
 771 686 l 1
 817 617 l 1
 772 588 725 555 686 520 c 1
 714 508 725 483 725 468 c 0
 725 438 682 436 669 371 c 2
 590 0 l 1
 487 0 l 1
 493 30 l 1
 485 71 452 235 381 339 c 1
 349 315 303 271 272 217 c 1
 278 218 283 218 289 218 c 0
 339 218 367 183 367 137 c 0
 367 58 299 -4 226 -4 c 0
 159 -4 133 48 133 96 c 0
 133 176 245 332 345 414 c 1xec
260 155 m 0
 225 155 203 124 203 98 c 0xec
 203 77 218 63 240 63 c 256
 269 63 298 87 298 120 c 0
 298 142 282 155 260 155 c 0
EndSplineSet
EndChar
StartChar: uni0E2B
Encoding: 3627 3627 254
Width: 721
VWidth: 1494
Flags: W
HStem: 0 21G<186 202.5 540 648.265> 383 67<217.815 250.475 246.546 254.403> 543 67<227.792 306.316 591.562 684.554>
VStem: 145 70<453.467 529.558> 309 78<481.995 540.19> 490 78<437.913 519.226> 693 78<451.98 533.218>
Fore
771 511 m 0
 771 452 725 402 695 387 c 1
 704 370 727 362 727 338 c 0
 727 315 707 299 702 272 c 2
 644 0 l 1
 540 0 l 1
 600 281 l 2
 606 309 610 321 617 327 c 1
 611 339 608 348 583 357 c 1
 232 10 l 2
 227 4 209 -9 196 -9 c 0
 176 -9 145 28 145 50 c 0
 145 73 194 99 201 130 c 2
 255 384 l 1
 250 383 245 383 238 383 c 0
 184 383 145 418 145 471 c 0
 145 542 210 607 285 610 c 0
 365 610 387 566 387 527 c 0
 387 518 386 509 384 501 c 2
 323 212 l 1
 516 398 l 1
 499 415 490 437 490 461 c 0
 490 534 564 610 658 610 c 256
 720 610 771 570 771 511 c 0
272 543 m 0
 238 543 215 515 215 485 c 0
 215 465 228 450 253 450 c 0
 283 450 309 477 309 507 c 0
 309 529 294 543 272 543 c 0
619 430 m 256
 662 430 693 466 693 497 c 0
 693 522 673 541 643 541 c 256
 601 541 568 507 568 476 c 0
 568 450 588 430 619 430 c 256
EndSplineSet
EndChar
StartChar: uni0E2C
Encoding: 3628 3628 255
Width: 804
VWidth: 1494
Flags: W
HStem: -10 21G<175 188.5 624 640> 378 69<212.254 253.275> 540 68<222.827 302.118> 541 79<661.906 716.529> 716 82<672.326 751.942>
VStem: 139 70<449.765 525.913> 305 77<475.143 536.378> 574 83<624.675 700.927>
Fore
139 469 m 0xdf
 139 537 204 608 281 608 c 0xef
 360 608 382 566 382 521 c 0
 382 510 381 499 379 489 c 2
 326 239 l 1
 503 487 l 2
 518 507 524 514 545 514 c 256
 567 514 571 507 578 487 c 2
 650 229 l 1
 717 544 l 1
 711.038 541.445 711.443 541 683 541 c 0
 620 541 574 581 574 642 c 0
 574 721 647 798 738 798 c 0
 796 798 836 766 845 718 c 1
 870 736 894 758 906 768 c 1
 957 691 l 1
 830 593 l 1
 724 96 l 2
 722 84 717 43 717 24 c 1
 708 1 700 5 676 -3 c 0
 658 -8 645 -10 635 -10 c 0
 613 -10 606 6 604 16 c 2
 508 344 l 1
 302 64 l 2
 264 13 229 6 198 -9 c 1
 194 -10 190 -11 187 -11 c 0
 163 -11 141 26 141 43 c 0
 141 68 191 84 198 117 c 2
 254 381 l 1
 246 379 237 378 229 378 c 0
 180 378 139 416 139 469 c 0xdf
267 540 m 0
 233 540 209 510 209 482 c 0
 209 462 223 447 247 447 c 0
 279 447 305 475 305 504 c 0
 305 526 289 540 267 540 c 0
717 716 m 0
 681 716 657 685 657 659 c 0
 657 638 672 620 697 620 c 0xdf
 724 620 756 646 756 678 c 0
 756 701 739 716 717 716 c 0
EndSplineSet
Substitution2: "Single Substitution lookup 22 subtable" uni0E2C.alt1
Substitution2: "Single Substitution lookup 22 subtable" uni0E2C.alt1
EndChar
StartChar: uni0E2D
Encoding: 3629 3629 256
Width: 680
VWidth: 1494
Flags: W
HStem: 0 90<279 503.167> 199 67<311.625 384.011> 360 68<317.485 394.268> 520 87<322.035 541.231>
VStem: 94 88<348.342 449.833> 398 71<280.675 356.919>
Fore
361 360 m 256
 333 360 304 336 304 302 c 0
 304 277 323 266 341 266 c 256
 372 266 398 295 398 324 c 0
 398 345 383 360 361 360 c 256
469 338 m 0
 469 262 396 199 326 199 c 0
 318 199 312 199 309 200 c 1
 290 111 l 2
 288 103 280 90 279 90 c 1
 487 90 l 2
 502 90 513 95 518 117 c 2
 574 383 l 2
 578 402 586 428 605 444 c 1
 604 452 558 520 437 520 c 0
 282 520 205 436 182 330 c 1
 94 330 l 1
 133 513 285 607 455 607 c 0
 594 607 648 551 669 517 c 1
 672 521 676 522 681 522 c 0
 705 522 730 487 730 465 c 0
 730 436 689 438 674 369 c 2
 613 79 l 2
 599 16 541 0 505 0 c 2
 212 0 l 1
 212 0 182 -12 177 -12 c 0
 155 -12 135 33 135 51 c 0
 135 72 183 93 189 124 c 2
 228 308 l 2
 244 380 309 428 375 428 c 0
 433 428 469 389 469 338 c 0
EndSplineSet
EndChar
StartChar: uni0E2E
Encoding: 3630 3630 257
Width: 621
VWidth: 1494
Flags: W
HStem: 0 88<206 457.007> 146 68<228.753 301.723> 308 67<236.104 312.576> 393 81<265.132 464.761> 534 77<277.734 471.605>
VStem: 316 71<228.018 304.405>
Fore
279 308 m 256
 244 308 221 276 221 250 c 0
 221 230 235 214 259 214 c 256
 287 214 316 238 316 272 c 0
 316 297 297 308 279 308 c 256
264 496 m 0
 264 487 276 474 328 474 c 0
 402 474 461 484 505 504 c 1
 478 522 438 534 385 534 c 0
 325 534 264 519 264 496 c 0
154 485 m 0
 154 530 205 611 401 611 c 0
 450 611 540 606 587 559 c 1
 619 588 663 645 680 668 c 1
 746 626 l 1
 717 581 673 530 636 504 c 1
 651 497 668 478 668 459 c 0
 668 429 629 422 625 398 c 2
 557 79 l 2
 543 15 480 0 447 0 c 2
 141 0 l 1
 141 0 113 -12 107 -12 c 0
 85 -12 64 32 64 51 c 0
 64 75 113 91 119 124 c 2
 147 254 l 2
 163 327 229 375 294 375 c 0
 350 375 387 337 387 285 c 0
 387 210 317 146 245 146 c 0
 237 146 231 147 227 148 c 1
 220 111 l 2
 218 103 210 88 206 88 c 1
 429 88 l 2
 446 88 456 98 460 117 c 2
 526 426 l 1
 526 431 523 434 521 436 c 1
 456 409 402 393 328 393 c 0
 192 393 154 444 154 485 c 0
EndSplineSet
EndChar
StartChar: uni0E2F
Encoding: 3631 3631 258
Width: 620
VWidth: 1494
Flags: W
HStem: -8 21G<444 458.5> 332 115<230.362 365.314> 332 84<344 419.465> 540 68<242.585 321.64>
VStem: 158 70<450.616 524.907> 324 70<460.182 536.846>
Fore
394 518 m 0xdc
 394 470 368 438 344 416 c 1xbc
 417 419 541 483 600 620 c 1
 678 592 l 1
 666 566 660 558 658 550 c 2
 565 111 l 2
 556 72 555 47 487 3 c 1
 464 -7 460 -8 457 -8 c 2
 456 -8 l 2
 432 -8 411 35 411 53 c 0
 411 74 461 92 467 124 c 2
 528 411 l 1
 434 343 348 332 304 332 c 0
 235 332 158 375 158 459 c 0
 158 549 233 608 301 608 c 256
 359 608 394 568 394 518 c 0xdc
287 540 m 0
 257 540 228 515 228 482 c 0
 228 462 242 447 267 447 c 0xdc
 301 447 324 478 324 504 c 0
 324 526 309 540 287 540 c 0
EndSplineSet
EndChar
StartChar: uni0E30
Encoding: 3632 3632 259
Width: 569
VWidth: 1494
Flags: W
HStem: 0 84<139.925 273.596> 177 68<150.682 227.776> 339 85<220.2 345.695> 517 67<223.328 299.504>
VStem: 68 69<87.0029 163.6> 140 69<426.382 502.239> 231 69<111.543 173.678> 303 69<451.37 514.024>
Fore
140 444 m 0
 140 514 204 584 281 584 c 0
 337 584 372 540 372 491 c 0
 372 474 367 453 355 433 c 1
 405 441 494 471 551 580 c 1
 629 544 l 1
 571 418 418 339 288 339 c 0
 195 339 140 380 140 444 c 0
243 424 m 0
 281 424 303 452 303 480 c 0
 303 504 286 517 268 517 c 0
 241 517 209 494 209 459 c 0
 209 432 230 424 243 424 c 0
68 105 m 0
 68 175 132 245 209 245 c 0
 268 245 300 198 300 151 c 0
 300 134 295 114 283 94 c 1
 336 102 423 133 479 241 c 1
 557 205 l 1
 499 79 347 0 216 0 c 0
 123 0 68 41 68 105 c 0
172 84 m 0
 204 84 231 109 231 140 c 0
 231 161 217 177 196 177 c 0
 162 177 137 151 137 120 c 0
 137 95 155 84 172 84 c 0
EndSplineSet
EndChar
StartChar: uni0E31
Encoding: 3633 3633 260
Width: 0
VWidth: 1494
Flags: W
HStem: 724 85<-59.2439 128.713> 912 67<-116.417 -38.9298>
VStem: -200 69<821.606 897.54> -36 69<832.444 908.664>
Fore
33 890 m 0
 33 843 1 813 -0 812 c 1
 10 810 21 809 33 809 c 0
 163 809 256 908 308 991 c 1
 382 957 l 1
 346 892 301 842 250 808 c 0
 176 757 94 724 1 724 c 0
 -58 724 -121 740 -158 765 c 0
 -181 780 -200 807 -200 842 c 0
 -200 913 -133 979 -60 979 c 256
 -2 979 33 940 33 890 c 0
-74 912 m 256
 -108 912 -131 880 -131 854 c 0
 -131 833 -116 819 -94 819 c 256
 -65 819 -36 843 -36 876 c 0
 -36 898 -52 912 -74 912 c 256
EndSplineSet
Substitution2: "Single Substitution lookup 22 subtable" uni0E31.alt1
Substitution2: "Single Substitution lookup 22 subtable" uni0E31.alt1
EndChar
StartChar: uni0E32
Encoding: 3634 3634 261
Width: 556
VWidth: 1494
Flags: W
HStem: 0 21G<380 485.267> 517 91<280.609 430.108>
VStem: 105 98<418.815 504.969>
Fore
561 375 m 2
 481 0 l 1
 380 0 l 1
 467 407 l 2
 473 438 486 450 493 454 c 1
 446 517 400 517 377 517 c 0
 327 517 236 508 203 392 c 1
 105 392 l 1
 131 473 201 608 401 608 c 0
 504 608 545 547 560 528 c 1
 562 529 565 529 567 529 c 0
 595 529 617 493 617 473 c 0
 617 444 576 444 561 375 c 2
EndSplineSet
EndChar
StartChar: uni0E33
Encoding: 3635 3635 262
Width: 556
VWidth: 1494
Flags: W
HStem: 0 21<380 485.267> 517 91<280.609 430.108> 734 69<-32.15 52.1229> 912 70<-16.4631 66.8508>
VStem: -109 72<807.215 891.861> 72 73<820.589 896.978> 105 98<418.815 504.969>
Back
-30 707 m 256
 -56.6667 707 -78 713.167 -94 725.5 c 128
 -110 737.833 -120.833 753 -126.5 771 c 128
 -132.167 789 -132.667 809 -128 831 c 128
 -123.333 853 -114.5 873 -101.5 891 c 128
 -88.5 909 -71.5 924.167 -50.5 936.5 c 128
 -29.5 948.833 -5.66667 955 21 955 c 256
 47.6667 955 69 948.833 85 936.5 c 128
 101 924.167 111.833 909 117.5 891 c 128
 123.167 873 123.667 853 119 831 c 128
 114.333 809 105.5 789 92.5 771 c 128
 79.5 753 62.5 737.833 41.5 725.5 c 128
 20.5 713.167 -3.33333 707 -30 707 c 256
-15 776 m 256
 3 776 17.5 781.667 28.5 793 c 128
 39.5 804.333 46.1667 816.833 48.5 830.5 c 128
 50.8333 844.167 48.8333 856.667 42.5 868 c 128
 36.1667 879.333 24 885 6 885 c 256
 -12 885 -26.5 879.333 -37.5 868 c 128
 -48.5 856.667 -55.1667 844.167 -57.5 830.5 c 128
 -59.8333 816.833 -57.8333 804.333 -51.5 793 c 128
 -45.1667 781.667 -33 776 -15 776 c 256
481 0 m 1
 380 0 l 1
 465 407 l 2
 465.667 415 469 424.167 475 434.5 c 128
 481 444.833 486.667 451.333 492 454 c 1
 480 469.333 464.5 484 445.5 498 c 128
 426.5 512 399 518.333 363 517 c 0
 337 516.333 314.833 512 296.5 504 c 128
 278.167 496 262.833 486 250.5 474 c 128
 238.167 462 228 448.833 220 434.5 c 128
 212 420.167 206 406 202 392 c 1
 105 392 l 1
 125 455.333 158.333 506.667 205 546 c 128
 251.667 585.333 311.333 606 384 608 c 0
 409.333 609.333 431.167 607.667 449.5 603 c 128
 467.833 598.333 484 592.333 498 585 c 128
 512 577.667 524 568.833 534 558.5 c 128
 544 548.167 553 538 561 528 c 1
 565.667 530 572.167 529.5 580.5 526.5 c 128
 588.833 523.5 597 516 605 504 c 0
 617 484.667 620 470.833 614 462.5 c 128
 608 454.167 598.667 443 586 429 c 0
 578.667 422.333 573.333 415.167 570 407.5 c 128
 566.667 399.833 563.667 389 561 375 c 2
 481 0 l 1
EndSplineSet
Refer: 261 3634 N 1 0 0 1 0 0 2
Refer: 284 3661 N 1 0 0 1 0 0 2
Substitution2: "Single Substitution lookup 22 subtable" uni0E33.alt1
Substitution2: "Single Substitution lookup 22 subtable" uni0E33.alt1
EndChar
StartChar: uni0E34
Encoding: 3636 3636 263
Width: 0
VWidth: 1494
Flags: MW
HStem: 703 63<-319.82 -92.6603> 845 72<-255.701 -85.2461>
Fore
66 717 m 0
 66 692 26 654 8 654 c 0
 -7 654 -116 703 -272 703 c 0
 -344 703 -426 691 -430 691 c 0
 -447 691 -461 710 -461 729 c 0
 -461 747 -454 742 -411 783 c 0
 -381 817 -292 917 -157 917 c 0
 -58 917 35 883 65 734 c 0
 66 730 66 723 66 717 c 0
-10 723 m 1
 -38 811 -108 845 -156 845 c 0
 -254 845 -304 796 -338 759 c 1
 -302 763 -268 766 -235 766 c 0
 -165 766 -93 755 -10 723 c 1
EndSplineSet
Substitution2: "Single Substitution lookup 22 subtable" uni0E34.alt1
Substitution2: "Single Substitution lookup 22 subtable" uni0E34.alt1
EndChar
StartChar: uni0E35
Encoding: 3637 3637 264
Width: 0
VWidth: 1494
Flags: MW
HStem: 702 64<-320.173 -88.624> 845 72<-256.138 -85.8535>
Fore
69 715 m 0
 69 691 24 654 10 654 c 0
 0 654 -119 702 -284 702 c 0
 -350 702 -426 691 -430 691 c 0
 -447 691 -461 710 -461 729 c 0
 -461 759 -427 759 -412 783 c 1
 -332 870 -248 917 -158 917 c 0
 -110 917 -68 905 -28 874 c 1
 -7 975 l 1
 81 975 l 1
 42 789 l 1
 58 759 69 731 69 715 c 0
-10 723 m 1
 -38 811 -108 845 -156 845 c 0
 -242 845 -289 810 -338 759 c 1
 -302 763 -268 766 -235 766 c 0
 -165 766 -93 755 -10 723 c 1
EndSplineSet
Substitution2: "Single Substitution lookup 22 subtable" uni0E35.alt1
Substitution2: "Single Substitution lookup 22 subtable" uni0E35.alt1
EndChar
StartChar: uni0E36
Encoding: 3638 3638 265
Width: 0
VWidth: 1494
Flags: MW
HStem: 702 64<-320.197 -84.5954> 845 72<-228.226 -99.7483> 926 60<-19.6895 50.9694>
VStem: 52 64<858.095 924.957>
Fore
116 906 m 0
 116 882 100 830 33 809 c 1
 52 776 l 2
 59 766 64 752 68 734 c 1
 68 732 l 2
 66 716 68 720 66 712 c 0
 59 679 39 673 24 658 c 0
 21 655 18 654 14 654 c 0
 6 654 -116 702 -279 702 c 0
 -347 702 -427 690 -429 690 c 0
 -444 690 -460 711 -460 730 c 0
 -460 758 -430 756 -410 785 c 0
 -335 869 -248 917 -158 917 c 0
 -124 917 -98 913 -76 901 c 1
 -67 946 -18 986 35 986 c 0
 76 986 116 960 116 906 c 0
20 926 m 0
 -9 926 -28 902 -28 882 c 0
 -28 862 -13 849 4 849 c 0
 33 849 52 876 52 900 c 0
 52 916 40 926 20 926 c 0
-10 723 m 1
 -38 811 -108 845 -156 845 c 0
 -195 845 -269 840 -338 759 c 1
 -302 763 -268 766 -235 766 c 0
 -165 766 -93 755 -10 723 c 1
EndSplineSet
Substitution2: "Single Substitution lookup 22 subtable" uni0E36.alt1
Substitution2: "Single Substitution lookup 22 subtable" uni0E36.alt1
EndChar
StartChar: uni0E37
Encoding: 3639 3639 266
Width: 0
VWidth: 1494
Flags: MW
HStem: 701 65<-320.394 -78.4062> 845 71<-228.257 -104.612>
Fore
63 738 m 1
 64 734 66 725 66 716 c 0
 66 686 41 674 19 656 c 1
 18 654 16 654 14 654 c 0
 -5 654 -96 701 -272 701 c 0
 -361 701 -429 691 -430 691 c 0
 -451 691 -462 710 -462 727 c 0
 -462 751 -444 750 -412 783 c 0
 -323 878 -246 916 -154 916 c 0
 -121 916 -115 914 -100 909 c 1
 -86 975 l 1
 -11 975 l 1
 -31 880 l 1
 -4 865 3 856 8 848 c 1
 35 975 l 1
 113 975 l 1
 63 738 l 1
-10 723 m 1
 -38 811 -108 845 -156 845 c 0
 -199 845 -265 840 -338 759 c 1
 -302 763 -268 766 -235 766 c 0
 -165 766 -93 755 -10 723 c 1
EndSplineSet
Substitution2: "Single Substitution lookup 22 subtable" uni0E37.alt1
Substitution2: "Single Substitution lookup 22 subtable" uni0E37.alt1
EndChar
StartChar: uni0E38
Encoding: 3640 3640 267
Width: 0
VWidth: 1494
Flags: W
HStem: -290 63<-279.646 -241.94 -247.477 -236.403> -132 63<-268.676 -189.489>
VStem: -347 64<-223.052 -146.063> -185 69<-199.867 -135.491>
Fore
-347 -203 m 0
 -347 -132 -281 -69 -211 -69 c 0
 -154 -69 -116 -90 -116 -152 c 0
 -116 -166 -118 -182 -122 -200 c 2
 -167 -413 l 1
 -263 -413 l 1
 -236 -288 l 1
 -243 -289 -251 -290 -259 -290 c 0
 -307 -290 -347 -256 -347 -203 c 0
-224 -132 m 0
 -254 -132 -283 -157 -283 -191 c 0
 -283 -213 -268 -227 -244 -227 c 0
 -211 -227 -185 -198 -185 -170 c 0
 -185 -149 -200 -132 -224 -132 c 0
EndSplineSet
Substitution2: "Single Substitution lookup 21 subtable" a
Substitution2: "Single Substitution lookup 22 subtable" uni0E38.alt1
Substitution2: "Single Substitution lookup 21 subtable" a
Substitution2: "Single Substitution lookup 22 subtable" uni0E38.alt1
EndChar
StartChar: uni0E39
Encoding: 3641 3641 268
Width: 0
VWidth: 1494
Flags: W
HStem: -398 80<-349 -258.41> -287 61<-474.564 -420.029> -130 61<-464.172 -383.66>
VStem: -541 63<-223.038 -143.307> -381 73<-200.558 -133.657>
Fore
-541 -200 m 0
 -541 -128 -471 -69 -407 -69 c 0
 -331 -69 -308 -108 -308 -153 c 0
 -308 -166 -309 -178 -312 -191 c 2
 -334 -297 l 2
 -336 -305 -345 -315 -349 -318 c 1
 -273 -318 l 2
 -259 -318 -247 -311 -243 -291 c 2
 -203 -105 l 2
 -199 -86 -191 -75 -149 -75 c 256
 -114 -75 -105 -83 -105 -95 c 0
 -105 -98 -105 -102 -106 -105 c 2
 -154 -327 l 2
 -166 -384 -218 -398 -254 -398 c 2
 -393 -398 l 1
 -407 -405 -421 -408 -427 -408 c 0
 -446 -408 -460 -376 -460 -362 c 0
 -460 -346 -440 -345 -421 -315 c 1
 -414 -280 l 1
 -427 -285 -440 -287 -452 -287 c 0
 -501 -287 -541 -252 -541 -200 c 0
-420 -130 m 256
 -452 -130 -478 -156 -478 -188 c 0
 -478 -209 -465 -226 -440 -226 c 256
 -406 -226 -381 -197 -381 -166 c 0
 -381 -144 -396 -130 -420 -130 c 256
EndSplineSet
Substitution2: "Single Substitution lookup 21 subtable" b
Substitution2: "Single Substitution lookup 22 subtable" uni0E39.alt1
Substitution2: "Single Substitution lookup 21 subtable" b
Substitution2: "Single Substitution lookup 22 subtable" uni0E39.alt1
EndChar
StartChar: uni0E3A
Encoding: 3642 3642 269
Width: 0
VWidth: 1494
Flags: W
HStem: -224 146<-212.339 -128.656>
VStem: -245 150<-190.565 -110.699>
Fore
-95 -136 m 0
 -95 -173 -129 -224 -186 -224 c 256
 -230 -224 -245 -193 -245 -166 c 0
 -245 -126 -209 -78 -155 -78 c 256
 -107 -78 -95 -112 -95 -136 c 0
EndSplineSet
Substitution2: "Single Substitution lookup 21 subtable" c
Substitution2: "Single Substitution lookup 22 subtable" uni0E3A.alt1
Substitution2: "Single Substitution lookup 21 subtable" c
Substitution2: "Single Substitution lookup 22 subtable" uni0E3A.alt1
EndChar
StartChar: uni0E3F
Encoding: 3647 3647 270
Width: 630
VWidth: 1494
Flags: W
HStem: 0 100<221 275 359 464.907> 318 99<291 343> 608 104<331 404 489 539.599>
VStem: 522 102<188.587 288.933> 550 101<526.612 595.055>
Fore
364 417 m 1xe0
 404 608 l 1
 331 608 l 1
 291 417 l 1
 364 417 l 1xe0
427 419 m 1
 539 436 550 524 550 554 c 0xe8
 550 591 528 607 467 608 c 1
 427 419 l 1
296 100 m 1
 343 318 l 1
 268 318 l 1
 221 100 l 1
 296 100 l 1
371 100 m 2
 466 100 502 133 519 214 c 0
 521 222 522 231 522 240 c 0xf0
 522 276 501 313 406 318 c 1
 359 100 l 1
 371 100 l 2
624 254 m 0
 624 193 574 0 375 0 c 2
 338 0 l 1
 312 -120 l 1
 249 -120 l 1
 275 0 l 1
 102 0 l 1
 227 589 l 1
 228 591 228 594 228 596 c 0
 228 620 197 638 197 658 c 0
 197 678 246 724 269 724 c 0
 274 724 284 719 296 712 c 1
 426 712 l 1
 454 842 l 1
 517 842 l 1
 489 712 l 1
 585 712 651 655 651 566 c 0xe8
 651 538 642 438 547 380 c 1
 576 365 624 327 624 254 c 0
EndSplineSet
EndChar
StartChar: uni0E40
Encoding: 3648 3648 271
Width: 366
VWidth: 1494
Flags: W
HStem: -7 67<197.288 276.121> 152 69<245.423 286.596> 578 20G<216.761 326>
VStem: 115 80<63.5732 125.592> 290 68<73.8246 148.938>
Fore
358 130 m 0
 358 61 296 -7 219 -7 c 0
 149 -7 115 32 115 83 c 0
 115 93 116 102 118 112 c 2
 221 598 l 1
 326 598 l 1
 245 218 l 1
 254 221 259 221 267 221 c 0
 326 221 358 181 358 130 c 0
252 152 m 256
 216 152 195 123 195 95 c 0
 195 75 209 60 233 60 c 256
 264 60 290 89 290 117 c 0
 290 139 274 152 252 152 c 256
EndSplineSet
EndChar
StartChar: uni0E41
Encoding: 3649 3649 272
Width: 651
VWidth: 1494
Flags: W
HStem: -7 67<197.288 276.121 487.558 565.875> 152 69<245.423 286.596 533.676 576.127> 578 20G<216.761 326 505.761 614>
VStem: 115 80<63.5732 125.592> 290 68<73.8246 148.938> 404 80<62.7108 125.739> 579 69<74.6616 148.079>
Fore
648 131 m 0
 648 58 580 -7 507 -7 c 0
 439 -7 404 32 404 84 c 0
 404 93 405 102 407 112 c 2
 510 598 l 1
 614 598 l 1
 533 218 l 1
 542 221 547 221 555 221 c 0
 613 221 648 181 648 131 c 0
358 130 m 0
 358 61 296 -7 219 -7 c 0
 149 -7 115 32 115 83 c 0
 115 93 116 102 118 112 c 2
 221 598 l 1
 326 598 l 1
 245 218 l 1
 254 221 259 221 267 221 c 0
 326 221 358 181 358 130 c 0
540 152 m 256
 507 152 484 124 484 95 c 0
 484 74 499 60 521 60 c 256
 553 60 579 88 579 116 c 0
 579 138 564 152 540 152 c 256
252 152 m 256
 216 152 195 123 195 95 c 0
 195 75 209 60 233 60 c 256
 264 60 290 89 290 117 c 0
 290 139 274 152 252 152 c 256
EndSplineSet
EndChar
StartChar: uni0E42
Encoding: 3650 3650 273
Width: 415
VWidth: 1494
Flags: W
HStem: -9 69<265.017 337.647> 1049 87<356.311 525.695>
VStem: 188 74<62.3231 113.455> 350 73<71.8421 145.308>
Fore
423 129 m 0
 423 60 359 -9 282 -9 c 0
 222 -9 188 41 188 79 c 0
 188 83 188 86 189 90 c 2
 341 804 l 1
 312 842 273 867 211 882 c 1
 209 881 208 880 208 880 c 1
 208 879 209 880 209 879 c 1
 208 877 195 868 187 868 c 0
 179 868 181 872 154 883 c 0
 142 889 136 897 136 908 c 0
 136 941 171 965 223 1021 c 0
 314 1117 403 1136 472 1136 c 0
 627 1136 672 1011 692 957 c 1
 599 918 l 1
 590 939 560 1049 453 1049 c 0
 357 1049 326 1007 271 958 c 1
 420 925 451 836 455 833 c 0
 489 803 435 762 434 761 c 1
 318 217 l 1
 330 217 l 2
 387 217 423 178 423 129 c 0
315 148 m 256
 286 148 262 123 262 95 c 0
 262 74 276 60 297 60 c 256
 329 60 350 89 350 115 c 0
 350 135 335 148 315 148 c 256
EndSplineSet
EndChar
StartChar: uni0E43
Encoding: 3651 3651 274
Width: 417
VWidth: 1494
Flags: W
HStem: -7 70<266.694 340.377> 149 69<320 326.5 309.75 350.347> 754 80<257.246 368.273> 912 75<344.661 403.98> 1054 82<336.57 503.745>
VStem: 156 84<852.417 966.225> 191 73<65.7846 119.106> 353 72<76.1434 145.971> 383 82<849.317 914.059> 565 93<886.369 992.488>
Fore
318 149 m 256xfb40
 293 149 264 127 264 97 c 0
 264 78 277 63 299 63 c 256
 321 63 353 84 353 115 c 0
 353 135 337 149 318 149 c 256xfb40
315 936 m 0
 315 982 353 987 381 987 c 0
 442 987 465 949 465 908 c 0
 465 820 367 754 286 754 c 0
 240 754 156 780 156 874 c 0xfcc0
 156 991 266 1136 446 1136 c 0
 612 1136 658 1036 658 938 c 0
 658 912 655 887 650 863 c 0
 636 795 616 791 595 783 c 0
 554 761 458 700 412 650 c 1
 320 218 l 1
 325 218 328 220 333 220 c 0
 386 220 425 184 425 131 c 0
 425 55 354 -7 285 -7 c 0
 229 -7 191 31 191 80 c 0xfb40
 191 87 192 94 193 101 c 2
 300 602 l 1
 294 613 284 622 284 638 c 0
 284 659 298 672 326 692 c 0
 357 719 461 797 550 852 c 1
 556 863 565 884 565 916 c 0
 565 984 519 1054 424 1054 c 0
 319 1054 240 971 240 903 c 0
 240 861 269 834 312 834 c 0
 365 834 383 867 383 889 c 0xfcc0
 383 910 361 916 350 916 c 0
 336 916 333 912 328 912 c 0
 322 912 315 921 315 936 c 0
EndSplineSet
EndChar
StartChar: uni0E44
Encoding: 3652 3652 275
Width: 415
VWidth: 1494
Flags: W
HStem: -7 67<262.841 339.27> 1018 69<180 252.039>
VStem: 190 70<62.9938 120.618> 352 71<73.5943 144.676>
Fore
423 128 m 0
 423 65 364 -7 283 -7 c 256
 229 -7 190 27 190 80 c 0
 190 88 191 97 193 106 c 2
 300 610 l 1
 292 622 285 634 285 648 c 0
 285 666 297 682 306 694 c 1
 349 735 470 841 591 888 c 1
 594 912 568 968 537 987 c 1
 519 980 386 923 368 851 c 1
 358 840 345 834 331 834 c 0
 313 834 289 842 289 855 c 0
 289 859 290 857 292 865 c 1
 292 868 293 873 292 877 c 0
 268 944 211 991 119 1018 c 1
 180 1087 l 1
 236 1072 331 1018 353 952 c 1
 421 1038 566 1083 573 1083 c 0
 623 1083 697 920 697 867 c 0
 697 846 676 816 621 816 c 1
 582 800 476 737 415 673 c 1
 318 218 l 1
 330 218 l 2
 388 218 423 178 423 128 c 0
315 148 m 256
 290 148 260 126 260 95 c 0
 260 73 276 60 297 60 c 256
 322 60 352 83 352 113 c 0
 352 133 337 148 315 148 c 256
EndSplineSet
EndChar
StartChar: uni0E45
Encoding: 3653 3653 276
Width: 557
VWidth: 1494
Flags: W
HStem: 517 91<280.609 430.108>
VStem: 105 98<418.815 504.969>
Fore
561 375 m 2
 409 -341 l 1
 308 -341 l 1
 467 407 l 2
 473 438 486 450 493 454 c 1
 446 517 400 517 377 517 c 0
 327 517 236 508 203 392 c 1
 105 392 l 1
 131 473 201 608 401 608 c 0
 504 608 545 547 560 528 c 1
 562 529 565 529 567 529 c 0
 595 529 617 493 617 473 c 0
 617 444 576 444 561 375 c 2
EndSplineSet
EndChar
StartChar: uni0E46
Encoding: 3654 3654 277
Width: 638
VWidth: 1494
Flags: W
HStem: 278 69<220.667 295.027> 435 63<244.525 304.774> 534 76<270.846 369.645 534.711 603.034>
VStem: 143 75<349.817 421.561> 307 72<359.765 431.977>
Fore
143 387 m 0
 143 505 242 610 361 610 c 0
 412 610 450 589 476 550 c 1
 527 592 578 611 600 611 c 0
 636 611 666 555 669 547 c 1
 701 547 717 506 717 491 c 0
 717 452 631 441 602 306 c 2
 481 -263 l 2
 479 -271 478 -282 461 -302 c 1
 407 -346 388 -360 373 -360 c 0
 350 -360 336 -310 336 -302 c 0
 336 -290 369 -280 385 -241 c 1
 504 318 l 2
 519 391 565 451 590 472 c 1
 592 479 564 528 553 528 c 0
 547 528 510 499 500 490 c 1
 501 482 501 475 500 469 c 0
 495 449 456 431 444 431 c 0
 417 431 432 464 397 503 c 0
 370 534 336 534 329 534 c 0
 285 534 260 508 244 481 c 1
 255 487 274 498 301 498 c 0
 342 498 379 471 379 417 c 0
 379 343 312 278 238 278 c 0
 177 278 143 323 143 387 c 0
271 435 m 256
 239 435 218 405 218 380 c 0
 218 360 233 347 253 347 c 256
 278 347 307 369 307 400 c 0
 307 423 290 435 271 435 c 256
EndSplineSet
EndChar
StartChar: uni0E47
Encoding: 3655 3655 278
Width: 0
VWidth: 1494
Flags: MW
HStem: 703 76<-118.461 -13.6402> 852 51<-71.325 -8.81804> 933 69<-267.537 -177.5 -177.5 -147.908 -147.908 -26.1655>
VStem: -402 77<788.641 882.825> -127 49<780.664 844.853> -1 52<787.336 850.687>
Fore
51 837 m 0
 51 757 -14 703 -98 703 c 0
 -204 703 -230 759 -241 783 c 1
 -265 762 l 2
 -276 752 -284 745 -288 740 c 1
 -288 736 -287 732 -288 728 c 0
 -291 713 -313 703 -337 703 c 0
 -356 703 -374 708 -380 723 c 0
 -397 757 -402 785 -402 806 c 0
 -402 849 -377 987 -212 1000 c 0
 -189 1001 -166 1002 -143 1002 c 0
 -67 1002 26 1025 87 1094 c 1
 163 1067 l 1
 114 1001 28 932 -127 932 c 0
 -148 932 -144 933 -169 933 c 0
 -305 933 -325 859 -325 810 c 0
 -325 802 -324 795 -322 788 c 1
 -289 817 -275 834 -242 861 c 1
 -230 879 -224 879 -218 879 c 0
 -200 879 -191 881 -188 881 c 0
 -181 881 -177 876 -176 868 c 1
 -177 862 -177 857 -177 852 c 0
 -177 796 -140 775 -113 770 c 1
 -122 773 -127 788 -127 803 c 0
 -127 860 -70 903 -20 903 c 0
 37 903 51 868 51 837 c 0
-31 852 m 256
 -57 852 -78 831 -78 809 c 0
 -78 791 -63 779 -46 779 c 256
 -23 779 -1 799 -1 826 c 0
 -1 847 -20 852 -31 852 c 256
EndSplineSet
Substitution2: "Single Substitution lookup 22 subtable" uni0E47.alt1
Substitution2: "Single Substitution lookup 22 subtable" uni0E47.alt1
EndChar
StartChar: uni0E48
Encoding: 3656 3656 279
Width: 0
VWidth: 1494
Flags: W
HStem: 1036 190<37 91 -4 132 37 37>
Fore
-4 1036 m 1
 37 1226 l 1
 132 1226 l 1
 91 1036 l 1
 -4 1036 l 1
EndSplineSet
Substitution2: "Single Substitution lookup 22 subtable" uni0E48.alt2
Substitution2: "Single Substitution lookup 22 subtable" uni0E48.alt2
EndChar
StartChar: uni0E49
Encoding: 3657 3657 280
Width: 0
VWidth: 1494
Flags: W
HStem: 1159 58<11.8662 49.2478> 1293 60<18.2809 90.3365>
VStem: -53 63<1218.83 1283.5> 92 67<1234.18 1291.49>
Fore
-53 1234 m 0
 -53 1299 11 1353 71 1353 c 0
 124 1353 159 1315 159 1268 c 0
 159 1248 145 1180 95 1132 c 1
 265 1181 336 1269 382 1332 c 1
 438 1292 l 1
 435 1288 325 1100 55 1046 c 0
 46 1044 -50 1025 -55 1025 c 0
 -67 1025 -79 1064 -79 1073 c 0
 -79 1075 -76 1079 -69 1085 c 1
 -30 1098 24 1104 50 1161 c 1
 43 1160 36 1159 29 1159 c 0
 -23 1159 -53 1193 -53 1234 c 0
60 1293 m 256
 34 1293 10 1272 10 1246 c 0
 10 1229 24 1217 44 1217 c 256
 70 1217 92 1239 92 1262 c 0
 92 1280 79 1293 60 1293 c 256
EndSplineSet
Substitution2: "Single Substitution lookup 22 subtable" uni0E49.alt2
Substitution2: "Single Substitution lookup 22 subtable" uni0E49.alt2
EndChar
StartChar: uni0E4A
Encoding: 3658 3658 281
Width: 0
VWidth: 1494
Flags: W
HStem: 1031 42<-144.639 -93.6003> 1140 48<-138.14 -82.8189> 1233 58<-114.198 -22.7294 62.0503 114.897>
VStem: -207 61<1073.5 1166.32> -75 49<1080.82 1138.71> -2 51<1152 1190.87> 113 71<1154.46 1223.83> 252 70<1203.63 1327>
Fore
-207 1121 m 0
 -207 1200 -143 1291 -51 1291 c 0
 -37 1291 8 1288 21 1248 c 1
 35 1264 61 1292 106 1292 c 0
 124 1292 184 1283 184 1210 c 0
 184 1178 174 1146 162 1130 c 1
 222 1159 245 1248 252 1327 c 1
 322 1345 l 1
 314 1238 285 1081 75 1031 c 1
 73 1031 l 2
 63 1031 57 1047 57 1060 c 0
 57 1083 113 1091 113 1178 c 0
 113 1208 101 1227 79 1227 c 0
 70 1227 54 1221 48 1196 c 1
 49 1188 49 1181 49 1175 c 2
 49 1152 l 1
 -2 1152 l 1
 -2 1162 l 2
 -2 1190 -8 1233 -65 1233 c 0
 -102 1233 -131 1203 -140 1164 c 1
 -133 1172 -114 1188 -85 1188 c 0
 -54 1188 -26 1167 -26 1130 c 0
 -26 1076 -77 1031 -129 1031 c 0
 -184 1031 -207 1074 -207 1121 c 0
-105 1140 m 0
 -122 1140 -146 1122 -146 1099 c 0
 -146 1085 -136 1073 -120 1073 c 0
 -110 1073 -75 1084 -75 1115 c 0
 -75 1135 -95 1140 -105 1140 c 0
EndSplineSet
Substitution2: "Single Substitution lookup 22 subtable" uni0E4A.alt2
Substitution2: "Single Substitution lookup 22 subtable" uni0E4A.alt2
EndChar
StartChar: uni0E4B
Encoding: 3659 3659 282
Width: 0
VWidth: 1494
Flags: MW
HStem: 1132 82<-54 23 135 213 -71 230 -54 -54>
Fore
118 1132 m 1
 98 1039 l 1
 3 1039 l 1
 23 1132 l 1
 -71 1132 l 1
 -54 1214 l 1
 40 1214 l 1
 60 1306 l 1
 155 1306 l 1
 135 1214 l 1
 230 1214 l 1
 213 1132 l 1
 118 1132 l 1
EndSplineSet
Substitution2: "Single Substitution lookup 22 subtable" uni0E4B.alt2
Substitution2: "Single Substitution lookup 22 subtable" uni0E4B.alt2
EndChar
StartChar: uni0E4C
Encoding: 3660 3660 283
Width: 0
VWidth: 1494
Flags: W
HStem: 978 47<5.47599 75.4939>
VStem: -52 56<1026.78 1090.78> 83 48<1032.75 1093.84>
Fore
131 1075 m 0
 131 1031 86 978 28 978 c 0
 -28 978 -52 1006 -52 1042 c 0
 -52 1078 -30 1133 25 1157 c 0
 96 1192 218 1179 257 1250 c 1
 313 1217 l 1
 266 1157 218 1127 116 1117 c 1
 127 1104 131 1088 131 1075 c 0
52 1099 m 256
 25 1099 4 1078 4 1053 c 0
 4 1037 16 1025 36 1025 c 256
 62 1025 83 1047 83 1069 c 0
 83 1087 70 1099 52 1099 c 256
EndSplineSet
Substitution2: "Single Substitution lookup 22 subtable" uni0E4C.alt2
Substitution2: "Single Substitution lookup 22 subtable" uni0E4C.alt2
EndChar
StartChar: uni0E4D
Encoding: 3661 3661 284
Width: 0
VWidth: 1494
Flags: W
HStem: 734 69<-32.15 52.1229> 912 70<-16.4631 66.8508>
VStem: -109 72<807.215 891.861> 72 73<820.589 896.978>
Fore
145 888 m 0
 145 824 92 734 -8 734 c 256
 -75 734 -109 775 -109 829 c 0
 -109 903 -49 982 45 982 c 0
 113 982 145 937 145 888 c 0
30 912 m 256
 -11 912 -37 874 -37 845 c 0
 -37 826 -28 803 7 803 c 256
 47 803 72 840 72 869 c 0
 72 887 64 912 30 912 c 256
EndSplineSet
Substitution2: "Single Substitution lookup 22 subtable" uni0E4D.alt1
Substitution2: "Single Substitution lookup 22 subtable" uni0E4D.alt1
EndChar
StartChar: uni0E4E
Encoding: 3662 3662 285
Width: 0
VWidth: 1494
Flags: W
HStem: 1014 37<48.7007 144.267 139.677 148.856 148.856 159>
VStem: -206 108<723.466 816.082> -71 92<910.447 987.73>
Fore
-71 938 m 0
 -71 997 -2 1051 96 1051 c 0
 116 1051 137 1049 159 1045 c 1
 201 1007 l 1
 178 1012 157 1014 136 1014 c 0
 44 1014 21 971 21 942 c 0
 21 921 36 904 63 891 c 1
 24 842 l 1
 -7 841 -98 830 -98 782 c 0
 -98 762 -82 748 -36 748 c 0
 -20 748 -6 751 4 756 c 1
 -48 695 l 1
 -74 684 -97 679 -118 679 c 0
 -149 679 -206 693 -206 751 c 0
 -206 778 -191 868 -45 885 c 1
 -63 900 -71 918 -71 938 c 0
EndSplineSet
Substitution2: "Single Substitution lookup 22 subtable" uni0E4E.alt1
Substitution2: "Single Substitution lookup 22 subtable" uni0E4E.alt1
EndChar
StartChar: uni0E4F
Encoding: 3663 3663 286
Width: 674
VWidth: 1494
Flags: W
HStem: -4 61<266.312 441.372> 115 58<322.829 432.285> 321 59<345.518 454.942> 438 63<338.482 512.432>
VStem: 131 64<128.177 295.379> 255 58<182.905 288.574> 465 59<205.329 310.836> 583 64<199.591 369.749>
Fore
404 321 m 256
 343 321 313 272 313 227 c 0
 313 194 334 173 373 173 c 256
 447 173 465 239 465 267 c 0
 465 300 444 321 404 321 c 256
255 219 m 0
 255 306 334 380 417 380 c 256
 484 380 524 335 524 277 c 0
 524 199 452 115 360 115 c 256
 294 115 255 161 255 219 c 0
429 438 m 0
 313 438 195 331 195 208 c 0
 195 120 259 57 348 57 c 0
 471 57 583 169 583 289 c 0
 583 373 525 438 429 438 c 0
131 194 m 0
 131 352 279 501 442 501 c 0
 564 501 647 413 647 299 c 0
 647 150 504 -4 335 -4 c 256
 213 -4 131 80 131 194 c 0
EndSplineSet
EndChar
StartChar: uni0E50
Encoding: 3664 3664 287
Width: 699
VWidth: 1494
Flags: W
HStem: -10 80<273.969 457.646> 351 81<321.908 517.558>
VStem: 130 84<122.999 254.454> 570 86<167.096 306.115>
Fore
130 161 m 0
 130 298 256 432 440 432 c 0
 552 432 656 372 656 256 c 0
 656 117 527 -10 346 -10 c 0
 208 -10 130 57 130 161 c 0
423 351 m 0
 296 351 214 262 214 184 c 0
 214 115 279 70 363 70 c 0
 461 70 570 136 570 242 c 0
 570 314 510 351 423 351 c 0
EndSplineSet
EndChar
StartChar: uni0E51
Encoding: 3665 3665 288
Width: 732
VWidth: 1494
Flags: W
HStem: 2 82<281.964 384.925> 182 65<336.992 418.342> 348 84<341.331 526.65>
VStem: 135 88<97.77 240.788> 262 59<93.0318 166.813> 422 65<99.278 178.641> 591 87<125.547 287.626>
Fore
135 146 m 0
 135 280 261 432 461 432 c 0
 597 432 678 345 678 232 c 0
 678 144 620 -30 421 -99 c 1
 399 -25 l 1
 517 3 591 128 591 216 c 0
 591 296 528 348 443 348 c 0
 319 348 223 260 223 162 c 0
 223 132 232 96 270 81 c 1
 265 90 262 103 262 117 c 0
 262 174 320 247 398 247 c 0
 454 247 487 207 487 159 c 0
 487 70 392 2 284 2 c 0
 180 2 135 69 135 146 c 0
383 182 m 256
 352 182 321 156 321 122 c 0
 321 99 338 84 362 84 c 256
 395 84 422 112 422 144 c 0
 422 167 406 182 383 182 c 256
EndSplineSet
EndChar
StartChar: uni0E52
Encoding: 3666 3666 289
Width: 795
VWidth: 1494
Flags: W
HStem: 0 78<213 632.979> 103 52<348.452 421.82> 238 54<376.352 429.993> 348 78<397.934 485.569 627.703 693.985>
VStem: 171 83<179.268 569.468> 269 77<157.259 225.529> 432 57<166.582 235.65> 526 74<221 231.023 231.023 277.557>
Fore
269 204 m 0
 269 284 341 426 472 426 c 0
 516 426 546 409 563 374 c 1
 601 425 662 428 677 428 c 0
 718 428 756 409 773 374 c 1
 776 374 781 375 784 375 c 0
 807 375 816 340 816 326 c 0
 816 301 772 284 764 244 c 2
 729 81 l 1
 705 24 663 0 599 0 c 2
 121 0 l 2
 119 0 117 -1 116 -1 c 0
 103 -1 100 18 100 34 c 0
 100 74 111 74 132 81 c 1
 136 98 171 253 171 403 c 0
 171 481 161 557 133 611 c 1
 208 665 l 1
 242 587 254 498 254 410 c 0
 254 285 231 163 213 78 c 1
 616 78 l 2
 629 78 642 81 654 106 c 1
 684 250 l 2
 688 268 696 295 715 309 c 1
 705 343 676 349 661 349 c 0
 638 349 605 335 600 310 c 1
 600 221 l 1
 525 221 l 1
 526 228 526 235 526 241 c 0
 526 265 522 287 514 307 c 0
 499 345 459 348 446 348 c 0
 412 348 378 318 365 280 c 1
 381 288 397 292 412 292 c 0
 456 292 489 263 489 217 c 0
 489 165 445 103 373 103 c 0
 315 103 269 137 269 204 c 0
398 238 m 256
 375 238 346 218 346 187 c 0
 346 169 359 155 380 155 c 256
 402 155 432 175 432 205 c 0
 432 225 416 238 398 238 c 256
EndSplineSet
EndChar
StartChar: uni0E53
Encoding: 3667 3667 290
Width: 780
VWidth: 1494
Flags: W
HStem: -9 61<222.724 302.871> 151 61<249.247 315.466> 343 85<278.387 413.618 597.758 689.109>
VStem: 117 82<167 256.719> 117 101<56.0373 196.474> 319 64<67.2749 147.177>
Fore
279 151 m 256xec
 246 151 218 124 218 90 c 0
 218 67 235 52 258 52 c 256
 293 52 319 83 319 113 c 0
 319 136 302 151 279 151 c 256xec
117 143 m 0
 117 307 233 428 368 428 c 0
 420 428 484 410 506 351 c 1
 520 376 540 395 565 406 c 0
 600 421 631 427 658 427 c 0
 705 427 740 409 756 374 c 1
 760 374 764 375 768 375 c 0
 790 375 799 343 799 328 c 0
 799 316 793 308 784 299 c 2
 762 275 l 2
 755 266 749 256 747 244 c 2
 695 0 l 1
 614 0 l 1
 669 257 l 2
 673 276 689 303 698 309 c 1
 683 334 666 342 630 342 c 0
 546 342 529 245 525 226 c 2
 485 37 l 2
 482 25 473 25 438 25 c 256
 404 25 396 26 398 37 c 2
 438 227 l 2
 440 238 441 248 441 257 c 0
 441 318 394 343 351 343 c 0
 276 343 199 279 199 167 c 1xf4
 238 208 275 212 292 212 c 0
 344 212 383 179 383 126 c 0
 383 58 322 -9 245 -9 c 0
 151 -9 117 62 117 143 c 0
EndSplineSet
EndChar
StartChar: uni0E54
Encoding: 3668 3668 291
Width: 730
VWidth: 1494
Flags: W
HStem: 0 76<252 421 527 647> 256 59<420.183 492.939> 351 78<285.326 603.616> 584 20G<822.5 927.13>
VStem: 140 82<164.002 293.683> 349 61<175.123 245.481> 495 61<184.187 253.412>
Fore
140 202 m 0
 140 356 263 429 387 429 c 0
 591 429 777 459 868 604 c 1
 936 581 l 1
 846 394 571 351 371 351 c 0
 240 339 222 274 222 215 c 0
 222 180 229 134 252 76 c 1
 421 76 l 1
 362 122 349 165 349 195 c 0
 349 262 413 315 474 315 c 256
 520 315 556 283 556 236 c 0
 556 190 522 141 471 121 c 1
 500 90 514 82 527 76 c 1
 663 76 l 1
 647 0 l 1
 196 0 l 2
 166 0 164 9 159 37 c 1
 159 42 l 1
 160 47 164 51 170 55 c 1
 150 109 140 158 140 202 c 0
461 256 m 256
 434 256 410 232 410 205 c 0
 410 186 425 173 444 173 c 256
 469 173 495 198 495 223 c 0
 495 243 479 256 461 256 c 256
EndSplineSet
EndChar
StartChar: uni0E55
Encoding: 3669 3669 292
Width: 730
VWidth: 1494
Flags: W
HStem: 0 78<249 421 522 649> 256 59<420.639 493.209> 351 74<289.2 420.715 476.872 524.535> 513 67<487.055 561.598> 588 20G<839.5 914.889>
VStem: 141 79<160.765 291.646> 350 61<175.575 246.393> 410 65<435.57 501.536> 495 61<182.612 254.237> 564 70<458.817 510.543>
Fore
410 457 m 0xfdc0
 410 516 469 580 543 580 c 256
 594 580 634 547 634 497 c 0
 634 490 633 452 615 448 c 1
 701 464 813 522 866 608 c 1
 932 581 l 1
 875 474 757 403 615 374 c 0
 575 366 492 351 412 351 c 0
 300 351 220 325 220 207 c 0
 220 175 226 133 249 78 c 1
 421 78 l 1
 411 83 350 130 350 194 c 0xfec0
 350 255 406 315 475 315 c 0
 525 315 556 281 556 236 c 0
 556 190 523 142 473 121 c 1
 476 116 486 96 522 78 c 1
 666 78 l 1
 649 0 l 1
 197 0 l 2
 165 0 166 10 160 40 c 1
 160 43 l 1
 161 48 164 52 170 55 c 1
 148 119 141 166 141 203 c 0
 141 368 274 425 384 425 c 0
 404 425 415 425 421 426 c 1
 413 432 410 444 410 457 c 0xfdc0
528 513 m 0
 498 513 475 488 475 458 c 0xfdc0
 475 437 491 431 510 431 c 0
 519 431 534 434 540 436 c 1
 551 443 564 458 564 478 c 0
 564 499 549 513 528 513 c 0
462 256 m 0
 434 256 411 232 411 205 c 0xfec0
 411 185 425 173 445 173 c 0
 475 173 495 201 495 224 c 0
 495 243 481 256 462 256 c 0
EndSplineSet
EndChar
StartChar: uni0E56
Encoding: 3670 3670 293
Width: 684
VWidth: 1494
Flags: W
HStem: -13 77<214.688 361.603 272.729 441.878> 146 60<221.807 292.664> 369 82<315.552 515.721>
VStem: 151 60<66.7778 135.896> 295 62<89.1935 144.349> 567 87<183.073 322.423>
Fore
319 -13 m 0
 249 -13 151 7 151 85 c 0
 151 160 216 206 274 206 c 256
 341 206 357 163 357 130 c 0
 357 113 350 76 330 61 c 1
 338 60 346 60 354 60 c 0
 473 60 567 171 567 262 c 0
 567 335 500 369 422 369 c 0
 361 369 283 346 217 293 c 0
 209 286 201 282 193 282 c 0
 174 282 163 300 163 316 c 0
 163 320 163 326 171 338 c 1
 111 411 44 547 44 610 c 2
 44 617 l 1
 126 623 l 1
 125 619 125 614 125 609 c 0
 125 587 135 558 167 504 c 2
 208 440 l 2
 221 420 231 403 235 389 c 1
 287 424 358 451 437 451 c 0
 554 451 654 386 654 271 c 0
 654 180 588 88 515 42 c 0
 482 22 433 -13 319 -13 c 0
261 146 m 0
 232 146 211 119 211 96 c 0
 211 77 226 64 244 64 c 0
 272 64 295 88 295 115 c 0
 295 134 281 146 261 146 c 0
EndSplineSet
EndChar
StartChar: uni0E57
Encoding: 3671 3671 294
Width: 881
VWidth: 1494
Flags: W
HStem: -3 60<209.118 287.753> 149 68<217.811 298.938> 345 86<275.301 398.462 577.713 643.697>
VStem: 112 93<61.2225 193.461> 301 68<70.3393 145.653> 663 82<244.238 326.986>
Fore
112 142 m 0
 112 279 214 431 358 431 c 0
 384 431 451 426 488 353 c 1
 544 418 598 426 627 426 c 0
 712 426 745 359 745 288 c 0
 745 271 743 255 740 239 c 1
 788 304 840 388 882 461 c 2
 940 565 l 2
 958 597 970 623 980 643 c 1
 1046 617 l 1
 942 401 730 93 620 0 c 0
 612 -7 595 -11 593 -11 c 0
 575 -11 555 15 555 31 c 0
 555 54 583 34 630 143 c 0
 643 167 663 224 663 269 c 0
 663 307 648 339 603 339 c 0
 552 339 524 295 513 253 c 2
 471 55 l 2
 469 48 435 46 426 46 c 0
 416 46 382 48 384 55 c 2
 425 248 l 1
 425 255 l 2
 425 303 395 345 345 345 c 0
 292 345 216 306 201 188 c 1
 226 207 252 217 279 217 c 0
 335 217 369 178 369 129 c 0
 369 59 312 -3 234 -3 c 0
 146 -3 112 65 112 142 c 0
264 149 m 0
 233 149 205 125 205 93 c 0
 205 73 219 57 244 57 c 0
 274 57 301 84 301 114 c 0
 301 136 286 149 264 149 c 0
EndSplineSet
EndChar
StartChar: uni0E58
Encoding: 3672 3672 295
Width: 793
VWidth: 1494
Flags: W
HStem: -4 71<531.945 643.825> 160 70<580.577 658.644>
VStem: 139 82<134.057 281.381> 504 63<81.3694 146.978> 662 65<80.5956 156.73>
Fore
727 139 m 0
 727 82 678 -4 538 -4 c 0
 493 -4 419 3 376 94 c 1
 342 48 l 2
 311 0 296 0 288 0 c 2
 193 0 l 2
 166 0 161 21 161 35 c 0
 161 43 161 48 170 60 c 1
 150 134 l 2
 142 168 139 194 139 215 c 0
 139 317 223 419 384 428 c 0
 650 442 800 505 862 625 c 1
 936 595 l 1
 853 399 521 342 382 342 c 0
 253 342 221 265 221 199 c 0
 221 148 240 98 250 78 c 1
 279 78 l 1
 395 250 l 2
 401 258 408 262 415 262 c 0
 420 262 469 250 469 227 c 0
 469 220 469 220 439 179 c 1
 441 132 469 100 506 81 c 1
 504 88 504 96 504 103 c 0
 504 160 559 230 639 230 c 0
 699 230 727 185 727 139 c 0
624 160 m 0
 590 160 567 129 567 103 c 0
 567 83 580 67 604 67 c 0
 638 67 662 97 662 125 c 0
 662 145 648 160 624 160 c 0
EndSplineSet
EndChar
StartChar: uni0E59
Encoding: 3673 3673 296
Width: 775
VWidth: 1494
Flags: W
HStem: -9 63<260.046 338.165> 148 64<268.755 348.529> 362 79<562.083 650.254>
VStem: 103 84<141.822 243.975> 352 65<68.6211 144.226>
Fore
417 126 m 0
 417 49 337 -9 272 -9 c 0
 162 -9 103 68 103 158 c 0
 103 329 271 383 337 419 c 2
 356 435 374 445 389 445 c 0
 421 445 439 417 475 345 c 1
 512 414 579 441 623 441 c 0
 680 441 712 414 726 378 c 1
 826 518 856 585 873 623 c 1
 935 586 l 1
 901 512 796 340 726 263 c 0
 719 256 711 253 701 253 c 0
 681 253 657 263 657 278 c 0
 657 283 660 288 660 304 c 0
 660 339 640 362 613 362 c 0
 590 362 533 342 519 256 c 1
 535 214 l 1
 578 83 l 2
 584 62 589 45 591 34 c 1
 510 -6 l 1
 471 157 406 310 367 345 c 1
 276 299 l 2
 205 266 187 213 187 179 c 0
 187 161 193 143 202 126 c 1
 221 173 272 212 328 212 c 0
 384 212 417 174 417 126 c 0
314 148 m 0
 276 148 256 117 256 90 c 0
 256 68 270 54 294 54 c 0
 329 54 352 85 352 111 c 0
 352 133 336 148 314 148 c 0
EndSplineSet
EndChar
StartChar: uni0E5A
Encoding: 3674 3674 297
Width: 829
VWidth: 1494
Flags: W
HStem: -8 21G<441 457 655.5 671> 332 84<344 419.465> 332 115<230.362 365.314> 540 68<242.585 321.64>
VStem: 158 70<450.616 524.907> 324 70<460.182 536.846>
Fore
287 540 m 0xbc
 257 540 228 515 228 482 c 0
 228 462 242 447 267 447 c 0
 301 447 324 478 324 504 c 0
 324 526 309 540 287 540 c 0xbc
394 518 m 0
 394 470 368 438 344 416 c 1xdc
 417 419 541 483 600 620 c 1
 681 592 l 1
 675 583 661 563 656 543 c 2
 633 435 l 1
 682 456 766 509 814 620 c 1
 894 592 l 1
 884 576 874 561 870 543 c 2
 779 111 l 2
 769 66 763 44 701 3 c 1
 679 -6 674 -8 668 -8 c 0
 643 -8 628 39 628 46 c 0
 628 63 670 77 677 111 c 2
 704 238 l 2
 712 278 725 336 742 411 c 1
 699 380 656 359 615 347 c 1
 565 111 l 2
 556 72 555 47 487 3 c 1
 465 -6 460 -8 454 -8 c 0
 428 -8 414 40 414 47 c 0
 414 63 456 78 463 111 c 2
 490 238 l 2
 498 278 511 336 528 411 c 1
 434 343 348 332 304 332 c 0
 235 332 158 375 158 459 c 0
 158 549 233 608 301 608 c 256
 359 608 394 568 394 518 c 0
EndSplineSet
EndChar
StartChar: uni0E5B
Encoding: 3675 3675 298
Width: 1771
VWidth: 1494
Flags: W
HStem: 26 96<349.826 534.296> 235 71<458.804 534.786> 325 44<1558.94 1642> 399 69<469.214 543.519> 514 20G<1000.5 1036.5> 579 103<418.999 541.954>
VStem: 183 104<188.484 404.338> 384 71<309.175 385.895> 568 107<466.052 553.421>
Fore
384 329 m 0
 384 398 444 468 522 468 c 0
 536 468 550 466 564 463 c 1
 567 475 568 486 568 496 c 0
 568 558 522 579 485 579 c 0
 376 579 287 428 287 280 c 0
 287 149 373 122 438 122 c 0
 536 122 626 188 673 260 c 0
 741 366 763 474 780 555 c 1
 863 518 915 451 914 350 c 1
 987 465 993 482 1008 534 c 1
 1065 494 1094 432 1104 375 c 1
 1142 429 1167 473 1188 517 c 1
 1249 466 1282 395 1285 359 c 1
 1328 405 1350 454 1357 487 c 1
 1453 427 1443 400 1701 369 c 1
 1651 339 1533 325 1481 325 c 0
 1425 325 1389 333 1372 353 c 1
 1327 255 1272 224 1238 206 c 1
 1231 275 1198 344 1181 366 c 1
 1119 261 1077 218 1043 190 c 1
 1039 259 1029 332 1007 356 c 1
 953 250 888 193 847 161 c 1
 847 169 l 2
 847 247 832 323 811 345 c 1
 789 277 700 142 630 93 c 0
 590 66 519 26 421 26 c 0
 341 26 183 57 183 260 c 0
 183 451 302 682 513 682 c 0
 615 682 675 608 675 498 c 0
 675 412 636 235 479 235 c 0
 426 235 384 274 384 329 c 0
514 399 m 0
 482 399 455 373 455 343 c 0
 455 322 469 306 494 306 c 0
 528 306 551 338 551 364 c 0
 551 385 536 399 514 399 c 0
EndSplineSet
EndChar
StartChar: zerowidthnonjoiner
Encoding: 8204 8204 299
Width: 0
VWidth: 1494
Flags: MW
Fore
-56 -460 m 1
 -138 -460 l 1
 36 359 l 1
 118 359 l 1
 -56 -460 l 1
EndSplineSet
EndChar
StartChar: zerowidthjoiner
Encoding: 8205 8205 300
Width: 0
VWidth: 1494
Flags: MW
Fore
7 220 m 1
 -42 197 l 1
 -54 242 l 1
 19 277 l 1
 -37 318 l 1
 -1 363 l 1
 66 309 l 1
 156 363 l 1
 174 318 l 1
 101 277 l 1
 157 242 l 1
 127 197 l 1
 89 220 l 1
 -56 -460 l 1
 -138 -460 l 1
 7 220 l 1
EndSplineSet
EndChar
StartChar: lefttorightmark
Encoding: 8206 8206 301
Width: 0
VWidth: 1494
Flags: MW
HStem: 241 68<93 218>
Fore
93 241 m 1
 -56 -460 l 1
 -138 -460 l 1
 26 309 l 1
 233 309 l 1
 203 356 l 1
 263 384 l 1
 319 277 l 1
 216 167 l 1
 169 196 l 1
 218 241 l 1
 93 241 l 1
EndSplineSet
EndChar
StartChar: righttoleftmark
Encoding: 8207 8207 302
Width: 0
VWidth: 1494
Flags: MW
HStem: 241 68<-100 11>
Fore
-115 241 m 1
 -84 196 l 1
 -144 167 l 1
 -200 277 l 1
 -97 384 l 1
 -50 356 l 1
 -100 309 l 1
 108 309 l 1
 -56 -460 l 1
 -138 -460 l 1
 11 241 l 1
 -115 241 l 1
EndSplineSet
EndChar
StartChar: endash
Encoding: 8211 8211 303
Width: 750
VWidth: 1494
Flags: W
HStem: 188 105<134 680>
Fore
112 188 m 1
 134 293 l 1
 702 293 l 1
 680 188 l 1
 112 188 l 1
EndSplineSet
EndChar
StartChar: emdash
Encoding: 8212 8212 304
Width: 1088
VWidth: 1494
Flags: W
HStem: 190 104<62 1128>
Fore
40 190 m 1
 62 294 l 1
 1150 294 l 1
 1128 190 l 1
 40 190 l 1
EndSplineSet
EndChar
StartChar: quoteleft
Encoding: 8216 8216 305
Width: 354
VWidth: 1494
Flags: W
HStem: 450 308<263 370 370 370>
VStem: 196 165<489.277 590.644>
Fore
361 546 m 0
 361 499 317 450 263 450 c 0
 226 450 196 474 196 516 c 0
 196 564 229 657 370 758 c 1
 419 720 l 1
 396 709 316 640 298 607 c 1
 338 607 361 580 361 546 c 0
EndSplineSet
EndChar
StartChar: quoteright
Encoding: 8217 8217 306
Width: 357
VWidth: 1494
Flags: W
HStem: 450 308<237 343 343 343>
VStem: 245 166<617.914 718.07>
Fore
245 663 m 0
 245 707 289 758 343 758 c 0
 382 758 411 734 411 692 c 0
 411 644 378 553 237 450 c 1
 188 487 l 1
 218 503 288 568 309 601 c 1
 268 601 245 629 245 663 c 0
EndSplineSet
EndChar
StartChar: quotesinglbase
Encoding: 8218 8218 307
Width: 352
VWidth: 1494
Flags: W
HStem: -158 307<96 204 204 204>
VStem: 106 165<7.57739 109.493>
Fore
106 54 m 0
 106 99 150 149 204 149 c 0
 242 149 271 125 271 84 c 0
 271 39 243 -55 96 -158 c 1
 47 -121 l 1
 82 -104 152 -37 169 -7 c 1
 130 -7 106 21 106 54 c 0
EndSplineSet
EndChar
StartChar: quotedblleft
Encoding: 8220 8220 308
Width: 597
VWidth: 1494
Flags: W
HStem: 450 308<500 606 606 616>
VStem: 196 165<489.277 590.644> 432 165<490 593.208>
Fore
597 546 m 0
 597 492 544 450 500 450 c 0
 461 450 432 474 432 515 c 0
 432 564 463 654 606 758 c 1
 655 720 l 1
 627 708 557 643 534 607 c 1
 574 607 597 580 597 546 c 0
361 546 m 0
 361 499 317 450 263 450 c 0
 226 450 196 474 196 516 c 0
 196 564 229 657 370 758 c 1
 419 720 l 1
 396 709 316 640 298 607 c 1
 338 607 361 580 361 546 c 0
EndSplineSet
EndChar
StartChar: quotedblright
Encoding: 8221 8221 309
Width: 597
VWidth: 1494
Flags: W
HStem: 450 308<237 343 521.057 545>
VStem: 245 166<617.914 718.07> 481 166<617.914 718.488>
Fore
245 663 m 0
 245 707 289 758 343 758 c 0
 382 758 411 734 411 692 c 0
 411 644 378 553 237 450 c 1
 188 487 l 1
 218 503 288 568 309 601 c 1
 268 601 245 629 245 663 c 0
481 663 m 0
 481 708 526 758 580 758 c 0
 617 758 647 734 647 692 c 0
 647 644 614 553 473 450 c 1
 424 487 l 1
 456 505 530 575 545 601 c 1
 504 601 481 629 481 663 c 0
EndSplineSet
EndChar
StartChar: quotedblbase
Encoding: 8222 8222 310
Width: 576
VWidth: 1494
Flags: W
HStem: -158 307<96 204 381.418 406>
VStem: 106 165<7.57739 109.493> 342 165<7.57739 109.936>
Fore
106 54 m 0
 106 99 150 149 204 149 c 0
 242 149 271 125 271 84 c 0
 271 39 243 -55 96 -158 c 1
 47 -121 l 1
 82 -104 152 -37 169 -7 c 1
 130 -7 106 21 106 54 c 0
342 55 m 0
 342 100 386 149 440 149 c 0
 478 149 507 125 507 84 c 0
 507 39 479 -55 332 -158 c 1
 283 -121 l 1
 311 -108 381 -46 406 -7 c 1
 365 -7 342 22 342 55 c 0
EndSplineSet
EndChar
StartChar: dagger
Encoding: 8224 8224 311
Width: 645
VWidth: 1494
Flags: W
HStem: 398 100<164 354 475 672> 699 20G<417.747 522>
Fore
693 498 m 1
 672 398 l 1
 454 398 l 1
 327 -197 l 1
 227 -197 l 1
 354 398 l 1
 143 398 l 1
 164 498 l 1
 375 498 l 1
 422 719 l 1
 522 719 l 1
 475 498 l 1
 693 498 l 1
EndSplineSet
EndChar
StartChar: daggerdbl
Encoding: 8225 8225 312
Width: 650
VWidth: 1494
Flags: W
HStem: -218 21G<223 326.236> 70 100<93 284 404 602> 398 100<163 354 474 672>
Fore
672 398 m 1
 453 398 l 1
 404 170 l 1
 623 170 l 1
 602 70 l 1
 383 70 l 1
 322 -218 l 1
 223 -218 l 1
 284 70 l 1
 72 70 l 1
 93 170 l 1
 305 170 l 1
 354 398 l 1
 142 398 l 1
 163 498 l 1
 375 498 l 1
 435 782 l 1
 534 782 l 1
 474 498 l 1
 693 498 l 1
 672 398 l 1
EndSplineSet
EndChar
StartChar: bullet
Encoding: 8226 8226 313
Width: 547
VWidth: 1494
Flags: W
HStem: 144 313<271.853 382.223>
VStem: 168 322<253.686 349.059>
Fore
490 337 m 0
 490 250 418 144 296 144 c 256
 205 144 168 201 168 264 c 0
 168 355 241 457 362 457 c 256
 451 457 490 402 490 337 c 0
EndSplineSet
EndChar
StartChar: ellipsis
Encoding: 8230 8230 314
Width: 853
VWidth: 1494
Flags: W
HStem: 0 146<117.438 199.786 398.438 480.786 679.438 761.786>
VStem: 82 150<31.6316 110.701> 363 150<31.6316 110.701> 644 150<31.6316 110.701>
CounterMasks: 1 70
Fore
82 55 m 0
 82 100 124 146 173 146 c 256
 210 146 232 121 232 89 c 0
 232 42 193 0 142 0 c 256
 106 0 82 22 82 55 c 0
644 55 m 0
 644 100 686 146 735 146 c 256
 772 146 794 121 794 89 c 0
 794 42 755 0 704 0 c 256
 668 0 644 22 644 55 c 0
363 55 m 0
 363 100 405 146 454 146 c 256
 491 146 513 121 513 89 c 0
 513 42 474 0 423 0 c 256
 387 0 363 22 363 55 c 0
EndSplineSet
EndChar
StartChar: perthousand
Encoding: 8240 8240 315
Width: 1210
VWidth: 1494
Flags: W
HStem: -1 80<618.252 705.685 978.685 1065.6> 303 81<654.417 745.1 1015.89 1103.64> 326 81<251.661 340.624> 631 81<287.32 376.839>
VStem: 161 78<417.89 568.45> 391 78<470.694 620.133> 528 78<90.1283 240.752> 757 79<142.095 292.007> 888 78<90.1238 239.936> 1117 80<141.587 291.854>
Fore
161 464 m 0xbfc0
 161 578 244 712 356 712 c 0
 429 712 469 653 469 575 c 0
 469 468 391 326 274 326 c 0
 191 326 161 393 161 464 c 0xbfc0
339 631 m 0
 270 631 239 535 239 479 c 0
 239 442 252 407 292 407 c 0
 351 407 391 492 391 555 c 0
 391 590 380 631 339 631 c 0
180 -33 m 1
 735 756 l 1
 825 756 l 1
 270 -33 l 1
 180 -33 l 1
528 136 m 0
 528 252 613 384 723 384 c 0xdfc0
 806 384 836 317 836 246 c 0
 836 131 754 -1 641 -1 c 0
 559 -1 528 65 528 136 c 0
705 303 m 0
 626 303 606 183 606 148 c 0
 606 105 625 79 658 79 c 0
 714 79 757 158 757 228 c 0
 757 263 747 303 705 303 c 0
888 133 m 0
 888 243 967 384 1084 384 c 0
 1166 384 1197 317 1197 245 c 0
 1197 128 1110 -1 1002 -1 c 0
 930 -1 888 53 888 133 c 0
1066 303 m 0
 991 303 966 194 966 150 c 0
 966 115 978 79 1019 79 c 0
 1075 79 1117 160 1117 227 c 0
 1117 264 1106 303 1066 303 c 0
EndSplineSet
EndChar
StartChar: minute
Encoding: 8242 8242 316
Width: 240
VWidth: 1494
Flags: W
HStem: 505 241<233 383 383 383>
Fore
255 744 m 1
 383 746 l 1
 233 505 l 1
 158 505 l 1
 255 744 l 1
EndSplineSet
EndChar
StartChar: second
Encoding: 8243 8243 317
Width: 461
VWidth: 1494
Flags: W
HStem: 505 241<233 383 383 383>
Fore
255 744 m 1
 383 746 l 1
 233 505 l 1
 158 505 l 1
 255 744 l 1
444 744 m 1
 572 746 l 1
 421 505 l 1
 346 505 l 1
 444 744 l 1
EndSplineSet
EndChar
StartChar: guilsinglleft
Encoding: 8249 8249 318
Width: 364
VWidth: 1494
Flags: W
HStem: 45 441<293 322 293 293>
VStem: 109 306<266 486 266 266>
Fore
109 266 m 1
 293 486 l 1
 415 486 l 1
 224 266 l 1
 322 45 l 1
 200 45 l 1
 109 266 l 1
EndSplineSet
EndChar
StartChar: guilsinglright
Encoding: 8250 8250 319
Width: 363
VWidth: 1494
Flags: W
HStem: 45 441<155 185 155 155>
VStem: 62 307<45 266 45 45>
Fore
185 45 m 1
 62 45 l 1
 254 266 l 1
 155 486 l 1
 278 486 l 1
 369 266 l 1
 185 45 l 1
EndSplineSet
EndChar
StartChar: fraction
Encoding: 8260 8260 320
Width: 260
VWidth: 1494
Flags: W
Fore
-101 -78 m 1
 413 774 l 1
 503 774 l 1
 -11 -78 l 1
 -101 -78 l 1
EndSplineSet
EndChar
StartChar: Euro
Encoding: 8364 8364 321
Width: 744
VWidth: 1494
Flags: W
HStem: -10 101<402.772 601.385> 221 82<130 211 322 561> 377 79<163 231 363 594> 616 105<495.758 667.471>
VStem: 211 111<163.748 221>
Fore
502 91 m 0
 593 91 646 134 667 152 c 1
 718 78 l 1
 644 13 550 -10 467 -10 c 0
 345 -10 219 46 211 221 c 1
 113 221 l 1
 130 303 l 1
 216 303 l 1
 217 310 219 318 220 324 c 2
 231 377 l 1
 146 377 l 1
 163 456 l 1
 255 456 l 1
 330 649 485 721 617 721 c 0
 687 721 767 701 814 644 c 1
 751 552 l 1
 701 607 639 616 602 616 c 0
 494 616 410 560 363 456 c 1
 611 456 l 1
 594 377 l 1
 336 377 l 1
 330 346 l 2
 325 324 322 310 321 303 c 1
 578 303 l 1
 561 221 l 1
 322 221 l 1
 337 109 449 91 502 91 c 0
EndSplineSet
EndChar
StartChar: uni2113
Encoding: 8467 8467 322
Width: 331
VWidth: 1494
Flags: W
HStem: -7 74<164.002 259.965> 623 74<300.115 345.829>
VStem: 111 85<41.5103 102.436> 347 75<507.498 615.236>
Fore
153 281 m 1
 138 273 112 262 102 256 c 1
 87 272 86 286 70 303 c 1
 170 363 l 1
 211 555 l 2
 237 676 298 697 337 697 c 0
 374 697 422 672 422 600 c 0
 422 502 337 376 243 321 c 1
 198 106 l 2
 196 99 196 93 196 88 c 0
 196 74 202 67 219 67 c 0
 250 67 297 99 310 105 c 1
 295 31 l 1
 260 14 218 -7 173 -7 c 0
 132 -7 111 16 111 61 c 0
 111 73 112 87 115 102 c 2
 153 281 l 1
260 422 m 1
 311 454 347 538 347 588 c 0
 347 607 341 622 325 623 c 0
 307 623 299 607 291 568 c 2
 260 422 l 1
EndSplineSet
EndChar
StartChar: trademark
Encoding: 8482 8482 323
Width: 944
VWidth: 1494
Flags: MW
Fore
522 619 m 1
 536 686 l 1
 213 686 l 1
 199 619 l 1
 323 619 l 1
 252 286 l 1
 326 286 l 1
 397 619 l 1
 522 619 l 1
664 284 m 1
 648 602 l 1
 560 278 l 1
 489 286 l 1
 590 641 l 2
 605 686 655 690 670 690 c 0
 701 690 715 671 716 647 c 2
 728 381 l 1
 854 647 l 2
 865 671 888 690 919 690 c 0
 931 690 976 686 976 647 c 0
 976 641 l 2
 928 286 l 1
 853 278 l 1
 902 602 l 1
 749 284 l 1
 664 284 l 1
EndSplineSet
EndChar
StartChar: Ohm
Encoding: 8486 8486 324
Width: 861
VWidth: 1494
Flags: W
HStem: 0 97<103.467 339 561 804> 665 33<462.112 672.219>
VStem: 93 1<160.403 182> 137 137<295.118 476.341> 770 133<389 563.464>
Fore
137 382 m 0
 137 557 328 698 577 698 c 256
 772 698 903 611 903 476 c 0
 903 318 741 195 577 175 c 1
 561 97 l 1
 725 97 l 2
 799 97 820 119 842 182 c 1
 843 182 l 1
 804 0 l 1
 490 0 l 1
 534 208 l 1
 687 238 770 381 770 487 c 0
 770 595 688 665 570 665 c 0
 401 665 274 529 274 384 c 0
 274 309 311 230 412 208 c 1
 368 0 l 1
 54 0 l 1
 93 182 l 1
 94 182 l 1
 93 174 93 167 93 160 c 0
 93 114 113 97 175 97 c 2
 339 97 l 1
 355 175 l 1
 246 188 137 260 137 382 c 0
EndSplineSet
EndChar
StartChar: estimated
Encoding: 8494 8494 325
Width: 554
VWidth: 1494
Flags: W
HStem: -9 75<236.781 382.793> 232 68<216 468> 441 84<303.86 435.085>
VStem: 97 96<109.997 226.147> 468 86<300 313.146 313.146 320.461 316.803 405.089>
Fore
97 183 m 0
 97 340 215 525 392 525 c 0
 529 525 561 423 561 342 c 0
 561 317 558 295 554 278 c 0
 546 241 502 232 484 232 c 2
 198 232 l 1
 194 214 193 199 193 184 c 0
 193 86 271 66 294 66 c 0
 342 66 401 94 422 109 c 1
 441 37 l 1
 411 19 351 -9 271 -9 c 0
 161 -9 97 69 97 183 c 0
468 300 m 1
 470 311 472 321 472 336 c 0
 472 391 439 441 372 441 c 256
 295 441 230 368 216 300 c 1
 468 300 l 1
EndSplineSet
EndChar
StartChar: partialdiff
Encoding: 8706 8706 326
Width: 542
VWidth: 1494
Flags: W
HStem: -7 64<195.102 314.564> 395 57<289.181 398.336> 691 60<427.849 514.42>
VStem: 92 82<79.167 249.619> 420 38<341 374.413> 526 68<487.806 681.317>
Fore
299 650 m 0
 299 696 408 751 465 751 c 0
 522 751 594 711 594 568 c 0
 594 383 463 -7 233 -7 c 0
 122 -7 92 71 92 143 c 0
 92 280 203 452 341 452 c 0
 445 452 458 377 458 348 c 2
 458 341 l 1
 460 346 526 515 526 614 c 0
 526 658 513 691 476 691 c 0
 424 691 389 615 341 615 c 0
 310 615 299 635 299 650 c 0
352 395 m 0
 256 395 174 250 174 147 c 0
 174 97 195 57 251 57 c 0
 358 57 420 218 420 302 c 0
 420 350 403 393 352 395 c 0
EndSplineSet
EndChar
StartChar: Delta
Encoding: 8710 8710 327
Width: 653
VWidth: 1494
Flags: W
HStem: 0 78<129 494>
Fore
486 765 m 1
 640 0 l 1
 12 0 l 1
 486 765 l 1
408 522 m 1
 129 78 l 1
 494 78 l 1
 408 522 l 1
EndSplineSet
EndChar
StartChar: product
Encoding: 8719 8719 328
Width: 908
VWidth: 1494
Flags: W
HStem: -120 53<65 155 258 330 536 621 726 802> 771 42<252 333 436 799 904 992>
Fore
992 771 m 1
 904 771 l 1
 726 -67 l 1
 814 -67 l 1
 802 -120 l 1
 524 -120 l 1
 536 -67 l 1
 621 -67 l 1
 799 771 l 1
 436 771 l 1
 258 -67 l 1
 342 -67 l 1
 330 -120 l 1
 53 -120 l 1
 65 -67 l 1
 155 -67 l 1
 333 771 l 1
 243 771 l 1
 252 813 l 1
 1001 813 l 1
 992 771 l 1
EndSplineSet
EndChar
StartChar: summation
Encoding: 8721 8721 329
Width: 780
VWidth: 1494
Flags: W
HStem: -215 91<164 577.835> 670 56<350 700.492>
Fore
736 46 m 1
 664 -118 l 2
 643 -172 580 -215 518 -215 c 2
 -15 -215 l 1
 445 220 l 1
 197 726 l 1
 709 726 l 2
 791 726 813 703 813 653 c 0
 813 648 813 641 812 635 c 2
 800 471 l 1
 752 471 l 1
 731 647 741 670 558 670 c 2
 350 670 l 1
 569 260 l 1
 164 -124 l 1
 437 -124 l 2
 593 -124 599 -108 690 46 c 1
 736 46 l 1
EndSplineSet
EndChar
StartChar: minus
Encoding: 8722 8722 330
Width: 733
VWidth: 1494
Flags: W
HStem: 241 110<153 700>
Fore
724 351 m 1
 700 241 l 1
 129 241 l 1
 153 351 l 1
 724 351 l 1
EndSplineSet
EndChar
StartChar: radical
Encoding: 8730 8730 331
Width: 638
VWidth: 1494
Flags: W
HStem: -22 21G<249.064 294.766> 765 38<746 821>
Fore
720 803 m 1
 829 803 l 1
 821 765 l 1
 746 765 l 1
 283 -22 l 1
 252 -22 l 1
 188 414 l 1
 122 392 l 1
 117 420 l 1
 284 483 l 1
 331 144 l 1
 720 803 l 1
EndSplineSet
EndChar
StartChar: infinity
Encoding: 8734 8734 332
Width: 1029
VWidth: 1494
Flags: W
HStem: 90 76<210.88 371.838> 90 85<716.746 883.917> 448 90<278.578 455.041 789.283 954.775>
VStem: 108 58<210.27 352.6> 999 60<267.11 406.226>
Fore
108 270 m 0xb8
 108 394 219 538 386 538 c 0
 533 538 586 427 600 389 c 1
 688 496 767 538 858 538 c 0
 992 538 1059 459 1059 361 c 0
 1059 225 934 90 780 90 c 0x78
 664 90 607 163 579 239 c 1
 553 206 451 90 307 90 c 0
 192 90 108 165 108 270 c 0xb8
363 448 m 0
 236 448 166 359 166 276 c 0
 166 206 221 166 283 166 c 0xb8
 408 166 483 278 527 344 c 1
 509 406 448 448 363 448 c 0
807 175 m 0x78
 912 175 999 252 999 342 c 0
 999 398 962 450 873 450 c 0
 793 450 714 388 638 286 c 1
 657 218 734 175 807 175 c 0x78
EndSplineSet
EndChar
StartChar: integral
Encoding: 8747 8747 333
Width: 551
VWidth: 1494
Flags: W
HStem: -199 75<-4 9.10156 9.10156 15.4959 12.2987 111.919> 679 80<545.834 641.687 639.388 643.985 643.985 657>
Fore
252 -46 m 2
 209 -153 138 -206 39 -206 c 0
 18 -206 -3 -204 -26 -199 c 1
 -4 -124 l 1
 9 -127 22 -128 35 -128 c 0
 104 -128 153 -89 185 -10 c 2
 410 598 l 2
 445 704 513 759 616 759 c 0
 639 759 663 757 689 752 c 1
 657 674 l 1
 644 677 630 679 618 679 c 0
 556 679 511 643 483 570 c 2
 252 -46 l 2
EndSplineSet
EndChar
StartChar: approxequal
Encoding: 8776 8776 334
Width: 724
VWidth: 1494
Flags: W
HStem: 48 118<447.28 600.637> 109 118<174.992 343.797> 265 118<493.28 646.637> 326 118<220.992 389.797>
Fore
332 444 m 0x10
 432 444 509 383 585 383 c 0
 627 383 673 400 721 435 c 1
 696 314 l 1
 646 281 596 265 546 265 c 0x20
 493 265 352 326 292 326 c 0
 250 326 203 309 148 274 c 1
 173 392 l 1
 214 427 266 444 332 444 c 0x10
286 227 m 0x40
 386 227 463 166 539 166 c 0
 581 166 627 183 675 218 c 1
 650 97 l 1
 600 64 550 48 500 48 c 0x80
 447 48 306 109 246 109 c 0
 204 109 157 92 102 57 c 1
 127 175 l 1
 168 210 220 227 286 227 c 0x40
EndSplineSet
EndChar
StartChar: notequal
Encoding: 8800 8800 335
Width: 618
VWidth: 1494
Flags: W
HStem: -22 21G<186 281.204> 91 91<106 239 366 571> 305 91<151 339 467 617>
Fore
424 305 m 1
 366 182 l 1
 591 182 l 1
 571 91 l 1
 324 91 l 1
 272 -22 l 1
 186 -22 l 1
 239 91 l 1
 86 91 l 1
 106 182 l 1
 281 182 l 1
 339 305 l 1
 132 305 l 1
 151 396 l 1
 381 396 l 1
 451 546 l 1
 536 546 l 1
 467 396 l 1
 636 396 l 1
 617 305 l 1
 424 305 l 1
EndSplineSet
EndChar
StartChar: lessequal
Encoding: 8804 8804 336
Width: 662
VWidth: 1494
Flags: W
HStem: 0 91<109 574> 587 20G<646.362 697.686>
Fore
179 419 m 1
 702 607 l 1
 680 505 l 1
 298 366 l 1
 622 230 l 1
 600 129 l 1
 157 317 l 1
 179 419 l 1
90 0 m 1
 109 91 l 1
 593 91 l 1
 574 0 l 1
 90 0 l 1
EndSplineSet
EndChar
StartChar: greaterequal
Encoding: 8805 8805 337
Width: 639
VWidth: 1494
Flags: W
HStem: 0 91<109 574> 587 20G<215.686 267.128>
Fore
641 317 m 1
 118 129 l 1
 140 230 l 1
 522 366 l 1
 198 505 l 1
 220 607 l 1
 663 419 l 1
 641 317 l 1
90 0 m 1
 109 91 l 1
 593 91 l 1
 574 0 l 1
 90 0 l 1
EndSplineSet
EndChar
StartChar: lozenge
Encoding: 9674 9674 338
Width: 588
VWidth: 1494
Flags: W
VStem: 136 465<345 345 345 345 345 345>
Fore
601 345 m 1
 265 -138 l 1
 136 345 l 1
 469 825 l 1
 601 345 l 1
305 54 m 1
 509 345 l 1
 428 632 l 1
 227 345 l 1
 305 54 l 1
EndSplineSet
EndChar
StartChar: dottedcircle
Encoding: 9676 9676 339
Width: 633
VWidth: 1494
Flags: W
HStem: 27 70<293.61 353.934> 48 69<203.036 262.918 396.623 454.239> 100 70<133.698 193.918 486.773 546.377> 182 71<97.0818 156.418 558.359 618.227> 278 70<96.6339 156.816 599.157 635.473> 372 70<136.956 196.552 597.497 658.125> 456 69<209.925 270.821 561.148 622.729> 510 68<300.637 361.205 493.637 552.275> 528 70<400.009 460.457>
VStem: 91 71<208.516 224.434 285.814 340.981> 197 72<57.5867 89.7175 479.706 495.333> 287 74<35.1075 89.5249> 393 74<535.651 590.161> 552 72<209.141 225.061 459.595 495.637> 593 72<285.35 320.615 401.554 417.243>
Fore
627 500 m 0x1e78
 627 480 619 456 586 456 c 0
 565 456 554 463 554 478 c 0
 554 491 562 525 601 525 c 0
 619 525 627 516 627 500 c 0x1e78
557 555 m 0
 557 542 553 510 516 510 c 0
 497 510 488 518 488 533 c 0
 488 549 497 578 531 578 c 0x1d78
 549 578 557 570 557 555 c 0
665 420 m 0x1c7a
 665 408 659 372 620 372 c 0
 601 372 593 381 593 397 c 0
 593 417 601 442 637 442 c 0
 656 442 665 435 665 420 c 0x1c7a
366 554 m 0
 366 536 358 510 323 510 c 256
 304 510 295 518 295 533 c 0
 295 549 304 578 338 578 c 256x1d78
 357 578 366 570 366 554 c 0
624 229 m 0x1c7c
 624 211 616 182 580 182 c 0
 561 182 552 190 552 206 c 0
 552 220 559 253 595 253 c 0
 615 253 624 245 624 229 c 0x1c7c
275 499 m 0
 275 480 267 456 232 456 c 0
 213 456 203 463 203 477 c 0
 203 491 211 525 247 525 c 0x1e78
 266 525 275 516 275 499 c 0
552 146 m 0x3c7c
 552 130 544 100 510 100 c 0
 490 100 481 108 481 124 c 0
 481 140 489 170 525 170 c 0
 543 170 552 162 552 146 c 0x3c7c
459 93 m 0
 459 77 453 48 418 48 c 256
 400 48 391 56 391 71 c 0
 391 87 399 117 433 117 c 256x5c78
 451 117 459 109 459 93 c 0
203 420 m 0
 203 409 197 372 161 372 c 0
 141 372 132 381 132 398 c 0
 132 415 140 442 175 442 c 256
 194 442 203 435 203 420 c 0
162 229 m 0
 162 214 156 182 120 182 c 256
 101 182 91 190 91 206 c 0
 91 223 100 253 135 253 c 256
 154 253 162 245 162 229 c 0
269 94 m 0
 269 78 260 48 225 48 c 256
 206 48 197 56 197 71 c 0
 197 87 206 117 240 117 c 256
 259 117 269 109 269 94 c 0
200 146 m 0
 200 130 191 100 156 100 c 0
 137 100 128 108 128 124 c 0
 128 140 136 170 171 170 c 0x3c78
 190 170 200 162 200 146 c 0
393 557 m 0
 393 577 417 598 438 598 c 256
 450 598 467 588 467 569 c 0
 467 544 438 528 423 528 c 256x1cf8
 410 528 393 540 393 557 c 0
287 56 m 0
 287 79 313 97 332 97 c 256
 340 97 361 91 361 69 c 0
 361 45 333 27 317 27 c 256x9c78
 303 27 287 41 287 56 c 0
593 306 m 0x1c7a
 593 317 602 348 638 348 c 0
 649 348 665 340 665 321 c 0
 665 293 635 278 623 278 c 0
 599 278 593 295 593 306 c 0x1c7a
164 320 m 0
 164 295 135 278 120 278 c 256
 105 278 91 292 91 308 c 0
 91 332 118 348 135 348 c 256
 143 348 164 342 164 320 c 0
EndSplineSet
EndChar
StartChar: uni0E10.alt1
Encoding: 63232 63232 340
Width: 624
VWidth: 1494
Flags: W
HStem: -17 21G<344 363.5> 130 60<226.96 294.749> 286 61<239.766 320.447> 397 78<279.25 303.546 291.398 448.824> 496 71<652 714> 540 77<370.461 495.78>
VStem: 165 59<194.072 270.5> 324 89<203.615 260.565>
Fore
285 286 m 256xf3
 252 286 224 256 224 226 c 0
 224 204 241 190 264 190 c 256
 300 190 324 220 324 248 c 0
 324 268 311 286 285 286 c 256xf3
165 214 m 0
 165 292 234 347 300 347 c 0
 336 347 371 325 380 294 c 1
 392 270 413 182 413 120 c 0
 413 108 l 1
 477 287 l 2
 493 322 492 324 509 344 c 1
 499 356 436 397 297 397 c 0
 270 397 243 396 213 392 c 1
 204 379 191 367 179 367 c 0
 167 367 130 382 130 398 c 0
 130 409 246 617 455 617 c 0xf7
 489 617 524 613 619 588 c 2
 672 574 l 2
 688 569 702 567 714 567 c 1
 671 501 l 1
 667 498 660 496 652 496 c 0xfb
 637 496 600 507 578 513 c 2
 513 531 l 2
 484 539 467 540 437 540 c 0xf7
 403 540 332 536 279 475 c 1
 296 476 313 476 328 476 c 0
 472 476 553 429 575 414 c 1
 576 416 581 417 586 417 c 0
 618 417 634 378 634 362 c 0
 634 342 586 307 572 275 c 2
 497 66 l 2
 485 38 370 -17 357 -17 c 0
 331 -17 312 27 312 46 c 0
 312 51 313 55 334 75 c 1
 333 91 325 114 321 154 c 1
 305 137 271 130 252 130 c 0
 207 130 165 159 165 214 c 0
EndSplineSet
EndChar
StartChar: uni0E34.alt1
Encoding: 63233 63233 341
Width: 0
VWidth: 1494
Flags: W
HStem: 703 63<-472.82 -245.66> 845 72<-408.701 -238.246>
Back
-90 701 m 256
 -92 697 -95.1667 692 -99.5 686 c 128
 -103.833 680 -108.833 674.5 -114.5 669.5 c 128
 -120.167 664.5 -126 660.333 -132 657 c 128
 -138 653.667 -143.667 653 -149 655 c 0
 -195 669.667 -237.5 680.833 -276.5 688.5 c 128
 -315.5 696.167 -352.167 700.667 -386.5 702 c 128
 -420.833 703.333 -453.667 702.833 -485 700.5 c 128
 -516.333 698.167 -547 695 -577 691 c 1
 -575 691 l 1
 -588.333 689 -598.5 693.333 -605.5 704 c 128
 -612.5 714.667 -615 725.667 -613 737 c 1
 -611 741.667 -606.667 746.333 -600 751 c 128
 -593.333 755.667 -580.667 766.333 -562 783 c 0
 -547.333 799 -531.167 815.333 -513.5 832 c 128
 -495.833 848.667 -475.833 863.333 -453.5 876 c 128
 -431.167 888.667 -406.5 899 -379.5 907 c 128
 -352.5 915 -322 918 -288 916 c 0
 -228.667 913.333 -183 896.333 -151 865 c 128
 -119 833.667 -97.6667 790 -87 734 c 0
 -85.6667 728.667 -85.3333 722.833 -86 716.5 c 128
 -86.6667 710.167 -88 705 -90 701 c 256
-163 723 m 1
 -173.667 760.333 -193 790 -221 812 c 128
 -249 834 -278 845 -308 845 c 0
 -330.667 845 -351 842.5 -369 837.5 c 128
 -387 832.5 -403.167 826 -417.5 818 c 128
 -431.833 810 -445 801 -457 791 c 128
 -469 781 -480 770.333 -490 759 c 1
 -425.333 767 -367.167 767.833 -315.5 761.5 c 128
 -263.833 755.167 -213 742.333 -163 723 c 1
EndSplineSet
Refer: 263 3636 N 1 0 0 1 -153 0 2
EndChar
StartChar: uni0E35.alt1
Encoding: 63234 63234 342
Width: 0
VWidth: 1494
Flags: W
HStem: 702 64<-470.173 -238.624> 845 72<-406.138 -235.853>
Back
-81 710 m 0
 -81 706 -83.1667 700.833 -87.5 694.5 c 128
 -91.8333 688.167 -97.3333 681.667 -104 675 c 128
 -110.667 668.333 -117.5 663 -124.5 659 c 128
 -131.5 655 -137 653.667 -141 655 c 0
 -189.667 669.667 -234.167 680.5 -274.5 687.5 c 128
 -314.833 694.5 -352.167 698.833 -386.5 700.5 c 128
 -420.833 702.167 -453.167 702 -483.5 700 c 128
 -513.833 698 -544 695 -574 691 c 1
 -573 691 l 1
 -585.667 689 -595.5 693.333 -602.5 704 c 128
 -609.5 714.667 -612 725.667 -610 737 c 0
 -608 745 -600.5 752.667 -587.5 760 c 128
 -574.5 767.333 -565.667 775 -561 783 c 1
 -543.667 801 -525.333 818.333 -506 835 c 128
 -486.667 851.667 -466 866.333 -444 879 c 128
 -422 891.667 -398 901.5 -372 908.5 c 128
 -346 915.5 -317.667 918 -287 916 c 0
 -263 914 -242 909.333 -224 902 c 128
 -206 894.667 -190 885.333 -176 874 c 1
 -155 975 l 1
 -67 975 l 1
 -106 789 l 1
 -97 770 -97 770 -89 753.5 c 128
 -83.6667 742.5 -81 728 -81 710 c 0
-160 723 m 1
 -170.667 760.333 -190 790 -218 812 c 128
 -246 834 -275 845 -305 845 c 0
 -347.667 845 -383 836.5 -411 819.5 c 128
 -439 802.5 -464.333 782.333 -487 759 c 1
 -422.333 767 -364.167 767.833 -312.5 761.5 c 128
 -260.833 755.167 -210 742.333 -160 723 c 1
EndSplineSet
Refer: 264 3637 N 1 0 0 1 -150 0 2
EndChar
StartChar: uni0E36.alt1
Encoding: 63235 63235 343
Width: 0
VWidth: 1494
Flags: W
HStem: 702 64<-473.197 -237.595> 845 72<-381.226 -252.748> 926 60<-172.689 -102.031>
VStem: -101 64<858.095 924.957>
Back
-85 723 m 1
 -83 718.333 -83.8333 711 -87.5 701 c 128
 -91.1667 691 -98.3333 682 -109 674 c 0
 -121 664 -121 664 -128 658 c 128
 -132.667 654 -138 653 -144 655 c 0
 -188.667 669.667 -230.667 680.5 -270 687.5 c 128
 -309.333 694.5 -346.667 699 -382 701 c 128
 -417.333 703 -451 702.833 -483 700.5 c 128
 -515 698.167 -545.667 695 -575 691 c 0
 -587 689 -596.5 693.667 -603.5 705 c 128
 -610.5 716.333 -613 727 -611 737 c 0
 -609 745.667 -602.167 753.5 -590.5 760.5 c 128
 -578.833 767.5 -569.333 775.667 -562 785 c 0
 -544 803.667 -525.333 821.5 -506 838.5 c 128
 -486.667 855.5 -465.833 870 -443.5 882 c 128
 -421.167 894 -397 903.167 -371 909.5 c 128
 -345 915.833 -317.333 918 -288 916 c 0
 -276.667 915.333 -266.167 914 -256.5 912 c 128
 -246.833 910 -237 906.333 -227 901 c 1
 -225 909 -222.333 917 -219 925 c 128
 -215.667 933 -210.333 940.667 -203 948 c 0
 -187 964.667 -168.833 975.833 -148.5 981.5 c 128
 -128.167 987.167 -109.333 987.5 -92 982.5 c 128
 -74.6667 977.5 -60.5 967.667 -49.5 953 c 128
 -38.5 938.333 -34 919.667 -36 897 c 0
 -40.6667 873 -50.5 854 -65.5 840 c 128
 -80.5 826 -98.6667 815.667 -120 809 c 1
 -112.667 797.667 -106 786.833 -100 776.5 c 128
 -94 766.167 -88.6667 752 -84 734 c 1
 -84 732 l 1
 -85 723 l 1
-100 891 m 256
 -98 899.667 -98.8333 906.833 -102.5 912.5 c 128
 -106.167 918.167 -111.167 922 -117.5 924 c 128
 -123.833 926 -131 926.5 -139 925.5 c 128
 -147 924.5 -154.333 921 -161 915 c 0
 -170.333 907.667 -176.167 898.333 -178.5 887 c 128
 -180.833 875.667 -178 866.667 -170 860 c 1
 -165.333 854 -159.333 850.5 -152 849.5 c 128
 -144.667 848.5 -137.5 849.5 -130.5 852.5 c 128
 -123.5 855.5 -117.167 860.333 -111.5 867 c 128
 -105.833 873.667 -102 881.667 -100 891 c 256
-163 723 m 1
 -173.667 760.333 -193 790 -221 812 c 128
 -249 834 -278 845 -308 845 c 0
 -350.667 845 -386.667 836.5 -416 819.5 c 128
 -445.333 802.5 -470 782.333 -490 759 c 1
 -425.333 767 -367.167 767.833 -315.5 761.5 c 128
 -263.833 755.167 -213 742.333 -163 723 c 1
EndSplineSet
Refer: 265 3638 N 1 0 0 1 -153 0 2
EndChar
StartChar: uni0E37.alt1
Encoding: 63236 63236 344
Width: 0
VWidth: 1494
Flags: W
HStem: 701 65<-470.394 -228.406> 845 71<-378.257 -254.612>
Back
-84 707 m 0
 -86 695 -95 682.667 -111 670 c 0
 -119.667 662.667 -125.5 657.833 -128.5 655.5 c 128
 -131.5 653.167 -136 653 -142 655 c 0
 -230 683 -309 698 -379 700 c 128
 -449 702 -513.667 699 -573 691 c 0
 -586.333 689 -596.333 693.167 -603 703.5 c 128
 -609.667 713.833 -612 724.333 -610 735 c 0
 -608 742.333 -602.167 749.167 -592.5 755.5 c 128
 -582.833 761.833 -572.333 771 -561 783 c 0
 -519.667 825 -478.167 858.5 -436.5 883.5 c 128
 -394.833 908.5 -345 919.333 -287 916 c 0
 -275 915.333 -267.333 914.5 -264 913.5 c 128
 -260.667 912.5 -255.333 911 -248 909 c 1
 -235 975 l 1
 -160 975 l 1
 -179 880 l 1
 -176.333 878 -170.5 874.167 -161.5 868.5 c 128
 -152.5 862.833 -145.667 856 -141 848 c 1
 -114 975 l 1
 -36 975 l 1
 -85 738 l 1
 -84.3333 734 -83.6667 728.833 -83 722.5 c 128
 -82.3333 716.167 -82.6667 711 -84 707 c 0
-160 723 m 1
 -170.667 760.333 -190 790 -218 812 c 128
 -246 834 -275 845 -305 845 c 0
 -347.667 845 -383.5 836.5 -412.5 819.5 c 128
 -441.5 802.5 -466.333 782.333 -487 759 c 1
 -422.333 767 -364.167 767.833 -312.5 761.5 c 128
 -260.833 755.167 -210 742.333 -160 723 c 1
EndSplineSet
Refer: 266 3639 N 1 0 0 1 -150 0 2
EndChar
StartChar: uni0E48.alt1
Encoding: 63237 63237 345
Width: 0
VWidth: 1494
Flags: W
HStem: 716 217<-171 -119 -217 -73 -171 -171>
Back
-217 716 m 1
 -170 933 l 1
 -72 933 l 1
 -118 716 l 1
 -217 716 l 1
EndSplineSet
Refer: 350 63242 N 1 0 0 1 -187 0 2
Substitution2: "Single Substitution lookup 22 subtable" uni0E48.alt3
Substitution2: "Single Substitution lookup 22 subtable" uni0E48.alt3
EndChar
